<svg width="164" height="69" viewBox="0 0 164 69" fill="none" xmlns="http://www.w3.org/2000/svg">
<path d="M85.9122 0.839355C84.8997 0.949011 83.9404 1.33623 83.1471 1.95557L76.6951 6.92943L52.0578 27.4678C51.4943 27.9266 51.031 28.4899 50.6951 29.1244C50.3592 29.759 50.1574 30.4521 50.1016 31.1632C50.0458 31.8743 50.1371 32.5891 50.3701 33.2656C50.6032 33.942 50.9732 34.5666 51.4587 35.1027V35.2099H51.5509C52.0305 35.7163 52.6063 36.1287 53.2468 36.4243C54.2109 36.8854 55.2927 37.0642 56.3601 36.9389C57.4274 36.8137 58.4339 36.3897 59.2564 35.7189L91.0738 8.80467L91.2582 8.47427C91.6064 7.84023 91.8196 7.14481 91.8849 6.42936C90.49 6.04858 89.2142 5.33865 88.1719 4.36311C87.1296 3.38756 86.3532 2.17686 85.9122 0.839355Z" fill="url(#paint0_linear_657_718)"/>
<path d="M12.1477 44.7466H18.019L22.3695 64.9188H17.5121L16.7286 61.3469H8.00926L6.08288 64.9188H1.20703L12.1477 44.7466ZM15.9636 57.6947L14.2861 49.774L9.9725 57.6947H15.9636Z" fill="#1D4AA3"/>
<path d="M39.3661 44.7466C40.5532 44.7265 41.7349 44.9048 42.8594 45.2735C43.7935 45.5767 44.6378 46.0945 45.3204 46.7826C45.9552 47.4424 46.414 48.2425 46.6569 49.1133C46.92 50.1271 46.9546 51.184 46.7583 52.2119C46.592 53.2843 46.22 54.3171 45.6614 55.2569C45.1188 56.1476 44.4055 56.9296 43.5599 57.5608C42.6737 58.2117 41.675 58.7045 40.6105 59.0163C39.4171 59.3752 38.173 59.5499 36.9236 59.5343H33.0616L32.186 64.8921H27.4023L30.6929 44.7466H39.3661ZM37.3476 55.3105C38.3963 55.3572 39.4338 55.0856 40.3155 54.5336C40.6904 54.272 41.0063 53.9391 41.244 53.5553C41.4817 53.1715 41.6362 52.7448 41.6981 52.3012C41.7933 51.9045 41.7832 51.4908 41.6688 51.0989C41.5544 50.7069 41.3393 50.3495 41.0437 50.0598C40.2625 49.4589 39.2716 49.1741 38.2785 49.2651H34.7392L33.7437 55.3105H37.3476Z" fill="#1D4AA3"/>
<path d="M62.4824 44.7465C63.6725 44.7264 64.8572 44.9046 65.9849 45.2734C66.9163 45.5766 67.7577 46.0945 68.4367 46.7825C69.0746 47.4401 69.5338 48.241 69.7731 49.1132C70.0348 50.127 70.0725 51.1829 69.8838 52.2118C69.7185 53.2857 69.3431 54.3193 68.7777 55.2568C68.2384 56.147 67.5282 56.9291 66.6854 57.5607C65.7958 58.2115 64.794 58.7043 63.7267 59.0162C62.5334 59.375 61.2893 59.5498 60.0399 59.5341H56.224L55.3576 64.892H50.5647L53.8644 44.7197L62.4824 44.7465ZM60.4639 55.3104C61.5127 55.3583 62.5506 55.0866 63.4318 54.5335C63.8067 54.2719 64.1226 53.939 64.3603 53.5552C64.598 53.1714 64.7525 52.7446 64.8143 52.3011C64.9096 51.9043 64.8995 51.4907 64.7851 51.0987C64.6706 50.7068 64.4556 50.3493 64.1599 50.0597C63.3801 49.4562 62.3881 49.1711 61.3948 49.265H57.8554L56.86 55.3104H60.4639Z" fill="#1D4AA3"/>
<path d="M86.6404 54.7389L92.4564 64.9188H86.6404L83.0734 58.7752L77.5431 64.9188H71.7363L80.8336 54.7389L75.1374 44.7466H80.9719L84.3914 50.7027L89.8019 44.7466H95.6455L86.6404 54.7389Z" fill="#1EBDFE"/>
<path d="M109.683 44.7466C110.87 44.7265 112.052 44.9048 113.176 45.2735C114.11 45.5767 114.955 46.0945 115.637 46.7826C116.262 47.4453 116.711 48.2451 116.946 49.1133C117.212 50.1356 117.25 51.2011 117.057 52.2387C116.882 53.3104 116.507 54.3422 115.951 55.2837C115.408 56.1744 114.695 56.9564 113.849 57.5876C112.963 58.2384 111.964 58.7313 110.9 59.0431C109.707 59.402 108.462 59.5767 107.213 59.5611H103.333L102.457 64.9189H97.7009L101.001 44.7466H109.683ZM107.665 55.3105C108.713 55.3584 109.751 55.0867 110.633 54.5336C111.007 54.272 111.323 53.9391 111.561 53.5553C111.799 53.1715 111.953 52.7448 112.015 52.3012C112.11 51.9045 112.1 51.4908 111.986 51.0989C111.871 50.7069 111.656 50.3495 111.361 50.0598C110.58 49.4581 109.589 49.1732 108.596 49.2651H105.075L104.079 55.3105H107.665Z" fill="#1D4AA3"/>
<path d="M128.394 44.7466H134.265L138.616 64.9188H133.74L132.966 61.3469H124.265L122.338 64.9188H117.453L128.394 44.7466ZM132.219 57.6947L130.542 49.774L126.219 57.6947H132.219Z" fill="#1D4AA3"/>
<path d="M147.971 44.7466L151.16 53.3906L157.161 44.7466H162.783L152.727 58.5073L151.667 64.9188H146.883L147.943 58.5073L142.349 44.7466H147.971Z" fill="#1D4AA3"/>
<path d="M118.034 0.508789H99.3231L98.1433 4.32178C97.941 4.97862 97.8997 5.67215 98.0229 6.34715C98.146 7.02216 98.4302 7.65997 98.8527 8.2098C99.2752 8.75962 99.8244 9.20627 100.457 9.51415C101.089 9.82204 101.786 9.98267 102.494 9.98323H109.416L109.545 7.48291C109.551 7.39056 109.584 7.3018 109.64 7.22684C109.696 7.15189 109.773 7.09381 109.862 7.05927C109.95 7.02474 110.047 7.01517 110.141 7.03167C110.235 7.04816 110.322 7.09005 110.393 7.15251L115.923 12.0906C115.982 12.1415 116.027 12.205 116.055 12.2761C116.084 12.3472 116.094 12.4238 116.086 12.4996C116.078 12.5754 116.052 12.6483 116.009 12.7122C115.966 12.7762 115.908 12.8294 115.84 12.8675L107.453 17.7074C107.358 17.7634 107.247 17.7874 107.137 17.7755C107.027 17.7636 106.925 17.7166 106.845 17.6418C106.766 17.567 106.715 17.4688 106.7 17.3627C106.684 17.2565 106.706 17.1485 106.761 17.0556L107.84 15.0821H98.1894C97.2141 15.0828 96.265 15.3881 95.483 15.9527C94.701 16.5173 94.1277 17.3112 93.8482 18.2164L92.1061 23.8332L88.0782 36.8438H94.3367C95.3985 36.8431 96.4319 36.5109 97.2836 35.8964C98.1353 35.282 98.76 34.4181 99.065 33.4327L100.982 27.2444C101.286 26.2583 101.91 25.3935 102.762 24.7789C103.614 24.1642 104.648 23.8326 105.711 23.8332H110.817C117.462 23.8332 124.467 18.6093 126.486 12.171C128.458 5.73268 124.679 0.508789 118.034 0.508789Z" fill="url(#paint1_linear_657_718)"/>
<path d="M126.274 12.68C126.338 12.5103 126.394 12.3407 126.449 12.171C128.458 5.73268 124.679 0.508789 118.034 0.508789H110.872C111.057 3.04483 113.176 8.30444 126.274 12.68Z" fill="url(#paint2_linear_657_718)"/>
<path d="M126.274 12.6797C126.219 12.6797 110.209 15.9926 107.518 23.8329H110.799C117.288 23.8329 124.099 18.8858 126.274 12.6797Z" fill="url(#paint3_linear_657_718)"/>
<path d="M93.8482 18.2163L92.1061 23.8331L88.0782 36.8437H94.3367C95.3985 36.8429 96.4319 36.5107 97.2836 35.8963C98.1353 35.2819 98.76 34.418 99.065 33.4326L100.982 27.2443C100.982 27.2443 93.1845 25.3869 93.8482 18.2163Z" fill="url(#paint4_linear_657_718)"/>
<path style="mix-blend-mode:multiply" d="M80.5018 4.00019L83.6172 3.08936L78.4187 14.064L62.6759 18.6271L73.0267 9.96525L78.133 5.82185L80.5018 4.00019Z" fill="url(#paint5_linear_657_718)"/>
<path d="M81.1098 12.2695C76.916 12.3231 71.0908 12.4303 69.3119 12.466C69.1479 12.4621 68.9864 12.506 68.8484 12.592C68.7104 12.6779 68.6021 12.802 68.5377 12.9482C68.2704 13.5376 68.7312 14.0912 69.4594 14.0644C71.1553 14.0108 76.363 13.9483 80.5199 13.8858L81.1098 12.2695Z" fill="url(#paint6_linear_657_718)"/>
<path d="M85.5901 2.33057H85.4979C82.4194 2.402 71.1008 2.52702 67.9854 2.65204C67.8368 2.6429 67.6886 2.67498 67.5581 2.74452C67.4277 2.81406 67.3204 2.91819 67.2488 3.0447C67.1772 3.1712 67.1443 3.31486 67.154 3.45882C67.1637 3.60278 67.2155 3.74109 67.3034 3.85755C67.5074 3.7455 67.7439 3.70158 67.9762 3.73253C71.0732 3.61645 80.0783 3.50036 84.991 3.3932C85.2122 3.03601 85.3966 2.67883 85.5901 2.33057Z" fill="url(#paint7_linear_657_718)"/>
<path d="M61.8554 7.41176C61.542 6.80454 61.8554 6.23303 62.4821 6.20624C66.0491 6.06337 77.8655 5.94728 81.4325 5.82227H81.4878L81.0177 6.91169C77.6719 7.03671 66.0768 7.16172 62.7218 7.27781C62.4275 7.2775 62.135 7.32272 61.8554 7.41176Z" fill="url(#paint8_linear_657_718)"/>
<path d="M81.7373 10.662C81.5069 10.3048 81.2672 9.92974 81.0368 9.55469C78.8616 9.63506 68.4555 9.71542 66.2894 9.78686C66.0774 9.78686 65.847 9.87616 65.6903 9.65292C65.5361 9.77083 65.4361 9.94288 65.4119 10.1318C65.3878 10.3207 65.4414 10.5112 65.5613 10.662C65.6637 10.8005 65.8049 10.9078 65.9683 10.9711C66.1316 11.0343 66.3102 11.051 66.483 11.0192C68.732 10.9388 79.2303 10.8495 81.4792 10.7691C81.5282 10.7752 81.578 10.7685 81.6234 10.7496C81.6687 10.7308 81.7081 10.7005 81.7373 10.662Z" fill="url(#paint9_linear_657_718)"/>
<path d="M84.7417 3.93778L85.0275 3.39307C80.1148 3.50022 71.1096 3.61631 68.0127 3.7324C67.7803 3.70144 67.5439 3.74537 67.3398 3.85741C67.5426 4.25925 67.9205 4.25925 68.2616 4.24139C70.9069 4.14316 81.7923 4.0628 84.4284 3.94671L84.7417 3.93778Z" fill="url(#paint10_linear_657_718)"/>
<path d="M61.8556 7.41169C62.1352 7.32265 62.4277 7.27743 62.722 7.27774C66.077 7.14379 77.6721 7.03664 81.018 6.91162C80.9198 7.36167 80.8581 7.81849 80.8336 8.27787C80.2253 8.27787 71.3584 8.32252 70.7501 8.34038C70.5473 7.69744 70.3077 7.51884 69.6072 7.54563L62.8142 7.78673C62.4363 7.80459 62.0584 7.80459 61.8556 7.41169Z" fill="url(#paint11_linear_657_718)"/>
<path d="M70.7501 8.34034C71.3584 8.34034 80.2253 8.29569 80.8336 8.27783L81.0456 9.53692C78.8703 9.61729 68.4642 9.69766 66.2982 9.7691C66.0862 9.7691 65.8558 9.85839 65.6991 9.63515C65.7851 9.54871 65.8906 9.48276 66.0074 9.44248C66.1241 9.40219 66.2489 9.38867 66.3719 9.40298L69.6256 9.28689C70.363 9.25117 70.621 9.03686 70.7501 8.34034Z" fill="url(#paint12_linear_657_718)"/>
<path d="M64.3258 2.78589C64.5249 2.73702 64.7357 2.75987 64.9188 2.85021C65.1018 2.94054 65.2449 3.09221 65.3212 3.27702C65.3933 3.42829 65.4107 3.59868 65.3706 3.7607C65.3304 3.92272 65.2351 4.0669 65.1 4.16999C64.8784 4.30718 64.625 4.3888 64.3628 4.40751C64.1005 4.42621 63.8376 4.38142 63.5976 4.27715C63.4341 4.19675 63.305 4.06335 63.2325 3.90019C63.1601 3.73703 63.1491 3.55443 63.2013 3.38418C63.3211 3.00913 63.6621 2.80375 64.3258 2.78589Z" fill="url(#paint13_linear_657_718)"/>
<path d="M63.376 11.0906C63.1905 11.136 62.9949 11.1242 62.8165 11.057C62.6381 10.9898 62.4858 10.8705 62.3806 10.7156C62.2769 10.562 62.2374 10.3761 62.2699 10.1954C62.3024 10.0147 62.4046 9.8527 62.5557 9.74222C62.7904 9.59996 63.0597 9.52011 63.3364 9.5107C63.613 9.5013 63.8874 9.56267 64.1318 9.68864C64.2822 9.79888 64.387 9.95743 64.4276 10.1358C64.4681 10.3142 64.4417 10.5008 64.353 10.662C64.1687 11.046 63.7816 11.0995 63.376 11.0906Z" fill="url(#paint14_linear_657_718)"/>
<path d="M66.8878 12.6533C67.0903 12.641 67.2897 12.7061 67.4431 12.8347C67.5965 12.9633 67.6917 13.1451 67.7082 13.3409C67.7144 13.4425 67.6997 13.5443 67.6649 13.6404C67.6302 13.7364 67.5761 13.8248 67.5057 13.9004C67.4354 13.976 67.3503 14.0374 67.2553 14.0808C67.1603 14.1243 67.0573 14.149 66.9524 14.1535C66.7489 14.154 66.5529 14.0795 66.404 13.9452C66.2551 13.8109 66.1645 13.6268 66.1505 13.4302C66.1476 13.234 66.2225 13.0441 66.3596 12.8996C66.4967 12.7551 66.6857 12.667 66.8878 12.6533Z" fill="url(#paint15_linear_657_718)"/>
<path d="M78.7229 37.1742C77.8597 37.1782 77.0074 36.9864 76.2345 36.6141C75.4615 36.2418 74.7892 35.6994 74.2714 35.0302C73.7536 34.3611 73.4047 33.5838 73.2526 32.7605C73.1004 31.9373 73.1494 31.091 73.3954 30.2894L78.345 13.7605L81.0087 4.72357C81.3013 3.71246 81.894 2.80692 82.7134 2.11949C83.5327 1.43206 84.5425 0.993045 85.6173 0.857003C86.536 0.72818 87.4735 0.825509 88.3432 1.14002C89.213 1.45453 89.987 1.97609 90.594 2.65664C91.2009 3.33719 91.6213 4.15481 91.8163 5.03415C92.0113 5.91348 91.9747 6.82623 91.7098 7.68824L86.7325 24.2261L84.0688 33.2541C83.7778 34.2668 83.1857 35.1743 82.3662 35.8634C81.5468 36.5525 80.5361 36.9929 79.4602 37.1296C79.2154 37.1566 78.9693 37.1715 78.7229 37.1742Z" fill="url(#paint16_linear_657_718)"/>
<defs>
<linearGradient id="paint0_linear_657_718" x1="50.0761" y1="18.9131" x2="91.8849" y2="18.9131" gradientUnits="userSpaceOnUse">
<stop offset="0.41" stop-color="#0FE1E6"/>
<stop offset="0.65" stop-color="#0CCCF0"/>
<stop offset="0.9" stop-color="#07B0FD"/>
</linearGradient>
<linearGradient id="paint1_linear_657_718" x1="114.467" y1="0.982064" x2="103.451" y2="39.3646" gradientUnits="userSpaceOnUse">
<stop offset="0.41" stop-color="#0FE1E6"/>
<stop offset="0.65" stop-color="#0CCCF0"/>
<stop offset="0.9" stop-color="#07B0FD"/>
</linearGradient>
<linearGradient id="paint2_linear_657_718" x1="122.366" y1="0.392703" x2="112.933" y2="16.8443" gradientUnits="userSpaceOnUse">
<stop offset="0.41" stop-color="#0FE1E6"/>
<stop offset="0.65" stop-color="#0CCCF0"/>
<stop offset="0.9" stop-color="#07B0FD"/>
</linearGradient>
<linearGradient id="paint3_linear_657_718" x1="126.468" y1="2.74983" x2="117.035" y2="19.2014" gradientUnits="userSpaceOnUse">
<stop offset="0.41" stop-color="#0FE1E6"/>
<stop offset="0.65" stop-color="#0CCCF0"/>
<stop offset="0.9" stop-color="#07B0FD"/>
</linearGradient>
<linearGradient id="paint4_linear_657_718" x1="91.0554" y1="38.6297" x2="97.6627" y2="21.9807" gradientUnits="userSpaceOnUse">
<stop offset="0.41" stop-color="#0FE1E6"/>
<stop offset="0.65" stop-color="#0CCCF0"/>
<stop offset="0.9" stop-color="#07B0FD"/>
</linearGradient>
<linearGradient id="paint5_linear_657_718" x1="51.4679" y1="8.2686" x2="83.4962" y2="12.7416" gradientUnits="userSpaceOnUse">
<stop offset="0.42" stop-color="#0FE1E6" stop-opacity="0"/>
<stop offset="0.44" stop-color="#0FDEE7" stop-opacity="0.05"/>
<stop offset="0.52" stop-color="#0CD1EE" stop-opacity="0.34"/>
<stop offset="0.6" stop-color="#0AC5F3" stop-opacity="0.57"/>
<stop offset="0.68" stop-color="#09BCF7" stop-opacity="0.76"/>
<stop offset="0.74" stop-color="#08B5FA" stop-opacity="0.89"/>
<stop offset="0.79" stop-color="#07B1FC" stop-opacity="0.97"/>
<stop offset="0.83" stop-color="#07B0FD"/>
</linearGradient>
<linearGradient id="paint6_linear_657_718" x1="64.86" y1="13.0018" x2="75.8651" y2="13.192" gradientUnits="userSpaceOnUse">
<stop offset="0.41" stop-color="#0FE1E6"/>
<stop offset="0.65" stop-color="#0CCCF0"/>
<stop offset="0.9" stop-color="#07B0FD"/>
</linearGradient>
<linearGradient id="paint7_linear_657_718" x1="68.7136" y1="2.83063" x2="82.9068" y2="3.34433" gradientUnits="userSpaceOnUse">
<stop offset="0.41" stop-color="#0FE1E6"/>
<stop offset="0.65" stop-color="#0CCCF0"/>
<stop offset="0.9" stop-color="#07B0FD"/>
</linearGradient>
<linearGradient id="paint8_linear_657_718" x1="61.7265" y1="6.93698" x2="81.4996" y2="6.16363" gradientUnits="userSpaceOnUse">
<stop offset="0.41" stop-color="#0FE1E6"/>
<stop offset="0.65" stop-color="#0CCCF0"/>
<stop offset="0.9" stop-color="#07B0FD"/>
</linearGradient>
<linearGradient id="paint9_linear_657_718" x1="65.4269" y1="10.5005" x2="81.7095" y2="9.86368" gradientUnits="userSpaceOnUse">
<stop offset="0.41" stop-color="#0FE1E6"/>
<stop offset="0.65" stop-color="#0CCCF0"/>
<stop offset="0.9" stop-color="#07B0FD"/>
</linearGradient>
<linearGradient id="paint10_linear_657_718" x1="68.6948" y1="3.5538" x2="82.888" y2="4.0675" gradientUnits="userSpaceOnUse">
<stop offset="0.41" stop-color="#0FE1E6"/>
<stop offset="0.65" stop-color="#0CCCF0"/>
<stop offset="0.9" stop-color="#07B0FD"/>
</linearGradient>
<linearGradient id="paint11_linear_657_718" x1="61.8755" y1="8.14676" x2="81.0315" y2="7.39754" gradientUnits="userSpaceOnUse">
<stop offset="0.41" stop-color="#0FE1E6"/>
<stop offset="0.65" stop-color="#0CCCF0"/>
<stop offset="0.9" stop-color="#07B0FD"/>
</linearGradient>
<linearGradient id="paint12_linear_657_718" x1="65.685" y1="9.32942" x2="81.0098" y2="8.73005" gradientUnits="userSpaceOnUse">
<stop offset="0.41" stop-color="#0FE1E6"/>
<stop offset="0.65" stop-color="#0CCCF0"/>
<stop offset="0.9" stop-color="#07B0FD"/>
</linearGradient>
<linearGradient id="paint13_linear_657_718" x1="63.221" y1="3.63803" x2="65.3945" y2="3.55302" gradientUnits="userSpaceOnUse">
<stop offset="0.41" stop-color="#0FE1E6"/>
<stop offset="0.65" stop-color="#0CCCF0"/>
<stop offset="0.9" stop-color="#07B0FD"/>
</linearGradient>
<linearGradient id="paint14_linear_657_718" x1="62.256" y1="10.3399" x2="64.4387" y2="10.2545" gradientUnits="userSpaceOnUse">
<stop offset="0.41" stop-color="#0FE1E6"/>
<stop offset="0.65" stop-color="#0CCCF0"/>
<stop offset="0.9" stop-color="#07B0FD"/>
</linearGradient>
<linearGradient id="paint15_linear_657_718" x1="64.8509" y1="13.3677" x2="75.8651" y2="13.558" gradientUnits="userSpaceOnUse">
<stop offset="0.41" stop-color="#0FE1E6"/>
<stop offset="0.65" stop-color="#0CCCF0"/>
<stop offset="0.9" stop-color="#07B0FD"/>
</linearGradient>
<linearGradient id="paint16_linear_657_718" x1="73.3954" y1="18.8415" x2="91.6818" y2="19.1554" gradientUnits="userSpaceOnUse">
<stop offset="0.41" stop-color="#0FE1E6"/>
<stop offset="0.65" stop-color="#0CCCF0"/>
<stop offset="0.9" stop-color="#07B0FD"/>
</linearGradient>
</defs>
</svg>
