<svg width="125" height="61" viewBox="0 0 125 61" fill="none" xmlns="http://www.w3.org/2000/svg">
<path d="M58.3516 0.548828C56.7076 0.726945 55.1532 1.38004 53.8679 2.40421L43.4058 10.6718L3.45569 44.8107C-0.340545 47.9723 -0.81881 53.5978 2.36465 57.3531C2.40948 57.3976 2.43938 57.4422 2.48422 57.5015V57.6797H2.63367C3.41085 58.5257 4.35244 59.2085 5.3837 59.6983C8.5821 61.2717 12.4082 60.8115 15.1284 58.5257L66.7213 13.7888L67.0202 13.2396C67.5881 12.1858 67.9319 11.028 68.0365 9.84057C63.4482 8.54922 59.8014 5.06111 58.3516 0.548828Z" fill="url(#paint0_linear_9_479)"/>
<path d="M110.438 0H80.0981L78.1851 6.33797C77.0193 10.212 79.2462 14.2938 83.1321 15.4368C83.8197 15.6446 84.5221 15.7485 85.2395 15.7485H96.4638L96.673 11.5924C96.7029 11.1471 97.0915 10.8057 97.5399 10.8354C97.7192 10.8503 97.8986 10.9245 98.0481 11.0432L107.016 19.2514C107.344 19.5483 107.374 20.0529 107.075 20.3795C107.016 20.4389 106.956 20.4982 106.881 20.5428L93.2803 28.5877C92.9067 28.8252 92.3985 28.7064 92.1744 28.3205C92.0249 28.0682 92.0099 27.7565 92.1594 27.5041L93.9081 24.2238H78.2598C75.0166 24.2238 72.147 26.3464 71.2203 29.4337L68.3956 38.77L61.8643 60.3963H72.0125C75.5546 60.3963 78.6633 58.0956 79.6797 54.7263L82.7884 44.44C83.8047 41.0707 86.9134 38.77 90.4556 38.77H98.7356C109.511 38.77 120.87 30.0868 124.143 19.385C127.342 8.68317 121.214 0 110.438 0Z" fill="url(#paint1_linear_9_479)"/>
<path d="M123.8 20.2311C123.904 19.949 123.994 19.667 124.084 19.385C127.342 8.68318 121.214 0 110.438 0H98.8252C99.1241 4.21542 102.562 12.958 123.8 20.2311Z" fill="url(#paint2_linear_9_479)"/>
<path d="M123.799 20.2305C123.71 20.2305 97.7489 25.7372 93.3848 38.7694H98.7055C109.227 38.7694 120.272 30.5464 123.799 20.2305Z" fill="url(#paint3_linear_9_479)"/>
<path d="M71.2203 29.4336L68.3956 38.7699L61.8643 60.3962H72.0125C75.5546 60.3962 78.6633 58.0955 79.6797 54.7261L82.7884 44.4399C82.7884 44.4399 70.1442 41.3525 71.2203 29.4336Z" fill="url(#paint4_linear_9_479)"/>
<path d="M49.579 5.80305L54.6307 4.28906L46.2013 22.5311L20.6738 30.1159L37.458 15.7182L45.7379 8.83103L49.579 5.80305Z" fill="url(#paint5_linear_9_479)"/>
<path d="M50.5652 19.5488C43.7648 19.6379 34.3191 19.816 31.4345 19.8754C30.8965 19.8605 30.3883 20.1871 30.1791 20.6769C29.7457 21.6565 30.493 22.5768 31.6737 22.5323C34.4237 22.4432 42.8681 22.3393 49.6086 22.2354L50.5652 19.5488Z" fill="url(#paint6_linear_9_479)"/>
<path d="M53.5091 5.72984L29.2819 6.21966C28.5496 6.2345 27.9518 5.65563 27.9368 4.94316C27.9219 4.21585 28.5047 3.62213 29.2221 3.60729L53.4493 3.11747C54.1816 3.10262 54.7795 3.6815 54.7944 4.39397C54.8094 5.12128 54.2265 5.715 53.5091 5.72984Z" fill="url(#paint7_linear_9_479)"/>
<path d="M51.9095 15.3927V15.2442C51.8796 14.5318 51.2668 13.9529 50.5494 13.9826L50.3103 13.9974L50.116 12.9139C50.1608 12.1569 50.2505 11.385 50.4149 10.6429L51.1771 8.83203H51.0875C45.4529 9.03983 27.1443 9.21795 20.8521 9.45544L20.0151 9.47028C19.2828 9.48513 18.7148 10.0937 18.7298 10.821C18.7447 11.5483 19.3426 12.142 20.0749 12.1272L20.7026 12.0975C20.7176 12.0975 20.7176 12.0975 20.7325 12.0975L26.5016 11.8897H26.5913L32.465 11.6819C33.1824 11.6522 33.8101 12.2162 33.825 12.9436L33.84 13.1959C33.8699 13.9083 33.3019 14.5318 32.5696 14.5466C32.5696 14.5466 32.0614 14.5911 31.9419 14.606L30.8957 14.6505L26.3223 14.7989C25.6049 14.8286 25.022 15.4372 25.0519 16.1496V16.2981C25.0818 17.0105 25.6945 17.5894 26.4119 17.5597L31.8373 17.3816C38.3387 17.2777 48.442 17.1738 51.1622 17.0699C51.3266 17.0848 51.491 17.0254 51.5807 16.8918C51.5059 16.7879 51.4312 16.6395 51.3415 16.5059C51.6853 16.2387 51.9244 15.8528 51.9095 15.3927Z" fill="url(#paint8_linear_9_479)"/>
<path d="M27.5042 20.1863C28.192 20.1418 28.7751 20.6467 28.835 21.3298C28.8798 22.0277 28.3415 22.6366 27.6238 22.6811H27.6088C26.921 22.6811 26.3528 22.1614 26.3079 21.4783C26.293 20.7952 26.8163 20.2309 27.5042 20.1863Z" fill="url(#paint9_linear_9_479)"/>
<path d="M46.4567 60.4581C41.5096 60.4877 37.4742 56.5098 37.4443 51.5968C37.4443 50.721 37.5639 49.8601 37.818 49.0141L45.8439 21.5396L50.1632 6.51847C51.1347 3.08973 54.079 0.551573 57.6361 0.0914385C62.5383 -0.606184 67.0819 2.76318 67.7993 7.6317C67.9786 8.9082 67.8889 10.2144 67.5153 11.4464L59.4446 38.9357L55.1252 53.942C54.1537 57.3855 51.2244 59.9237 47.6523 60.3838C47.2488 60.4284 46.8602 60.4581 46.4567 60.4581Z" fill="url(#paint10_linear_9_479)"/>
<path d="M25.441 6.19011H24.6489C23.9315 6.19011 23.3486 5.61123 23.3486 4.89877C23.3486 4.1863 23.9315 3.60742 24.6489 3.60742H25.441C26.1584 3.60742 26.7413 4.1863 26.7413 4.89877C26.7413 5.59639 26.1584 6.19011 25.441 6.19011Z" fill="url(#paint11_linear_9_479)"/>
<path d="M22.4821 17.5007H21.6899C20.9725 17.5007 20.3896 16.9218 20.3896 16.2093C20.3896 15.4968 20.9725 14.918 21.6899 14.918H22.4821C23.1995 14.918 23.7823 15.4968 23.7823 16.2093C23.7823 16.9069 23.1995 17.5007 22.4821 17.5007Z" fill="url(#paint12_linear_9_479)"/>
<defs>
<linearGradient id="paint0_linear_9_479" x1="0.257736" y1="30.5837" x2="68.0365" y2="30.5837" gradientUnits="userSpaceOnUse">
<stop offset="0.41" stop-color="#0FE1E6"/>
<stop offset="0.65" stop-color="#0CCCF0"/>
<stop offset="0.9" stop-color="#07B0FD"/>
</linearGradient>
<linearGradient id="paint1_linear_9_479" x1="104.667" y1="0.790391" x2="85.9695" y2="64.3443" gradientUnits="userSpaceOnUse">
<stop offset="0.41" stop-color="#0FE1E6"/>
<stop offset="0.65" stop-color="#0CCCF0"/>
<stop offset="0.9" stop-color="#07B0FD"/>
</linearGradient>
<linearGradient id="paint2_linear_9_479" x1="117.457" y1="-0.196077" x2="101.584" y2="26.8104" gradientUnits="userSpaceOnUse">
<stop offset="0.41" stop-color="#0FE1E6"/>
<stop offset="0.65" stop-color="#0CCCF0"/>
<stop offset="0.9" stop-color="#07B0FD"/>
</linearGradient>
<linearGradient id="paint3_linear_9_479" x1="124.089" y1="3.71047" x2="108.215" y2="30.7169" gradientUnits="userSpaceOnUse">
<stop offset="0.41" stop-color="#0FE1E6"/>
<stop offset="0.65" stop-color="#0CCCF0"/>
<stop offset="0.9" stop-color="#07B0FD"/>
</linearGradient>
<linearGradient id="paint4_linear_9_479" x1="66.6913" y1="63.3646" x2="77.8722" y2="35.8806" gradientUnits="userSpaceOnUse">
<stop offset="0.41" stop-color="#0FE1E6"/>
<stop offset="0.65" stop-color="#0CCCF0"/>
<stop offset="0.9" stop-color="#07B0FD"/>
</linearGradient>
<linearGradient id="paint5_linear_9_479" x1="-1.00835" y1="12.9838" x2="58.8472" y2="19.6061" gradientUnits="userSpaceOnUse">
<stop offset="0.42" stop-color="#0FE1E6" stop-opacity="0"/>
<stop offset="0.44" stop-color="#0FDEE7" stop-opacity="0.05"/>
<stop offset="0.52" stop-color="#0CD1EE" stop-opacity="0.34"/>
<stop offset="0.6" stop-color="#0AC5F3" stop-opacity="0.57"/>
<stop offset="0.68" stop-color="#09BCF7" stop-opacity="0.76"/>
<stop offset="0.74" stop-color="#08B5FA" stop-opacity="0.89"/>
<stop offset="0.79" stop-color="#07B1FC" stop-opacity="0.97"/>
<stop offset="0.83" stop-color="#07B0FD"/>
</linearGradient>
<linearGradient id="paint6_linear_9_479" x1="24.2159" y1="20.7609" x2="42.0611" y2="21.0619" gradientUnits="userSpaceOnUse">
<stop offset="0.41" stop-color="#0FE1E6"/>
<stop offset="0.65" stop-color="#0CCCF0"/>
<stop offset="0.9" stop-color="#07B0FD"/>
</linearGradient>
<linearGradient id="paint7_linear_9_479" x1="30.1865" y1="4.49285" x2="50.9292" y2="4.80718" gradientUnits="userSpaceOnUse">
<stop offset="0.41" stop-color="#0FE1E6"/>
<stop offset="0.65" stop-color="#0CCCF0"/>
<stop offset="0.9" stop-color="#07B0FD"/>
</linearGradient>
<linearGradient id="paint8_linear_9_479" x1="18.729" y1="13.1886" x2="51.9059" y2="13.1886" gradientUnits="userSpaceOnUse">
<stop offset="0.41" stop-color="#0FE1E6"/>
<stop offset="0.65" stop-color="#0CCCF0"/>
<stop offset="0.9" stop-color="#07B0FD"/>
</linearGradient>
<linearGradient id="paint9_linear_9_479" x1="24.1996" y1="21.3761" x2="42.0681" y2="21.6772" gradientUnits="userSpaceOnUse">
<stop offset="0.41" stop-color="#0FE1E6"/>
<stop offset="0.65" stop-color="#0CCCF0"/>
<stop offset="0.9" stop-color="#07B0FD"/>
</linearGradient>
<linearGradient id="paint10_linear_9_479" x1="37.806" y1="29.9828" x2="67.4584" y2="30.4794" gradientUnits="userSpaceOnUse">
<stop offset="0.41" stop-color="#0FE1E6"/>
<stop offset="0.65" stop-color="#0CCCF0"/>
<stop offset="0.9" stop-color="#07B0FD"/>
</linearGradient>
<linearGradient id="paint11_linear_9_479" x1="23.3392" y1="4.9519" x2="26.7308" y2="4.82248" gradientUnits="userSpaceOnUse">
<stop offset="0.41" stop-color="#0FE1E6"/>
<stop offset="0.65" stop-color="#0CCCF0"/>
<stop offset="0.9" stop-color="#07B0FD"/>
</linearGradient>
<linearGradient id="paint12_linear_9_479" x1="20.3831" y1="16.2645" x2="23.7748" y2="16.1351" gradientUnits="userSpaceOnUse">
<stop offset="0.41" stop-color="#0FE1E6"/>
<stop offset="0.65" stop-color="#0CCCF0"/>
<stop offset="0.9" stop-color="#07B0FD"/>
</linearGradient>
</defs>
</svg>
