<svg width="71" height="70" viewBox="0 0 71 70" fill="none" xmlns="http://www.w3.org/2000/svg">
<g filter="url(#filter0_b_247_2055)">
<circle cx="35.4833" cy="35.1723" r="34.7292" fill="white" fill-opacity="0.3"/>
</g>
<path d="M12.1095 47.2322L16.5084 44.8298C22.4232 54.6459 35.1156 58.043 45.1173 52.5793C46.5465 51.7987 47.8492 50.8826 48.9923 49.8578C54.6056 46.4664 58.0904 40.3174 58.0904 33.7805C58.0904 23.425 49.6656 15.0002 39.3102 15.0002C29.1641 15.0002 20.893 23.1023 20.5707 33.1771L16.0709 31.8528C15.88 31.7976 15.6749 31.8181 15.4996 31.9143C15.3248 32.0095 15.1954 32.1702 15.1393 32.3611L11.0304 46.3625C10.9449 46.654 11.0435 46.9675 11.2794 47.158C11.5162 47.3484 11.8453 47.3777 12.1095 47.2322ZM39.3102 16.5002C48.8385 16.5002 56.5904 24.2522 56.5904 33.7805C56.5904 39.7953 53.383 45.4547 48.2154 48.5759C39.5617 50.9933 30.49 47.3791 25.8531 39.7346L30.2174 37.3508C30.4835 37.2053 30.6358 36.9143 30.6036 36.6125C30.5714 36.3113 30.3605 36.0588 30.0699 35.9729L22.0487 33.6121C22.1403 24.1619 29.844 16.5002 39.3102 16.5002ZM16.3673 33.5041L27.9112 36.9016L24.4581 38.7873C24.2823 38.883 24.1525 39.0452 24.0968 39.2375C24.0416 39.4294 24.065 39.636 24.1622 39.8108C28.4703 47.5437 36.8819 51.7102 45.422 50.6648C45.0895 50.8723 44.7482 51.072 44.3985 51.2629C34.837 56.4841 22.7467 52.9831 17.4459 43.4563C17.3087 43.2102 17.0533 43.071 16.7901 43.071C16.6686 43.071 16.545 43.1003 16.4313 43.1628L12.9796 45.0481L16.3673 33.5041Z" fill="white"/>
<path d="M43.5655 28.5009V30.0218H45.5867V31.8628H43.4454C43.232 33.1302 42.705 34.0508 41.8645 34.6244C41.0374 35.1981 39.7833 35.4849 38.1024 35.4849V36.5455C38.1024 37.1726 38.2291 37.6662 38.4826 38.0264C38.7494 38.3866 39.1963 38.5667 39.8234 38.5667C40.4237 38.5667 40.8573 38.3999 41.1241 38.0664C41.3909 37.7195 41.5243 37.2193 41.5243 36.5655H44.1258C44.0992 37.913 43.7189 38.9469 42.9852 39.6673C42.2514 40.3744 41.2042 40.7279 39.8434 40.7279C38.4292 40.7279 37.3486 40.3477 36.6015 39.5873C35.8544 38.8269 35.4809 37.7195 35.4809 36.2654V33.6038C36.9083 33.6038 37.9623 33.5705 38.6427 33.5038C39.3231 33.4237 39.83 33.2636 40.1636 33.0235C40.4971 32.7834 40.7172 32.3965 40.8239 31.8628H34.8405V30.0218H40.924V28.5009H34.8405V26.5398H45.5867V28.5009H43.5655Z" fill="white"/>
<defs>
<filter id="filter0_b_247_2055" x="-3.87644" y="-4.18745" width="78.7195" height="78.7196" filterUnits="userSpaceOnUse" color-interpolation-filters="sRGB">
<feFlood flood-opacity="0" result="BackgroundImageFix"/>
<feGaussianBlur in="BackgroundImageFix" stdDeviation="2.31528"/>
<feComposite in2="SourceAlpha" operator="in" result="effect1_backgroundBlur_247_2055"/>
<feBlend mode="normal" in="SourceGraphic" in2="effect1_backgroundBlur_247_2055" result="shape"/>
</filter>
</defs>
</svg>
