<svg width="20" height="21" viewBox="0 0 20 21" fill="none" xmlns="http://www.w3.org/2000/svg">
<path d="M16.5797 17.5432C16.9597 17.9231 17.5461 17.3367 17.1661 16.965L14.0688 13.8594C15.1556 12.6574 15.7562 11.094 15.7538 9.47356C15.7538 5.8476 12.8051 2.89893 9.17912 2.89893C5.55316 2.89893 2.60449 5.8476 2.60449 9.47356C2.60449 13.0995 5.55316 16.0482 9.17912 16.0482C10.8145 16.0482 12.326 15.4452 13.4824 14.4458L16.5797 17.5432ZM3.42962 9.47356C3.42962 6.30188 6.01488 3.72488 9.1783 3.72488C12.35 3.72488 14.927 6.30188 14.927 9.47356C14.927 12.6452 12.35 15.2222 9.1783 15.2222C6.01488 15.2222 3.42962 12.6452 3.42962 9.47356Z" fill="#646E88"/>
</svg>
