<svg width="19" height="19" viewBox="0 0 19 19" fill="none" xmlns="http://www.w3.org/2000/svg">
<path d="M17.7457 0.328054C17.3552 -0.0624762 16.722 -0.0624762 16.3315 0.328054L9.0371 7.62244L1.74275 0.328054C1.35223 -0.0624762 0.719062 -0.0624762 0.328542 0.328054C-0.061988 0.718574 -0.061988 1.35174 0.328542 1.74226L7.6229 9.03664L0.328562 16.3309C-0.0619679 16.7215 -0.0619679 17.3546 0.328562 17.7452C0.719082 18.1357 1.35225 18.1357 1.74277 17.7452L9.0371 10.4508L16.3315 17.7452C16.722 18.1357 17.3552 18.1357 17.7457 17.7452C18.1362 17.3546 18.1362 16.7215 17.7457 16.331L10.4513 9.03664L17.7457 1.74226C18.1362 1.35174 18.1362 0.718574 17.7457 0.328054Z" fill="#131123"/>
</svg>
