<svg width="25" height="25" viewBox="0 0 25 25" fill="none" xmlns="http://www.w3.org/2000/svg">
<path d="M23.661 0.437893C23.1404 -0.0828134 22.2961 -0.0828134 21.7754 0.437893L12.0496 10.1637L2.32375 0.437893C1.80306 -0.0828134 0.958831 -0.0828134 0.438137 0.437893C-0.0825692 0.958587 -0.0825692 1.80281 0.438137 2.32351L10.164 12.0493L0.438164 21.7751C-0.0825425 22.2959 -0.0825425 23.14 0.438164 23.6608C0.958857 24.1815 1.80308 24.1815 2.32378 23.6608L12.0496 13.9349L21.7754 23.6608C22.2961 24.1815 23.1404 24.1815 23.661 23.6608C24.1817 23.14 24.1817 22.2959 23.661 21.7752L13.9352 12.0493L23.661 2.32351C24.1817 1.80281 24.1817 0.958587 23.661 0.437893Z" fill="#969696"/>
</svg>
