<svg width="25" height="25" viewBox="0 0 25 25" fill="none" xmlns="http://www.w3.org/2000/svg">
<g clip-path="url(#clip0_970_980)">
<path fill-rule="evenodd" clip-rule="evenodd" d="M16.6361 2H21.9998C22.5521 2 22.9998 2.44771 22.9998 3V8.36364C22.9998 8.91592 22.5521 9.36363 21.9998 9.36363H16.6361C16.0839 9.36363 15.6361 8.91592 15.6361 8.36363V3C15.6361 2.44772 16.0839 2 16.6361 2ZM13.6361 3C13.6361 1.34314 14.9793 0 16.6361 0H21.9998C23.6566 0 24.9998 1.34315 24.9998 3V8.36364C24.9998 10.0205 23.6566 11.3636 21.9998 11.3636H16.6361C14.9793 11.3636 13.6361 10.0205 13.6361 8.36363V3ZM3 15.6363H8.36364C8.91592 15.6363 9.36363 16.084 9.36363 16.6363V21.9999C9.36363 22.5522 8.91592 22.9999 8.36363 22.9999H3C2.44772 22.9999 2 22.5522 2 21.9999V16.6363C2 16.084 2.44771 15.6363 3 15.6363ZM0 16.6363C0 14.9794 1.34315 13.6363 3 13.6363H8.36364C10.0205 13.6363 11.3636 14.9794 11.3636 16.6363V21.9999C11.3636 23.6568 10.0205 24.9999 8.36363 24.9999H3C1.34314 24.9999 0 23.6568 0 21.9999V16.6363ZM5.68182 9.36363C7.71523 9.36363 9.36363 7.71523 9.36363 5.68182C9.36363 3.64841 7.71523 2 5.68182 2C3.64841 2 2 3.64841 2 5.68182C2 7.71523 3.64841 9.36363 5.68182 9.36363ZM5.68182 11.3636C8.8198 11.3636 11.3636 8.8198 11.3636 5.68182C11.3636 2.54384 8.8198 0 5.68182 0C2.54384 0 0 2.54384 0 5.68182C0 8.8198 2.54384 11.3636 5.68182 11.3636ZM22.9998 19.3181C22.9998 21.3515 21.3514 22.9999 19.318 22.9999C17.2845 22.9999 15.6361 21.3515 15.6361 19.3181C15.6361 17.2847 17.2845 15.6363 19.318 15.6363C21.3514 15.6363 22.9998 17.2847 22.9998 19.3181ZM24.9998 19.3181C24.9998 22.4561 22.4559 24.9999 19.318 24.9999C16.18 24.9999 13.6361 22.4561 13.6361 19.3181C13.6361 16.1801 16.18 13.6363 19.318 13.6363C22.4559 13.6363 24.9998 16.1801 24.9998 19.3181Z" fill="#1D4AA3"/>
</g>
<defs>
<clipPath id="clip0_970_980">
<rect width="25" height="25" fill="white"/>
</clipPath>
</defs>
</svg>
