<svg width="19" height="19" viewBox="0 0 19 19" fill="none" xmlns="http://www.w3.org/2000/svg">
<path fill-rule="evenodd" clip-rule="evenodd" d="M10.3392 12.7142C10.1166 12.9366 9.81473 13.0615 9.50004 13.0615C9.18535 13.0615 8.88353 12.9366 8.66088 12.7142L4.18163 8.23651C3.95896 8.01374 3.83391 7.71164 3.83398 7.39667C3.83406 7.0817 3.95925 6.77966 4.18202 6.55699C4.40479 6.33433 4.70689 6.20928 5.02186 6.20935C5.33684 6.20942 5.63888 6.33462 5.86154 6.55739L9.50004 10.1959L13.1385 6.55739C13.3624 6.34097 13.6623 6.22113 13.9737 6.22369C14.285 6.22625 14.5829 6.35099 14.8032 6.57106C15.0235 6.79113 15.1485 7.08892 15.1514 7.40027C15.1542 7.71163 15.0347 8.01166 14.8185 8.23572L10.34 12.715L10.3392 12.7142Z" fill="#6F6F6F"/>
</svg>
