<svg width="23" height="20" viewBox="0 0 23 20" fill="none" xmlns="http://www.w3.org/2000/svg">
<path d="M11.3377 6.625L14.3756 9.65333V9.5C14.3756 8.7375 14.0727 8.00623 13.5336 7.46707C12.9944 6.9279 12.2631 6.625 11.5006 6.625H11.3377ZM7.2169 7.39167L8.70232 8.87708C8.6544 9.07833 8.62565 9.27958 8.62565 9.5C8.62565 10.2625 8.92855 10.9938 9.46772 11.5329C10.0069 12.0721 10.7382 12.375 11.5006 12.375C11.7115 12.375 11.9223 12.3462 12.1236 12.2983L13.609 13.7837C12.9669 14.1 12.2577 14.2917 11.5006 14.2917C10.2298 14.2917 9.01104 13.7868 8.11243 12.8882C7.21382 11.9896 6.70898 10.7708 6.70898 9.5C6.70898 8.74292 6.90065 8.03375 7.2169 7.39167ZM1.91732 2.09208L4.10232 4.27708L4.53357 4.70833C2.95232 5.95417 1.70648 7.58333 0.958984 9.5C2.6169 13.7071 6.70898 16.6875 11.5006 16.6875C12.9861 16.6875 14.4044 16.4 15.6981 15.8825L16.1102 16.285L18.9086 19.0833L20.1256 17.8662L3.1344 0.875M11.5006 4.70833C12.7715 4.70833 13.9903 5.21317 14.8889 6.11178C15.7875 7.01039 16.2923 8.22917 16.2923 9.5C16.2923 10.1133 16.1677 10.7075 15.9473 11.2442L18.7552 14.0521C20.1927 12.8542 21.3427 11.2825 22.0423 9.5C20.3844 5.29292 16.2923 2.3125 11.5006 2.3125C10.159 2.3125 8.87482 2.55208 7.66732 2.98333L9.7469 5.04375C10.2931 4.83292 10.8777 4.70833 11.5006 4.70833Z" fill="#646E88" fill-opacity="0.7"/>
</svg>
