<svg width="23" height="23" viewBox="0 0 23 23" fill="none" xmlns="http://www.w3.org/2000/svg">
<path d="M11.5 14.375C13.0878 14.375 14.375 13.0878 14.375 11.5C14.375 9.91218 13.0878 8.625 11.5 8.625C9.91218 8.625 8.625 9.91218 8.625 11.5C8.625 13.0878 9.91218 14.375 11.5 14.375Z" fill="#646E88"/>
<path d="M22.0504 10.7184C20.8617 8.88016 19.3195 7.31867 17.591 6.20236C15.6786 4.96611 13.5673 4.3125 11.4856 4.3125C9.57554 4.3125 7.69736 4.8583 5.90318 5.93463C4.07351 7.03207 2.4159 8.63533 0.97615 10.6995C0.813616 10.9328 0.724102 11.2091 0.718983 11.4934C0.713863 11.7777 0.79337 12.057 0.9474 12.296C2.13379 14.1526 3.66068 15.7164 5.36232 16.8174C7.27824 18.0586 9.34015 18.6875 11.4856 18.6875C13.5839 18.6875 15.6997 18.0393 17.604 16.8134C19.3317 15.7006 20.8707 14.1333 22.0548 12.2798C22.2036 12.0464 22.2822 11.7752 22.2814 11.4984C22.2806 11.2217 22.2004 10.9509 22.0504 10.7184ZM11.5009 15.8125C10.648 15.8125 9.81419 15.5596 9.105 15.0857C8.39581 14.6118 7.84307 13.9383 7.51667 13.1503C7.19026 12.3623 7.10486 11.4952 7.27126 10.6587C7.43766 9.82213 7.84838 9.05372 8.4515 8.4506C9.05461 7.84749 9.82303 7.43676 10.6596 7.27036C11.4961 7.10397 12.3632 7.18937 13.1512 7.51577C13.9392 7.84217 14.6127 8.39492 15.0866 9.1041C15.5605 9.81329 15.8134 10.6471 15.8134 11.5C15.8121 12.6433 15.3573 13.7395 14.5489 14.548C13.7404 15.3564 12.6442 15.8112 11.5009 15.8125Z" fill="#646E88"/>
</svg>
