<svg width="29" height="26" viewBox="0 0 29 26" fill="none" xmlns="http://www.w3.org/2000/svg">
<path d="M4 13V1M25 25V20.5M4 25V19M25 14.5V1M14.5 5.5V1M14.5 25V11.5" stroke="#131123" stroke-width="1.5" stroke-linecap="round"/>
<path d="M4 19C5.65685 19 7 17.6569 7 16C7 14.3431 5.65685 13 4 13C2.34315 13 1 14.3431 1 16C1 17.6569 2.34315 19 4 19Z" stroke="#131123" stroke-width="1.5" stroke-linecap="round"/>
<path d="M14.5 11.5C16.1569 11.5 17.5 10.1569 17.5 8.5C17.5 6.84315 16.1569 5.5 14.5 5.5C12.8431 5.5 11.5 6.84315 11.5 8.5C11.5 10.1569 12.8431 11.5 14.5 11.5Z" stroke="#131123" stroke-width="1.5" stroke-linecap="round"/>
<path d="M25 20.5C26.6569 20.5 28 19.1569 28 17.5C28 15.8431 26.6569 14.5 25 14.5C23.3431 14.5 22 15.8431 22 17.5C22 19.1569 23.3431 20.5 25 20.5Z" stroke="#131123" stroke-width="1.5" stroke-linecap="round"/>
</svg>
