<svg width="75" height="75" viewBox="0 0 75 75" fill="none" xmlns="http://www.w3.org/2000/svg">
<g filter="url(#filter0_b_2001_201)">
<circle cx="37.2548" cy="37.6617" r="37.0343" fill="white" fill-opacity="0.3"/>
</g>
<g clip-path="url(#clip0_2001_201)">
<path fill-rule="evenodd" clip-rule="evenodd" d="M30.5283 24.2295C30.1828 24.5432 29.8179 25.432 30.2812 27.2857L30.2845 27.2989C30.856 29.674 32.5793 32.798 35.2482 35.7987C37.9401 38.8022 40.8387 40.8623 43.1166 41.6809L43.1304 41.6858L43.1442 41.6911C44.7623 42.3084 45.6634 42.1633 46.0756 41.9139L46.2127 41.7923C46.4149 41.6127 46.6228 41.2648 46.6675 40.576C46.7127 39.8786 46.5771 38.9471 46.2008 37.8216C45.4501 35.5764 43.8373 32.8453 41.4915 30.2281C39.1433 27.6081 36.6131 25.699 34.4698 24.6983C33.3955 24.1968 32.487 23.9555 31.7894 23.9202C31.1045 23.8855 30.7334 24.0492 30.5283 24.2295ZM35.7552 21.945C38.352 23.1574 41.2003 25.3505 43.7543 28.2C46.3108 31.0523 48.1722 34.1351 49.0826 36.8581C49.5369 38.2167 49.7786 39.5578 49.6997 40.7728C49.636 41.756 49.3538 42.7269 48.7407 43.5185V43.6262L48.2365 44.0791C46.5863 45.5608 44.1839 45.3369 42.075 44.5355C39.1708 43.4877 35.8774 41.0541 32.9834 37.8245L32.9797 37.8204C30.1012 34.5847 28.0581 31.0276 27.3317 28.0162C26.7855 25.8256 26.8641 23.4359 28.5013 21.9659L28.5075 21.9602C29.4782 21.0984 30.7199 20.8235 31.9431 20.8855C33.1572 20.947 34.4595 21.34 35.7552 21.945Z" fill="white"/>
<path fill-rule="evenodd" clip-rule="evenodd" d="M29.4872 22.6813C30.2536 23.0232 30.5975 23.9216 30.2556 24.6878L20.7549 45.9784L20.7535 45.9815C19.9627 47.7428 21.6403 49.6626 23.5316 49.0752L23.5341 49.0745L45.7709 42.0469C46.5711 41.7941 47.4247 42.2377 47.6775 43.0377C47.9303 43.8378 47.4868 44.6914 46.6866 44.9443L24.444 51.9735L24.4383 51.9754C20.092 53.3301 16.0998 48.9318 17.9807 44.7387C17.9804 44.7393 17.9809 44.7381 17.9807 44.7387L27.4808 23.4496C27.8227 22.6833 28.721 22.3393 29.4872 22.6813Z" fill="white"/>
<path fill-rule="evenodd" clip-rule="evenodd" d="M36.1722 45.3072C36.9728 45.0561 37.8255 45.5016 38.0766 46.3023L39.1496 49.7237C39.1493 49.7232 39.1497 49.724 39.1496 49.7237C39.9881 52.3864 38.4921 55.2665 35.8276 56.1063L32.4041 57.1801C32.4037 57.1802 32.4046 57.1798 32.4041 57.1801C29.7414 58.0186 26.8613 56.5225 26.0216 53.8581L24.9472 50.4325C24.6961 49.6318 25.1416 48.7793 25.9423 48.5282C26.7429 48.2771 27.5954 48.7225 27.8465 49.5233L28.9195 52.9446C28.9194 52.9442 28.9197 52.945 28.9195 52.9446C29.2549 54.0065 30.4267 54.6173 31.4907 54.282L34.9141 53.2084C34.9137 53.2085 34.9145 53.2082 34.9141 53.2084C35.976 52.873 36.5868 51.7012 36.2515 50.6372L35.1771 47.2116C34.926 46.4109 35.3716 45.5583 36.1722 45.3072Z" fill="white"/>
<path fill-rule="evenodd" clip-rule="evenodd" d="M54.8127 20.2333C55.4093 20.8233 55.4148 21.7852 54.8248 22.3819L53.0421 24.1848C52.4521 24.7815 51.4902 24.7869 50.8936 24.197C50.2968 23.607 50.2914 22.6451 50.8814 22.0484L52.664 20.2454C53.254 19.6488 54.216 19.6433 54.8127 20.2333Z" fill="white"/>
<path fill-rule="evenodd" clip-rule="evenodd" d="M45.1774 18.0471C45.941 18.395 46.2779 19.296 45.9301 20.0596L45.0996 21.8828C44.7517 22.6463 43.8507 22.9834 43.0871 22.6355C42.3235 22.2876 41.9866 21.3866 42.3344 20.623L43.1649 18.7999C43.5128 18.0363 44.4138 17.6993 45.1774 18.0471Z" fill="white"/>
<path fill-rule="evenodd" clip-rule="evenodd" d="M56.8258 29.6514C57.2221 30.391 56.9436 31.3118 56.204 31.708L54.5024 32.6197C53.7628 33.016 52.842 32.7375 52.4457 31.9979C52.0495 31.2583 52.3278 30.3375 53.0674 29.9413L54.769 29.0295C55.5086 28.6333 56.4295 28.9118 56.8258 29.6514Z" fill="white"/>
</g>
<defs>
<filter id="filter0_b_2001_201" x="-4.71732" y="-4.31048" width="83.9443" height="83.9443" filterUnits="userSpaceOnUse" color-interpolation-filters="sRGB">
<feFlood flood-opacity="0" result="BackgroundImageFix"/>
<feGaussianBlur in="BackgroundImageFix" stdDeviation="2.46895"/>
<feComposite in2="SourceAlpha" operator="in" result="effect1_backgroundBlur_2001_201"/>
<feBlend mode="normal" in="SourceGraphic" in2="effect1_backgroundBlur_2001_201" result="shape"/>
</filter>
<clipPath id="clip0_2001_201">
<rect width="39.5032" height="39.5032" fill="white" transform="translate(17.5032 17.91)"/>
</clipPath>
</defs>
</svg>
