<svg width="27" height="26" viewBox="0 0 27 26" fill="none" xmlns="http://www.w3.org/2000/svg">
<path d="M8.02977 20.2635C7.83174 20.2537 7.67217 20.2382 7.46841 20.1899C7.26466 20.1416 7.10509 20.1261 6.93979 20.072C6.57074 19.9698 6.23442 19.8233 5.89237 19.6384C5.21399 19.3069 4.62809 18.8045 4.14038 18.1695C3.6584 17.573 3.31308 16.8381 3.16578 16.1131C3.07004 15.7343 3.05694 15.3824 3.03812 14.9921C3.04794 14.794 3.06348 14.6345 3.0733 14.4364C3.08312 14.2384 3.13713 14.0731 3.14695 13.8751L3.2656 14.4078C3.29424 14.6001 3.35562 14.7482 3.42272 14.9348C3.51273 15.2752 3.64121 15.6099 3.76395 15.9061C4.01517 16.537 4.33759 17.118 4.76965 17.6433C5.20172 18.1687 5.66651 18.6499 6.24096 19.0754C6.50609 19.2718 6.80968 19.4624 7.11327 19.6531C7.24583 19.7513 7.41686 19.8437 7.58788 19.9362L8.02977 20.2635ZM8.1206 21.6653C8.01668 21.7594 7.86857 21.8208 7.72046 21.8821C7.57234 21.9435 7.46269 21.9991 7.30885 22.0221C7.04536 22.1006 6.74341 22.1849 6.43 22.1923C5.84737 22.2397 5.2091 22.1775 4.66902 21.9828C4.09048 21.7938 3.56595 21.4394 3.1838 20.9853C2.99559 20.7774 2.80165 20.5311 2.64618 20.2791C2.59053 20.1694 2.52916 20.0213 2.46779 19.8732C2.4506 19.7578 2.39496 19.6482 2.37204 19.4944C2.50461 19.5925 2.59871 19.6965 2.68709 19.7619C2.81965 19.8601 2.91376 19.9641 3.00214 20.0295C3.22308 20.1932 3.40556 20.3626 3.62077 20.4878C4.05693 20.7766 4.48735 21.027 4.98324 21.189C5.44067 21.3568 5.96929 21.4746 6.45373 21.5597C6.69595 21.6023 6.97089 21.6006 7.25157 21.6375C7.37268 21.6587 7.52652 21.6358 7.64763 21.6571C7.84566 21.6669 7.96104 21.6497 8.1206 21.6653ZM14.0286 1.67911C14.2267 1.68892 14.392 1.74293 14.5957 1.79121C14.7995 1.83949 14.9648 1.8935 15.1301 1.9475C15.5049 2.08825 15.8412 2.23472 16.1832 2.41966C16.8673 2.78953 17.459 3.33042 17.9082 3.97115C18.3575 4.61187 18.6643 5.35243 18.7732 6.08317C18.8304 6.46777 18.8435 6.81964 18.8239 7.2157C18.8141 7.41373 18.7985 7.57329 18.7503 7.77705C18.702 7.98081 18.6864 8.14038 18.6324 8.30567L18.5138 7.77296C18.4851 7.58066 18.4622 7.42682 18.3951 7.24025L18.1251 6.21901C17.9123 5.58238 17.5842 4.96293 17.1848 4.39339C16.7855 3.82386 16.3207 3.3427 15.7847 2.91146C15.5139 2.67661 15.2103 2.48594 14.9394 2.25109C14.8068 2.1529 14.6358 2.06043 14.4648 1.96796L14.0286 1.67911ZM17.3517 1.02691C17.5113 1.04245 17.6324 1.06373 17.7593 1.12346C17.8804 1.14474 18.0457 1.19875 18.1725 1.25848C18.4262 1.37795 18.6799 1.49742 18.9393 1.65535C19.4196 1.97694 19.8345 2.38691 20.107 2.89671C20.4179 3.40078 20.5808 3.96622 20.5898 4.55458C20.5914 4.82953 20.5546 5.11021 20.5178 5.39088C20.4965 5.51199 20.4425 5.67729 20.4212 5.7984C20.3615 5.92523 20.3402 6.04634 20.242 6.17891L20.1847 5.79431L20.1274 5.40971C20.0873 5.14049 20.0145 4.91545 19.9801 4.68469C19.8288 4.19617 19.6831 3.74611 19.4278 3.35169C19.1667 2.91881 18.8787 2.56858 18.5465 2.18561C18.364 2.01623 18.1758 1.80838 17.9933 1.63899C17.8992 1.53507 17.8108 1.4696 17.6783 1.37141C17.5727 1.19057 17.4401 1.09237 17.3517 1.02691Z" fill="#42ADE2"/>
<path d="M3.93648 8.88265C3.21884 9.34336 3.0871 10.3065 3.5478 11.0241L9.9003 20.4174L12.4035 18.7472L6.04524 9.31552C5.58454 8.59788 4.6484 8.38349 3.93648 8.88265ZM17.864 15.0247L20.5095 13.2548L13.2528 2.54161C12.7536 1.82969 11.779 1.62103 11.0287 2.12593C10.3167 2.62509 10.1081 3.59969 10.613 4.35006L17.864 15.0247Z" fill="#FFDD67"/>
<path d="M11.0615 2.08173C10.9903 2.13165 10.9191 2.18157 10.8536 2.26994C11.5557 1.96881 12.3765 2.20038 12.8257 2.84111L20.0825 13.5542L20.5481 13.249L13.2913 2.53588C12.7864 1.7855 11.8119 1.57684 11.0615 2.08173Z" fill="#EBA352"/>
<path d="M12.3978 18.7087L15.1473 16.8446L7.74081 5.91789C7.23592 5.16752 6.17867 4.93185 5.4283 5.43674C4.67792 5.94164 4.48071 6.99315 4.98561 7.74353L12.3978 18.7087Z" fill="#FFDD67"/>
<path d="M5.43394 5.47521C5.36275 5.52513 5.29156 5.57504 5.22609 5.66342C5.92819 5.36228 6.82587 5.5824 7.28085 6.26159L11.8748 13.0862L12.7954 13.4601L7.74646 5.95636C7.23584 5.16752 6.22278 4.96459 5.43394 5.47521Z" fill="#EBA352"/>
<path d="M14.5483 15.9903L17.2977 14.1262L9.89126 3.19952C9.38637 2.44915 8.32913 2.21348 7.58448 2.75683C6.8341 3.26173 6.63689 4.31324 7.14179 5.06362L14.5483 15.9903Z" fill="#FFDD67"/>
<path d="M7.57872 2.71839C7.50753 2.7683 7.44206 2.85668 7.37087 2.90659C8.07297 2.60546 8.97065 2.82558 9.42562 3.50476L14.6243 11.2221L15.5449 11.5961L9.89123 3.19954C9.38061 2.4107 8.3291 2.21349 7.57872 2.71839ZM3.93649 8.88265C3.8653 8.93256 3.79411 8.98248 3.72865 9.07086C4.39229 8.77545 5.17458 9.01275 5.58537 9.65921L9.36921 15.2678L10.2898 15.6418L6.05098 9.35398C5.58455 8.59787 4.64841 8.38348 3.93649 8.88265Z" fill="#EBA352"/>
<path d="M23.3024 4.81889C22.1437 4.16589 20.5832 5.30252 20.1495 8.19766C19.859 10.2066 19.868 10.7949 18.7232 11.5551L17.819 10.2352C17.819 10.2352 7.6811 17.1311 8.23019 17.9142C8.23019 17.9142 10.145 21.7962 12.6564 23.3485C16.3878 25.7019 23.6658 21.5122 22.9178 14.1148C22.4743 9.81706 24.5495 5.53735 23.3024 4.81889Z" fill="#FFDD67"/>
<path d="M23.3024 4.81887C23.0872 4.69368 22.845 4.65113 22.6085 4.64703C22.6527 4.67977 22.7296 4.66831 22.7738 4.70104C24.0593 5.41377 23.1707 7.62973 22.7918 9.5732C22.4711 11.1149 22.2329 12.6836 22.5275 14.1336C23.7861 20.4721 17.8158 24.4671 13.798 23.8861C17.8019 24.9016 24.3548 20.8592 23.0561 14.2514C22.7616 12.8014 22.9727 11.3154 23.3204 9.69103C23.6608 7.75329 24.5495 5.53734 23.3024 4.81887Z" fill="#EBA352"/>
<path d="M19.0464 11.3497C16.702 11.9741 13.7119 15.9183 16.729 19.2823C14.36 15.7824 16.9434 12.803 18.6962 11.6377C18.8656 11.4553 19.0464 11.3497 19.0464 11.3497Z" fill="#EBA352"/>
</svg>
