<svg width="25" height="27" viewBox="0 0 25 27" fill="none" xmlns="http://www.w3.org/2000/svg">
<g clip-path="url(#clip0_970_977)">
<path d="M11.2903 10.8269C11.2903 11.4858 11.8319 12.0201 12.5 12.0201C13.1681 12.0201 13.7097 11.4858 13.7097 10.8269H11.2903ZM13.7097 1.48221C13.7097 0.823257 13.1681 0.289062 12.5 0.289062C11.8319 0.289062 11.2903 0.823257 11.2903 1.48221H13.7097ZM8.16267 5.71637C8.77069 5.4433 9.03908 4.73575 8.76231 4.13605C8.48538 3.53634 7.76805 3.27157 7.16004 3.54466L8.16267 5.71637ZM1.20982 14.4636L0 14.4574L0.000242261 14.4775L1.20982 14.4636ZM12.5 25.3451L12.5139 24.152C12.5047 24.152 12.4953 24.152 12.4861 24.152L12.5 25.3451ZM23.7902 14.4636L25 14.4775L24.9998 14.4574L23.7902 14.4636ZM17.8399 3.54466C17.2319 3.27157 16.5146 3.53634 16.2377 4.13605C15.9609 4.73575 16.2293 5.4433 16.8374 5.71637L17.8399 3.54466ZM13.7097 10.8269V1.48221H11.2903V10.8269H13.7097ZM7.16004 3.54466C2.82017 5.49389 0.0249836 9.7539 0 14.4574L2.41947 14.4698C2.43952 10.6971 4.68149 7.27994 8.16267 5.71637L7.16004 3.54466ZM0.000242261 14.4775C0.0797574 21.2162 5.68199 26.6156 12.5139 26.5382L12.4861 24.152C6.99014 24.2143 2.48337 19.8706 2.4194 14.4498L0.000242261 14.4775ZM12.4861 26.5382C19.318 26.6156 24.9206 21.2162 25 14.4775L22.5807 14.4498C22.5166 19.8706 18.0099 24.2143 12.5139 24.152L12.4861 26.5382ZM24.9998 14.4574C24.9748 9.7539 22.1799 5.49389 17.8399 3.54466L16.8374 5.71637C20.3184 7.27994 22.5605 10.6971 22.5805 14.4698L24.9998 14.4574Z" fill="#131123"/>
</g>
<defs>
<clipPath id="clip0_970_977">
<rect width="25" height="26.25" fill="white" transform="translate(0 0.289062)"/>
</clipPath>
</defs>
</svg>
