<svg width="25" height="26" viewBox="0 0 25 26" fill="none" xmlns="http://www.w3.org/2000/svg">
<g clip-path="url(#clip0_970_1007)">
<path d="M17.1375 13.6766C18.363 12.7124 19.2575 11.3902 19.6965 9.89402C20.1356 8.3978 20.0974 6.80193 19.5872 5.32843C19.0771 3.85493 18.1203 2.57709 16.8501 1.67267C15.5799 0.768245 14.0593 0.282227 12.5 0.282227C10.9407 0.282227 9.42014 0.768245 8.14991 1.67267C6.87968 2.57709 5.92293 3.85493 5.41276 5.32843C4.9026 6.80193 4.86439 8.3978 5.30345 9.89402C5.74251 11.3902 6.63701 12.7124 7.8625 13.6766C5.76259 14.5179 3.93035 15.9133 2.56111 17.714C1.19187 19.5147 0.33695 21.6532 0.0874959 23.9016C0.0694391 24.0657 0.0838915 24.2319 0.130028 24.3904C0.176164 24.549 0.25308 24.6969 0.356385 24.8258C0.565019 25.086 0.868475 25.2526 1.2 25.2891C1.53152 25.3256 1.86395 25.2288 2.12415 25.0202C2.38436 24.8116 2.55103 24.5081 2.5875 24.1766C2.86198 21.7331 4.0271 19.4764 5.86027 17.8376C7.69344 16.1988 10.0661 15.2929 12.525 15.2929C14.9839 15.2929 17.3566 16.1988 19.1897 17.8376C21.0229 19.4764 22.188 21.7331 22.4625 24.1766C22.4965 24.4837 22.643 24.7674 22.8739 24.9729C23.1047 25.1783 23.4035 25.291 23.7125 25.2891H23.85C24.1777 25.2514 24.4772 25.0857 24.6832 24.8282C24.8892 24.5706 24.9851 24.242 24.95 23.9141C24.6994 21.6594 23.8398 19.5153 22.4636 17.7119C21.0873 15.9084 19.2461 14.5134 17.1375 13.6766ZM12.5 12.7891C11.5111 12.7891 10.5444 12.4959 9.72215 11.9464C8.8999 11.397 8.25904 10.6161 7.8806 9.70251C7.50216 8.78888 7.40314 7.78355 7.59607 6.81365C7.789 5.84374 8.2652 4.95282 8.96446 4.25356C9.66372 3.5543 10.5546 3.0781 11.5245 2.88517C12.4944 2.69224 13.4998 2.79126 14.4134 3.1697C15.327 3.54814 16.1079 4.189 16.6573 5.01125C17.2068 5.83349 17.5 6.80019 17.5 7.7891C17.5 9.11518 16.9732 10.3869 16.0355 11.3246C15.0978 12.2623 13.8261 12.7891 12.5 12.7891Z" fill="#1D4AA3"/>
</g>
<defs>
<clipPath id="clip0_970_1007">
<rect width="25" height="25" fill="white" transform="translate(0 0.289062)"/>
</clipPath>
</defs>
</svg>
