<svg width="24" height="21" viewBox="0 0 24 21" fill="none" xmlns="http://www.w3.org/2000/svg">
<path fill-rule="evenodd" clip-rule="evenodd" d="M22.5 15.75C22.5 16.578 21.828 17.25 21 17.25H19.3935C19.0598 15.9585 17.8965 15 16.5 15H7.5C6.1035 15 4.94025 15.9585 4.6065 17.25H3C2.172 17.25 1.5 16.578 1.5 15.75V14.25C1.5 13.422 2.172 12.75 3 12.75H21C21.828 12.75 22.5 13.422 22.5 14.25V15.75ZM16.5 19.5H7.5C6.672 19.5 6 18.828 6 18C6 17.172 6.672 16.5 7.5 16.5H16.5C17.328 16.5 18 17.172 18 18C18 18.828 17.328 19.5 16.5 19.5ZM6 3C6 2.172 6.672 1.5 7.5 1.5H16.5C17.328 1.5 18 2.172 18 3V11.25H6V3ZM21 11.25H19.5V3C19.5 1.34325 18.1567 0 16.5 0H7.5C5.84325 0 4.5 1.34325 4.5 3V11.25H3C1.34325 11.25 0 12.5933 0 14.25V15.75C0 17.4067 1.34325 18.75 3 18.75H4.6065C4.94025 20.0422 6.1035 21 7.5 21H16.5C17.8965 21 19.0598 20.0422 19.3935 18.75H21C22.6567 18.75 24 17.4067 24 15.75V14.25C24 12.5933 22.6567 11.25 21 11.25Z" fill="#131123"/>
</svg>
