<svg width="25" height="26" viewBox="0 0 25 26" fill="none" xmlns="http://www.w3.org/2000/svg">
<g clip-path="url(#clip0_970_960)">
<path fill-rule="evenodd" clip-rule="evenodd" d="M13.5224 10.9778C12.7034 10.5165 11.883 10.2344 11.0127 10.0926C6.58471 9.37419 2.93359 12.5307 2.30915 16.4683C2.25085 16.8351 2.21221 17.2089 2.2087 17.58C2.19721 18.9229 2.19743 20.2665 2.20309 21.6095H0.508446C0.488397 20.7421 0.448732 18.4571 0.550314 17.1902C0.860779 13.3242 2.791 10.5248 6.42315 8.94479C6.45405 8.93136 6.48433 8.91639 6.51565 8.9009C6.53131 8.89315 6.54724 8.88527 6.56363 8.8774C4.075 6.84298 4.19933 3.22229 6.39014 1.27958C8.43204 -0.53111 11.5641 -0.409517 13.4486 1.57696C15.3508 3.5829 15.3318 6.86313 12.9661 8.86767C12.9933 8.88062 13.0196 8.89357 13.0453 8.90625C13.1038 8.93505 13.1593 8.96242 13.2168 8.9851C14.1532 9.35265 14.9968 9.87029 15.7701 10.5074C15.8783 10.5964 16.0462 10.6582 16.1866 10.6589C17.5545 10.6677 18.9221 10.6693 20.2898 10.6709H20.2899C20.876 10.6716 21.4621 10.6722 22.0482 10.6735C23.4067 10.6763 24.3388 11.3975 24.671 12.6996L24.837 13.3482C25.0203 14.0636 25.2035 14.7789 25.3826 15.4955C25.6488 16.56 25.3896 17.4806 24.6071 18.2623C24.5362 18.3332 24.4877 18.4721 24.4989 18.5715C24.5495 19.0279 24.6062 19.4837 24.6629 19.9395L24.6629 19.9395L24.6629 19.9398C24.7228 20.4213 24.7827 20.9029 24.8354 21.3855C25.0328 23.1899 23.55 24.9311 21.7167 24.9679C19.5441 25.011 17.3702 25.0103 15.1976 24.9679C13.3967 24.9325 11.916 23.2406 12.0775 21.4626C12.13 20.8846 12.2032 20.3089 12.2763 19.733L12.2763 19.7329C12.3254 19.3458 12.3746 18.9587 12.4175 18.5708C12.4287 18.4714 12.381 18.3338 12.31 18.263C11.5332 17.4903 11.2726 16.5767 11.5297 15.5219C11.6272 15.1215 11.7297 14.7221 11.8322 14.3227L11.8323 14.3226C11.9624 13.8157 12.0926 13.3087 12.2124 12.7996C12.395 12.0291 12.7785 11.4086 13.5224 10.9778ZM3.02118 24.3554L3.04968 24.3827V24.3554H3.02118ZM16.2716 18.1178C15.7062 18.6854 15.0284 18.9988 14.2122 19.0071C14.156 19.0078 14.0597 19.112 14.0513 19.1767C13.9459 19.9576 13.7598 21.5237 13.7598 21.5237C13.7598 21.5237 14.406 23.3046 15.3571 23.3115C17.4243 23.3261 19.4922 23.3268 21.5594 23.3115C22.5322 23.3046 23.2704 22.4333 23.1587 21.4758L23.1587 21.4753C23.1145 21.0968 23.0702 20.7183 23.0218 20.3405C22.98 20.0144 22.9363 19.6887 22.8921 19.3592L22.8441 19.0002C21.9639 19.0245 21.2454 18.7167 20.6518 18.1191C19.3552 19.3149 17.5114 19.2781 16.2716 18.1178ZM9.76732 1.66243C7.91507 1.66312 6.41121 3.15211 6.4091 4.98782C6.407 6.82283 7.90875 8.31877 9.75819 8.32294C11.6168 8.3271 13.1424 6.82005 13.1382 4.98434C13.1326 3.15837 11.6147 1.66243 9.76732 1.66243ZM17.4628 12.8719L17.4627 12.8734C17.4108 13.2606 17.36 13.6404 17.3133 14.0204C17.2925 14.1894 17.2702 14.3583 17.2479 14.5272L17.2478 14.5278C17.1841 15.0103 17.1203 15.4929 17.0927 15.977C17.0499 16.7351 17.6926 17.3312 18.4786 17.3229C19.2625 17.3146 19.8616 16.7045 19.8307 15.9395C19.8235 15.7543 19.7997 15.5691 19.7759 15.3845L19.771 15.3461C19.6772 14.6007 19.5817 13.8549 19.4856 13.1036L19.4853 13.1017L19.3896 12.3536C18.7715 12.3543 18.1625 12.3543 17.5317 12.3543C17.5088 12.5287 17.4857 12.7011 17.4628 12.8719ZM21.14 12.3536C21.14 12.3957 21.1389 12.4346 21.1378 12.4711C21.1358 12.543 21.134 12.6059 21.1414 12.6676C21.2931 13.8856 21.4449 15.1036 21.6036 16.321C21.6935 17.013 22.2505 17.4348 22.908 17.3201C23.5352 17.211 23.9195 16.6044 23.7593 15.9409C23.5582 15.1098 23.3459 14.2807 23.1337 13.4519L23.0232 13.0199C22.9284 12.6496 22.6937 12.3939 22.3032 12.3605C22.0403 12.3379 21.7747 12.3433 21.5044 12.3487C21.3839 12.3511 21.2625 12.3536 21.14 12.3536ZM15.4408 12.3416H15.4407H15.4407C15.1762 12.3376 14.9244 12.3339 14.6736 12.3501C14.3 12.3744 14.0239 12.5745 13.9277 12.9414L13.9019 13.0396C13.64 14.0352 13.3779 15.0317 13.1487 16.0354C13.0075 16.6524 13.4311 17.2305 14.0295 17.3215C14.6666 17.4181 15.2145 17.022 15.3079 16.3814C15.3579 16.0384 15.3988 15.694 15.4397 15.3495L15.4397 15.3492C15.4569 15.2046 15.4741 15.0599 15.492 14.9153C15.598 14.0684 15.7034 13.2214 15.8122 12.3452C15.685 12.3452 15.5615 12.3434 15.4408 12.3416Z" fill="#131123"/>
</g>
<defs>
<clipPath id="clip0_970_960">
<rect width="25" height="25.0736" fill="white"/>
</clipPath>
</defs>
</svg>
