<svg width="25" height="25" viewBox="0 0 25 25" fill="none" xmlns="http://www.w3.org/2000/svg">
<g clip-path="url(#clip0_679_586)">
<mask id="mask0_679_586" style="mask-type:luminance" maskUnits="userSpaceOnUse" x="0" y="0" width="25" height="25">
<path d="M24.9711 0H0V25H24.9711V0Z" fill="white"/>
</mask>
<g mask="url(#mask0_679_586)">
<path d="M10.6264 0.130699C11.8227 -0.113936 13.091 -0.0162964 14.2284 0.433274C15.6918 0.990143 16.929 2.11354 17.6285 3.51482C18.3292 4.87855 18.503 6.50195 18.1168 7.98478C17.6822 9.72402 16.4698 11.2488 14.8764 12.0706C13.6307 12.7262 12.1651 12.9429 10.782 12.6929C9.18649 12.4139 7.71976 11.4923 6.76483 10.1854C5.66933 8.71332 5.2659 6.75946 5.68221 4.97297C6.20259 2.57812 8.22191 0.601729 10.6264 0.130699ZM10.9579 1.85387C9.28309 2.18756 7.86998 3.53199 7.43543 5.18112C7.05345 6.55988 7.3571 8.10924 8.24336 9.23473C9.08783 10.3453 10.459 11.0352 11.856 11.0438C13.3152 11.076 14.768 10.3614 15.6339 9.18652C16.2594 8.35924 16.5975 7.31632 16.562 6.2777C16.5406 4.8528 15.8024 3.46654 14.6446 2.63821C13.6018 1.86782 12.2241 1.58027 10.9579 1.85387Z" fill="#0B0B0B"/>
<path d="M16.2692 15.1888C16.942 13.9677 18.1856 13.0761 19.5643 12.8551C21.0697 12.5836 22.6931 13.1255 23.7307 14.2499C24.6674 15.2242 25.1266 16.6244 24.9709 17.9634C24.8208 19.3872 23.9677 20.708 22.7382 21.4388C21.8111 22.0053 20.6942 22.1866 19.6233 22.0611C18.8111 22.9065 17.9667 23.7221 17.1469 24.56C16.9356 24.7746 16.6877 25.0106 16.3626 24.9956C15.4356 24.9978 14.5075 25.0063 13.5804 24.9913C13.1298 24.971 12.7607 24.5364 12.7897 24.09C12.7908 23.1963 12.7842 22.3014 12.794 21.4077C12.7875 21.1738 12.9142 20.9634 13.074 20.8047C13.9452 19.913 14.853 19.0568 15.7102 18.1522C15.6308 17.1394 15.7532 16.0825 16.2692 15.1888ZM17.6501 16.3658C17.4098 16.9377 17.3958 17.5836 17.5342 18.1834C17.6201 18.4785 17.5408 18.8057 17.3261 19.0256C16.4141 19.9731 15.4452 20.8712 14.5515 21.8336C14.5085 22.3036 14.5429 22.7778 14.5332 23.251C15.0203 23.2166 15.5418 23.3207 16.0085 23.1984C16.9217 22.3272 17.795 21.412 18.6963 20.5278C18.913 20.2864 19.25 20.1565 19.5697 20.2478C20.3122 20.4323 21.1255 20.3551 21.7897 19.9623C22.8475 19.3722 23.4495 18.0761 23.1963 16.8883C22.9581 15.5192 21.6191 14.4505 20.2285 14.545C19.1083 14.5675 18.0515 15.3229 17.6501 16.3658Z" fill="#0B0B0B"/>
<path d="M9.88158 13.8818C11.1777 13.7734 12.4846 13.7584 13.7808 13.87C14.3805 13.9171 14.7346 14.6693 14.4235 15.1736C14.2485 15.4654 13.9095 15.6468 13.5672 15.5996C11.3247 15.4408 9.04792 15.5974 6.87195 16.1779C5.51358 16.5556 4.17131 17.0974 3.05757 17.9783C2.40199 18.5116 1.7829 19.2337 1.75392 20.1211C1.75285 20.7272 1.73461 21.3346 1.76358 21.9397C1.82473 22.1382 2.0447 22.0942 2.20349 22.1038C5.0286 22.0996 7.85264 22.1038 10.6767 22.1017C11.0028 22.0803 11.3409 22.2337 11.505 22.5234C11.7475 22.9 11.6284 23.4526 11.2528 23.6972C10.9921 23.8936 10.652 23.8474 10.3473 23.8538C7.55865 23.8474 4.76894 23.8538 1.98031 23.8506C1.16487 23.8646 0.385896 23.3121 0.118728 22.5438C-0.0454345 22.1124 0.0114325 21.6436 0.00284884 21.1929C0.0135785 20.4612 -0.0626018 19.7026 0.197055 19.002C0.693836 17.5578 1.91594 16.503 3.211 15.7734C5.2507 14.6382 7.57366 14.1017 9.88158 13.8818Z" fill="#0B0B0B"/>
<path d="M20.0546 16.2104C20.7681 16.0173 21.5535 16.5806 21.6018 17.3156C21.6908 17.9926 21.1329 18.6707 20.4494 18.7018C19.7734 18.7791 19.1222 18.2168 19.0846 17.5419C19.0245 16.9368 19.4665 16.3445 20.0546 16.2104Z" fill="#0B0B0B"/>
</g>
</g>
<defs>
<clipPath id="clip0_679_586">
<rect width="25" height="25" fill="white"/>
</clipPath>
</defs>
</svg>
