<svg width="15" height="15" viewBox="0 0 15 15" fill="none" xmlns="http://www.w3.org/2000/svg">
<path d="M6.12585 12.1357C7.4482 12.1357 8.68293 11.7096 9.68667 10.9995L13.4625 14.7396C13.6378 14.9132 13.8688 15 14.1078 15C14.6256 15 15 14.6055 15 14.1005C15 13.8637 14.9204 13.6428 14.745 13.4692L10.9931 9.74484C11.7817 8.71909 12.2517 7.44869 12.2517 6.06786C12.2517 2.73014 9.49546 0 6.12585 0C2.74826 0 0 2.73014 0 6.06786C0 9.40555 2.74826 12.1357 6.12585 12.1357ZM6.12585 10.8259C3.48911 10.8259 1.32235 8.67176 1.32235 6.06786C1.32235 3.46397 3.48911 1.30986 6.12585 1.30986C8.75465 1.30986 10.9294 3.46397 10.9294 6.06786C10.9294 8.67176 8.75465 10.8259 6.12585 10.8259Z" fill="#85878D"/>
</svg>
