<svg width="25" height="16" viewBox="0 0 25 16" fill="none" xmlns="http://www.w3.org/2000/svg">
<g clip-path="url(#clip0_970_993)">
<path fill-rule="evenodd" clip-rule="evenodd" d="M24.9182 7.40888C24.8527 7.60783 24.7485 7.79184 24.6115 7.95026C24.4744 8.10869 24.3074 8.2384 24.1199 8.3319L21.757 9.51337L16.2608 15.0106C16.1632 15.1081 16.0421 15.1786 15.9092 15.2153C15.7763 15.252 15.6361 15.2537 15.5024 15.2202L9.11606 13.6236C9.01894 13.5992 8.92723 13.5569 8.84564 13.4988L3.3055 9.54331L0.882687 8.3319C0.504033 8.14261 0.216055 7.81069 0.0820739 7.40912C-0.0519072 7.00755 -0.020922 6.56921 0.168216 6.19048L2.64791 1.2321C2.8372 0.853442 3.16912 0.565464 3.57069 0.431483C3.97226 0.297502 4.4106 0.328487 4.78932 0.517625L6.99061 1.61528L12.2793 0.104509C12.4228 0.0634709 12.5749 0.0634709 12.7184 0.104509L18.007 1.61528L20.2083 0.517625C20.587 0.328487 21.0254 0.297502 21.427 0.431483C21.8285 0.565464 22.1604 0.853442 22.3497 1.2321L24.8294 6.19048C24.924 6.37762 24.9806 6.58166 24.9958 6.79079C25.011 6.99992 24.9847 7.21 24.9182 7.40888ZM20.3101 8.70011L17.5949 3.26973H14.4197L10.1049 7.46076C11.3682 8.26804 13.349 8.49056 15.1262 6.69939C15.265 6.55949 15.4506 6.47587 15.6474 6.46464C15.8441 6.4534 16.0381 6.51534 16.1919 6.63852L19.6256 9.38964L20.3101 8.70011ZM1.59616 6.90396L3.36138 7.78707L5.84107 2.82868L4.07585 1.94557L1.59616 6.90396ZM18.487 10.5202L15.7219 8.30596C13.7721 9.90254 11.2964 10.1131 9.24479 8.80489C9.04298 8.67651 8.87259 8.50444 8.74621 8.30137C8.61983 8.09831 8.54068 7.86944 8.51463 7.63168C8.48857 7.39393 8.51627 7.15335 8.59567 6.92773C8.67507 6.70212 8.80415 6.49722 8.97337 6.32819C8.97577 6.32528 8.97845 6.32261 8.98135 6.32021L13.4578 1.9785L12.4998 1.70508L7.46859 3.14301L4.73744 8.60432L9.64693 12.1118L15.4485 13.5617L18.487 10.5202ZM23.4005 6.90396L20.9238 1.94557L19.1586 2.82868L21.6383 7.78707L23.4005 6.90396Z" fill="#1D4AA3"/>
</g>
<defs>
<clipPath id="clip0_970_993">
<rect width="25" height="15.1704" fill="white" transform="translate(0 0.0737305)"/>
</clipPath>
</defs>
</svg>
