<svg width="28" height="28" viewBox="0 0 28 28" fill="none" xmlns="http://www.w3.org/2000/svg">
<path d="M14 17.5999C15.9882 17.5999 17.6 15.9881 17.6 13.9999C17.6 12.0117 15.9882 10.3999 14 10.3999C12.0118 10.3999 10.4 12.0117 10.4 13.9999C10.4 15.9881 12.0118 17.5999 14 17.5999Z" stroke="#0C0310" stroke-width="2.4" stroke-linecap="round"/>
<path fill-rule="evenodd" clip-rule="evenodd" d="M11.6828 3.63537C12.4581 1.45488 15.5419 1.45488 16.3172 3.63536C16.8056 5.00852 18.3741 5.65822 19.6904 5.03255C21.7804 4.03902 23.9609 6.2195 22.9675 8.30963C22.3418 9.62588 22.9915 11.1944 24.3646 11.6828C26.5451 12.4581 26.5451 15.5419 24.3646 16.3172C22.9915 16.8056 22.3418 18.3741 22.9675 19.6904C23.9609 21.7804 21.7804 23.9609 19.6904 22.9675C18.3741 22.3418 16.8056 22.9915 16.3172 24.3646C15.5419 26.5451 12.4581 26.5451 11.6828 24.3646C11.1944 22.9915 9.62588 22.3418 8.30963 22.9675C6.2195 23.9609 4.03902 21.7804 5.03255 19.6904C5.65822 18.3741 5.00852 16.8056 3.63536 16.3172C1.45488 15.5419 1.45488 12.4581 3.63537 11.6828C5.00852 11.1944 5.65822 9.62588 5.03255 8.30963C4.03902 6.2195 6.2195 4.03902 8.30963 5.03255C9.62588 5.65822 11.1944 5.00852 11.6828 3.63537Z" stroke="#0C0310" stroke-width="2.4" stroke-linecap="round"/>
</svg>
