<svg width="21" height="15" viewBox="0 0 21 15" fill="none" xmlns="http://www.w3.org/2000/svg">
<path d="M10.5 14.4688C13.2183 14.4688 15.6608 13.3351 17.4187 11.934C18.2991 11.2323 19.0201 10.454 19.5252 9.69822C20.0219 8.95503 20.3438 8.18209 20.3438 7.5C20.3438 6.81791 20.0219 6.04497 19.5252 5.30178C19.0201 4.54596 18.2991 3.76766 17.4187 3.06603C15.6608 1.66493 13.2183 0.53125 10.5 0.53125C7.78175 0.53125 5.33917 1.66493 3.58125 3.06603C2.70094 3.76766 1.97986 4.54596 1.47478 5.30178C0.978139 6.04497 0.65625 6.81791 0.65625 7.5C0.65625 8.18209 0.978139 8.95503 1.47478 9.69822C1.97986 10.454 2.70094 11.2323 3.58125 11.934C5.33917 13.3351 7.78175 14.4688 10.5 14.4688Z" stroke="#737373" stroke-linejoin="round"/>
<path d="M13.3947 10.3947C14.1624 9.62699 14.5938 8.58573 14.5938 7.5C14.5938 6.41427 14.1624 5.37301 13.3947 4.60528C12.627 3.83755 11.5857 3.40625 10.5 3.40625C9.41427 3.40625 8.37301 3.83755 7.60528 4.60528C6.83755 5.37301 6.40625 6.41427 6.40625 7.5C6.40625 8.58573 6.83755 9.62699 7.60528 10.3947C8.37301 11.1624 9.41427 11.5938 10.5 11.5938C11.5857 11.5938 12.627 11.1624 13.3947 10.3947Z" stroke="#737373" stroke-linejoin="round"/>
</svg>
