<svg width="434" height="309" viewBox="0 0 434 309" fill="none" xmlns="http://www.w3.org/2000/svg">
<path opacity="0.5557" d="M146.471 73.9547H139.561C139.56 73.9518 139.56 73.9498 139.559 73.9468C138.754 71.0853 137.607 68.3451 136.142 65.7986L141.041 60.9311C142.708 59.2749 142.708 56.5893 141.041 54.933L132.718 46.6636C131.051 45.0074 128.348 45.0074 126.682 46.6636L121.786 51.5281C121.783 51.5261 121.781 51.5241 121.778 51.5231C119.214 50.0914 116.455 48.9518 113.574 48.151V41.2686C113.574 38.9268 111.663 37.0281 109.306 37.0281H97.5363C95.1793 37.0281 93.2682 38.9268 93.2682 41.2686V48.152C90.3892 48.9528 87.6312 50.0924 85.0692 51.5231C85.0652 51.5251 85.0623 51.5281 85.0583 51.5301L80.1602 46.6636C78.4932 45.0074 75.7902 45.0074 74.1242 46.6636L65.8012 54.933C64.1342 56.5893 64.1342 59.2749 65.8012 60.9311L70.7032 65.8016C69.2402 68.3471 68.0932 71.0863 67.2882 73.9468C67.2872 73.9498 67.2873 73.9518 67.2863 73.9547H60.3723C58.0153 73.9547 56.1042 75.8534 56.1042 78.1953V89.8895C56.1042 92.2313 58.0153 94.131 60.3723 94.131H67.2873C67.2883 94.133 67.2882 94.1359 67.2882 94.1379C68.0932 97.0232 69.2403 99.7625 70.6793 102.308L65.8012 107.155C64.1342 108.811 64.1342 111.496 65.8012 113.152L74.1242 121.421C75.7912 123.077 78.4932 123.077 80.1602 121.421L85.0592 116.554C85.0622 116.556 85.0662 116.559 85.0692 116.56C87.6312 117.99 90.3892 119.13 93.2682 119.931V126.815C93.2682 129.157 95.1793 131.056 97.5363 131.056H109.306C111.663 131.056 113.574 129.157 113.574 126.815V119.932C116.455 119.131 119.214 117.991 121.778 116.56C121.781 116.559 121.783 116.557 121.785 116.556L126.682 121.421C128.349 123.077 131.051 123.077 132.718 121.421L141.041 113.153C142.708 111.496 142.708 108.811 141.041 107.155L136.166 102.311C137.606 99.7645 138.753 97.0232 139.559 94.1379C139.56 94.1359 139.56 94.133 139.561 94.131H146.471C148.828 94.131 150.739 92.2323 150.739 89.8895V78.1953C150.739 75.8544 148.828 73.9547 146.471 73.9547ZM103.411 101.345C93.7883 101.345 85.9962 93.5795 85.9962 84.0424C85.9962 74.5052 93.7873 66.7643 103.411 66.7643C113.034 66.7643 120.801 74.5052 120.801 84.0424C120.801 93.5795 113.034 101.345 103.411 101.345Z" fill="#FFD878"/>
<path opacity="0.1879" d="M416.041 167.372H409.131C409.13 167.369 409.13 167.367 409.129 167.364C408.324 164.503 407.176 161.763 405.712 159.216L410.611 154.349C412.278 152.692 412.278 150.007 410.611 148.351L402.288 140.081C400.621 138.425 397.918 138.425 396.252 140.081L391.356 144.946C391.353 144.945 391.351 144.943 391.348 144.941C388.784 143.509 386.025 142.368 383.144 141.568V134.686C383.144 132.343 381.233 130.445 378.876 130.445H367.106C364.749 130.445 362.838 132.343 362.838 134.686V141.569C359.959 142.37 357.201 143.51 354.639 144.941C354.635 144.943 354.632 144.946 354.628 144.948L349.73 140.081C348.063 138.425 345.36 138.425 343.694 140.081L335.371 148.351C333.704 150.007 333.704 152.692 335.371 154.349L340.273 159.219C338.81 161.765 337.663 164.504 336.858 167.364C336.857 167.367 336.857 167.369 336.856 167.372H329.941C327.584 167.372 325.673 169.271 325.673 171.613V183.307C325.673 185.649 327.584 187.547 329.941 187.547H336.856C336.857 187.549 336.857 187.551 336.858 187.554C337.663 190.44 338.81 193.179 340.249 195.724L335.371 200.571C333.704 202.227 333.704 204.913 335.371 206.568L343.694 214.838C345.361 216.494 348.064 216.494 349.73 214.838L354.629 209.97C354.633 209.972 354.636 209.974 354.639 209.976C357.201 211.407 359.959 212.546 362.838 213.347V220.232C362.838 222.574 364.749 224.472 367.106 224.472H378.876C381.234 224.472 383.144 222.573 383.144 220.232V213.348C386.025 212.547 388.784 211.408 391.348 209.976C391.351 209.975 391.353 209.973 391.355 209.972L396.252 214.838C397.919 216.494 400.621 216.494 402.288 214.838L410.611 206.569C412.278 204.913 412.278 202.227 410.611 200.571L405.736 195.727C407.176 193.181 408.323 190.44 409.129 187.553C409.129 187.551 409.13 187.549 409.131 187.546H416.041C418.399 187.546 420.309 185.648 420.309 183.306V171.612C420.309 169.271 418.398 167.372 416.041 167.372ZM372.981 194.763C363.358 194.763 355.566 186.997 355.566 177.46C355.566 167.923 363.358 160.182 372.981 160.182C382.604 160.182 390.371 167.923 390.371 177.46C390.371 186.996 382.604 194.763 372.981 194.763Z" fill="#1D4AA3"/>
<path opacity="0.1879" d="M194.906 22.8638H190.627C190.627 22.8618 190.626 22.8608 190.626 22.8588C190.127 21.0873 189.417 19.3903 188.51 17.8135L191.543 14.8001C192.575 13.7747 192.575 12.1125 191.543 11.0861L186.39 5.96633C185.358 4.94097 183.684 4.94097 182.652 5.96633L179.621 8.9788C179.621 8.9788 179.618 8.97681 179.616 8.97582C178.029 8.08956 176.32 7.38315 174.536 6.88736V2.62598C174.536 1.17538 173.353 0 171.893 0H164.605C163.145 0 161.962 1.17538 161.962 2.62598V6.88835C160.179 7.38414 158.472 8.08956 156.885 8.97582C156.883 8.97681 156.881 8.9788 156.878 8.97979L153.845 5.96633C152.813 4.94097 151.14 4.94097 150.107 5.96633L144.954 11.0861C143.922 12.1115 143.922 13.7747 144.954 14.8001L147.989 17.8155C147.083 19.3923 146.373 21.0883 145.874 22.8588C145.874 22.8608 145.873 22.8618 145.873 22.8638H141.592C140.132 22.8638 138.949 24.0392 138.949 25.4898V32.7309C138.949 34.1814 140.132 35.3568 141.592 35.3568H145.873L145.874 35.3608C146.373 37.1472 147.082 38.8432 147.974 40.419L144.954 43.4196C143.922 44.4449 143.922 46.1072 144.954 47.1325L150.107 52.2523C151.139 53.2777 152.813 53.2777 153.845 52.2523L156.878 49.2389C156.88 49.2399 156.882 49.2418 156.884 49.2428C158.47 50.1291 160.178 50.8345 161.961 51.3293V55.5917C161.961 57.0423 163.144 58.2177 164.604 58.2177H171.892C173.352 58.2177 174.535 57.0423 174.535 55.5917V51.3303C176.319 50.8345 178.027 50.1281 179.615 49.2418C179.617 49.2408 179.619 49.2389 179.619 49.2389L182.651 52.2513C183.683 53.2767 185.356 53.2767 186.389 52.2513L191.542 47.1315C192.574 46.1062 192.574 44.4429 191.542 43.4176L188.524 40.419C189.415 38.8422 190.126 37.1452 190.624 35.3588L190.625 35.3548H194.904C196.364 35.3548 197.547 34.1795 197.547 32.7289V25.4878C197.549 24.0392 196.366 22.8638 194.906 22.8638ZM168.245 39.8229C162.287 39.8229 157.462 35.015 157.462 29.1093C157.462 23.2046 162.286 18.4117 168.245 18.4117C174.203 18.4117 179.012 23.2046 179.012 29.1093C179.013 35.014 174.204 39.8229 168.245 39.8229Z" fill="#1D4AA3"/>
<path opacity="0.2629" d="M433.509 289.265C433.509 299.82 336.475 308.375 216.776 308.375C97.0773 308.375 -2.37675 299.616 0.0432528 289.265C1.91625 281.254 97.3283 270.494 216.776 270.154C336.474 269.812 433.509 278.71 433.509 289.265Z" fill="#C1C1C1"/>
<path d="M215.796 276.118C284.361 276.118 339.943 220.894 339.943 152.771C339.943 84.6479 284.361 29.4233 215.796 29.4233C147.232 29.4233 91.6493 84.6479 91.6493 152.771C91.6493 220.894 147.232 276.118 215.796 276.118Z" fill="#1D4AA3"/>
<path d="M215.796 276.118C284.361 276.118 339.943 220.894 339.943 152.771C339.943 84.6479 284.361 29.4233 215.796 29.4233C147.232 29.4233 91.6493 84.6479 91.6493 152.771C91.6493 220.894 147.232 276.118 215.796 276.118Z" fill="#1D4AA3"/>
<path opacity="0.2587" d="M215.796 261.898C280.952 261.898 333.77 211.229 333.77 148.727C333.77 86.2248 280.952 35.5566 215.796 35.5566C150.641 35.5566 97.8223 86.2248 97.8223 148.727C97.8223 211.229 150.641 261.898 215.796 261.898Z" stroke="#1D4AA3" stroke-width="3" stroke-miterlimit="10"/>
<path opacity="0.2587" d="M339.938 152.775C339.938 220.893 284.358 276.115 215.798 276.115C147.228 276.115 91.6482 220.893 91.6482 152.775C91.6482 150.39 91.7182 148.016 91.8482 145.661C95.5582 210.481 149.628 261.898 215.798 261.898C281.958 261.898 336.028 210.481 339.738 145.661C339.868 148.016 339.938 150.39 339.938 152.775Z" fill="#1D4AA3"/>
<path d="M323.162 174.08C336.719 117.889 300.068 60.9904 241.299 46.9933C182.53 32.9961 123.898 67.2011 110.341 123.392C96.7836 179.583 133.435 236.482 192.204 250.479C250.973 264.477 309.605 230.272 323.162 174.08Z" fill="white"/>
<path opacity="0.1879" d="M253.105 157.345C257.732 138.165 245.222 118.744 225.162 113.967C205.103 109.19 185.09 120.866 180.463 140.046C175.836 159.226 188.346 178.647 208.406 183.424C228.465 188.201 248.478 176.525 253.105 157.345Z" fill="#1D4AA3"/>
<path opacity="0.1879" d="M236.428 153.419C238.936 143.025 232.156 132.501 221.286 129.912C210.416 127.323 199.571 133.649 197.063 144.043C194.555 154.437 201.335 164.961 212.205 167.55C223.075 170.139 233.92 163.812 236.428 153.419Z" fill="#1D4AA3"/>
<path d="M325.978 149.645C326.498 207.56 278.018 254.088 217.708 253.571C179.628 253.254 145.928 234.257 126.138 205.712C145.068 220.585 169.148 229.607 195.288 229.825C255.598 230.342 304.078 183.814 303.558 125.909C303.368 104.567 296.548 84.6464 284.978 67.9844C309.728 87.4085 325.688 116.838 325.978 149.645Z" fill="#EFEFEF"/>
<path d="M215.812 52.9668V66.5428" stroke="#535AE7" stroke-width="2.8877" stroke-miterlimit="10" stroke-linecap="round" stroke-linejoin="round"/>
<path d="M215.812 224.208V237.784" stroke="#535AE7" stroke-width="2.8877" stroke-miterlimit="10" stroke-linecap="round" stroke-linejoin="round"/>
<path d="M316.193 145.375H301.446" stroke="#535AE7" stroke-width="2.8877" stroke-miterlimit="10" stroke-linecap="round" stroke-linejoin="round"/>
<path d="M130.178 145.375H115.431" stroke="#535AE7" stroke-width="2.8877" stroke-miterlimit="10" stroke-linecap="round" stroke-linejoin="round"/>
<path d="M268.046 224.287L260.372 212.695" stroke="#535AE7" stroke-width="2.8877" stroke-miterlimit="10" stroke-linecap="round" stroke-linejoin="round"/>
<path d="M171.252 78.0563L163.578 66.4624" stroke="#535AE7" stroke-width="2.8877" stroke-miterlimit="10" stroke-linecap="round" stroke-linejoin="round"/>
<path d="M301.887 192.922L289.241 185.937" stroke="#535AE7" stroke-width="2.8877" stroke-miterlimit="10" stroke-linecap="round" stroke-linejoin="round"/>
<path d="M142.383 104.814L129.738 97.8291" stroke="#535AE7" stroke-width="2.8877" stroke-miterlimit="10" stroke-linecap="round" stroke-linejoin="round"/>
<path d="M130.092 193.46L142.685 186.396" stroke="#535AE7" stroke-width="2.8877" stroke-miterlimit="10" stroke-linecap="round" stroke-linejoin="round"/>
<path d="M288.94 104.355L301.533 97.2905" stroke="#535AE7" stroke-width="2.8877" stroke-miterlimit="10" stroke-linecap="round" stroke-linejoin="round"/>
<path d="M164.164 224.613L171.751 212.973" stroke="#535AE7" stroke-width="2.8877" stroke-miterlimit="10" stroke-linecap="round" stroke-linejoin="round"/>
<path d="M259.873 77.778L267.461 66.1375" stroke="#535AE7" stroke-width="2.8877" stroke-miterlimit="10" stroke-linecap="round" stroke-linejoin="round"/>
<path d="M215.795 105.938V152.837" stroke="#515151" stroke-width="3" stroke-miterlimit="10" stroke-linecap="round" stroke-linejoin="round"/>
<path d="M270.38 93.5944L277.593 91.35C278.453 91.0827 279.241 91.9253 278.909 92.7579L276.144 99.6959C275.855 100.42 274.906 100.601 274.368 100.034L269.92 95.3401C269.378 94.7678 269.625 93.8299 270.38 93.5944Z" fill="#515151"/>
<path d="M273.562 96.0247L215.812 152.701" stroke="#515151" stroke-width="3" stroke-miterlimit="10" stroke-linecap="round" stroke-linejoin="round"/>
<path d="M211.585 107.268L214.885 100.512C215.278 99.7059 216.436 99.7138 216.818 100.525L220.006 107.281C220.339 107.986 219.821 108.797 219.036 108.797H212.548C211.758 108.797 211.24 107.974 211.585 107.268Z" fill="#515151"/>
<path d="M260.556 111.259C257.139 110.565 253.17 110.895 249.888 112.067C248.309 112.63 246.581 113.74 246.591 115.406C246.597 116.489 247.403 117.449 248.381 117.928C249.359 118.407 250.483 118.487 251.574 118.484C255.733 118.475 259.884 117.364 263.485 115.297" fill="#F7C894"/>
<path d="M258.883 116.054C258.619 116.276 258.323 116.396 258.032 116.581C257.696 116.794 257.376 117.031 257.057 117.267C256.706 117.526 256.353 117.787 256.055 118.105C255.674 118.511 255.281 118.841 255.228 119.419C255.121 120.581 257.119 119.989 257.708 119.828C259.366 119.376 261.072 118.941 262.572 118.08C263.177 117.733 263.836 117.314 264.299 116.79" fill="#F7C894"/>
<path d="M385.253 105.74C385.033 107.747 385.133 110.29 384.283 112.128C383.803 113.182 382.813 114.086 381.653 114.135C379.913 114.205 378.703 112.496 377.123 111.761C373.683 110.181 369.583 113.579 365.983 112.407C363.633 111.632 362.323 109.177 361.463 106.882C360.593 104.577 359.823 102.054 357.883 100.534C356.683 99.5896 355.173 99.1723 353.743 98.6159C353.023 98.3278 352.323 98.0198 351.683 97.5926C349.233 95.9432 348.173 92.8632 347.923 89.9322C347.673 87.0112 348.073 84.0503 347.803 81.1293C347.223 74.9295 343.723 69.5742 340.203 64.6262C336.953 60.0459 344.843 56.8367 347.913 54.9291C350.483 53.3295 353.643 52.5743 356.633 52.8525C358.903 53.0513 361.083 53.866 362.823 55.3563C366.883 58.8338 367.583 64.7355 367.863 70.0511C368.143 75.3666 368.513 76.8272 372.183 80.712C374.683 83.3549 378.443 84.4676 380.853 87.1403C383.873 90.4787 385.283 94.7212 385.503 99.1525C385.623 101.348 385.483 103.554 385.253 105.74Z" fill="#684D3A"/>
<path d="M334.836 233.408C361.685 225.462 364.676 186.888 364.676 186.888L332.92 186.812L301.164 186.737C301.164 186.737 303.958 225.324 330.766 233.398C303.917 241.345 300.926 279.919 300.926 279.919L332.682 279.994L364.438 280.07C364.438 280.07 361.644 241.482 334.836 233.408Z" fill="#F3ECDC"/>
<path d="M331.928 253.204C332.737 253.21 333.61 250.181 331.928 253.204C307.949 257.286 305.149 277.161 305.149 277.161L332.948 276.217L360.421 276.716C360.422 276.716 359.771 255.717 331.928 253.204Z" fill="#FFD878"/>
<path d="M372.01 185.162C371.508 186.267 370.325 186.908 369.106 186.905L301.664 186.737C295.855 186.723 294.551 185.46 294.555 183.905C294.559 182.35 295.87 181.093 297.483 181.097L369.338 181.267C370.951 181.271 372.255 182.534 372.251 184.089C372.249 184.478 372.156 184.839 372.01 185.162Z" fill="#684B48"/>
<path d="M369.004 285.709L297.149 285.539C295.536 285.535 294.232 284.273 294.236 282.718C294.24 281.163 295.551 279.906 297.164 279.91L369.018 280.08C370.631 280.084 371.936 281.347 371.932 282.902C371.927 284.456 370.617 285.713 369.004 285.709Z" fill="#684B48"/>
<path d="M332.912 212.706L310.749 212.355C310.749 212.355 316.179 228.975 333.035 231.993C349.907 229.056 354.945 213.149 354.945 213.149L332.912 212.706Z" fill="#FFD878"/>
<path d="M333.531 258.154C333.542 257.918 333.553 257.682 333.564 257.446C333.582 257.069 333.571 257.155 333.625 256.77C333.676 256.407 333.727 256.044 333.778 255.681C333.915 254.702 333.92 253.701 333.97 252.714C334.029 251.555 334.111 250.394 334.143 249.234C334.277 244.447 334.343 239.63 334.176 234.844C334.147 234.01 334.116 233.177 334.089 232.343C334.073 231.873 334.144 231.236 333.844 230.833C333.888 230.993 333.931 231.153 333.975 231.314C333.975 231.31 333.975 231.306 333.975 231.302C333.981 230.076 332.064 230.075 332.058 231.302C332.058 231.306 332.058 231.31 332.058 231.314C332.102 231.154 332.145 230.993 332.189 230.833C331.922 231.186 331.96 231.731 331.943 232.146C331.914 232.822 331.883 233.498 331.853 234.174C331.758 236.307 331.683 238.442 331.689 240.576C331.697 243.145 331.705 245.715 331.713 248.284C331.72 250.48 331.854 252.676 331.944 254.869C331.989 255.968 332.202 257.051 332.243 258.154C332.273 258.978 333.492 258.977 333.531 258.154Z" fill="#FFD878"/>
<path d="M312.482 123.844C317.936 123.401 323.407 122.849 328.789 121.844C331.985 121.246 336.403 120.679 338.909 118.378C338.909 118.378 330.781 99.6404 330.749 99.5659C331.122 100.425 319.824 102.956 318.758 103.288C313.531 104.915 308.112 105.839 302.676 106.437C291.652 107.65 282.141 109.486 271.158 111.102C267.778 111.6 259.497 111.218 259.497 111.218C259.497 111.218 257.552 111.79 256.817 112.455C256.082 113.121 255.675 114.249 256.134 115.125C256.532 115.887 257.619 115.819 257.619 115.819C257.619 115.819 270.426 120.189 276.675 121.391C278.943 121.827 308.527 124.164 312.482 123.844Z" fill="#F7C894"/>
<path d="M326.654 120.885C325.511 122.202 323.792 122.862 322.126 123.409C321.619 123.575 321.078 123.734 320.526 123.863C308.316 126.905 285.965 122.746 285.965 122.746C285.965 122.746 286.648 118.645 287.348 114.432C287.726 112.139 288.112 109.811 288.398 108.089C301.861 107.754 316.57 101.937 329.844 99.7041C328.952 104.897 329.488 110.407 328.596 115.601C328.275 117.476 327.905 119.448 326.654 120.885Z" fill="#FFD878"/>
<path d="M289.176 108.261C287.682 107.931 286.047 107.511 285.415 108.385C284.782 109.258 284.554 117.669 284.34 120.419C284.272 121.291 284.333 122.39 285.142 122.736C286.155 123.168 287.033 122.588 288.134 122.651" fill="#FFD878"/>
<g opacity="0.5762">
<path d="M321.5 119.71C321.112 121.445 320.817 122.681 320.525 123.863C308.315 126.906 285.964 122.747 285.964 122.747C285.964 122.747 287.697 112.303 288.397 108.09C288.21 111.377 289.059 116.909 290.321 117.681C292.663 119.114 295.48 119.477 298.22 119.696C305.958 120.338 313.75 120.133 321.5 119.71Z" fill="#FFDE83"/>
</g>
<path d="M287.995 109.705C287.275 111.753 286.763 113.861 286.411 116.001C286.248 116.995 286.112 117.993 286.004 118.994C285.889 120.061 285.69 121.222 285.79 122.293C285.81 122.51 286.159 122.6 286.206 122.348C286.398 121.334 286.372 120.258 286.477 119.228C286.587 118.153 286.731 117.081 286.908 116.015C287.257 113.914 287.707 111.832 288.187 109.758C288.217 109.633 288.037 109.585 287.995 109.705Z" fill="#EFBF6C"/>
<g opacity="0.3978">
<path d="M297.494 113.143C302.194 113.108 306.89 112.626 311.499 111.715C313.851 111.25 316.181 110.674 318.477 109.987C320.261 109.454 322.449 109.221 323.642 107.733C323.738 107.614 323.837 107.485 323.851 107.333C323.87 107.122 323.72 106.934 323.562 106.791C322.931 106.222 322.057 105.975 321.205 105.948C317.466 105.822 313.299 107.025 309.596 107.554C305.497 108.139 301.399 108.726 297.3 109.311C296.628 109.407 295.938 109.508 295.349 109.845C294.76 110.181 294.29 110.811 294.349 111.483C294.407 112.131 294.945 112.66 295.554 112.9C296.164 113.14 296.838 113.147 297.494 113.143Z" fill="#FFD878"/>
</g>
<path d="M357.728 178.399C354.118 183.853 319.788 187.579 309.568 188.622C312.888 202.979 318.688 223.864 323.318 237.853C320.968 237.675 318.608 237.615 316.258 237.665C311.748 237.754 307.258 238.251 302.838 239.165C297.868 223.159 292.898 207.142 287.928 191.136C284.858 182.731 289.418 178.925 290.638 178.051C304.898 167.897 319.218 161.349 333.468 151.195L355.078 153.262L359.468 153.679C361.028 162.015 362.418 171.305 357.728 178.399Z" fill="#F4A556"/>
<g opacity="0.4182">
<path d="M357.728 178.356C354.118 183.811 319.788 187.537 309.568 188.58C312.888 202.937 318.688 223.821 323.318 237.811C320.968 237.632 319.177 237.618 319.177 237.618C319.177 237.618 309.188 206.474 305.648 190.895C305.368 189.653 305.098 188.302 305.618 187.139C306.178 185.897 307.498 185.192 308.728 184.615C314.656 181.838 339.346 176.788 344.266 173.455C347.099 171.535 348.995 168.531 349.965 165.303C350.289 164.224 351.199 154.256 351.248 154.243L355.078 153.22L359.468 153.637C361.028 161.971 362.418 171.261 357.728 178.356Z" fill="#D68741"/>
</g>
<path d="M335.31 174.008C329.382 182.473 287.339 186.269 287.339 186.269L292.259 227.181L281.878 231.138L269.972 235.674C269.972 235.674 265.691 196.553 264.619 178.29C264.311 173.049 267.705 168.302 272.783 166.851L315.368 154.676L342.475 161.094C342.263 163.117 339.431 168.124 335.31 174.008Z" fill="#F4A556"/>
<path d="M343.475 101.787C341.393 102.473 338.054 105.684 336.012 104.828C334.263 104.094 334.287 102.504 334.047 100.703C334.019 100.494 333.818 96.9607 333.799 96.7312C333.758 96.1877 333.711 95.6423 333.67 95.0988C333.673 95.0918 333.666 95.0889 333.669 95.0819C333.438 92.1906 333.214 89.3034 332.983 86.4121C332.986 86.4051 332.986 86.4051 332.989 86.3982C332.98 86.3286 332.97 86.2581 332.968 86.1915C332.961 86.0981 332.958 86.0147 332.958 85.9243C332.956 85.2029 333.199 84.569 333.674 83.9928C334.196 83.348 334.926 82.8889 335.698 82.572C336.962 82.0384 338.367 81.8805 339.725 82.0623C340.991 82.2342 342.208 82.6942 343.249 83.4423C343.289 83.4612 343.324 83.493 343.361 83.5178C344.145 84.0991 344.753 83.0429 344.85 84.0216C344.952 85.1334 345.058 86.2382 345.16 87.35C345.228 88.0862 345.3 88.8314 345.368 89.5667C345.488 90.8752 345.611 92.1767 345.731 93.4853C345.747 93.6313 345.758 93.7684 345.774 93.9145C345.889 95.1604 346.313 97.0819 346.269 98.4689C346.225 99.856 345.712 100.707 344.343 101.422C344.068 101.568 343.778 101.688 343.475 101.787Z" fill="#F7C894"/>
<path opacity="0.301" d="M346.269 98.4679C346.222 99.8529 345.713 100.714 344.347 101.426C344.064 101.566 343.782 101.688 343.471 101.79C343.443 101.799 343.424 101.809 343.396 101.809C343.829 101.276 344.018 100.649 344.046 99.834C344.093 98.449 343.669 96.5295 343.556 95.2845C343.537 95.1345 343.528 95.0033 343.509 94.8543C343.387 93.5438 343.264 92.2423 343.142 90.9327C343.076 90.2025 343.01 89.4533 342.935 88.7141C342.831 87.6093 342.728 86.5054 342.624 85.3916C342.53 84.409 341.918 85.4662 341.136 84.8859C341.098 84.8581 341.07 84.8293 341.023 84.8114C339.987 84.0623 338.771 83.6042 337.5 83.4264C336.275 83.2674 335.022 83.3797 333.854 83.791C334.353 83.2485 335.013 82.8551 335.7 82.5739C336.963 82.0404 338.366 81.8814 339.723 82.0593C340.995 82.2371 342.21 82.6961 343.246 83.4443C343.293 83.4632 343.321 83.491 343.359 83.5188C344.141 84.099 344.753 83.0419 344.848 84.0245C344.952 85.1383 345.055 86.2431 345.159 87.347C345.234 88.0862 345.3 88.8353 345.366 89.5656C345.488 90.8761 345.611 92.1767 345.734 93.4872C345.753 93.6372 345.762 93.7684 345.772 93.9174C345.893 95.1643 346.316 97.0829 346.269 98.4679Z" fill="#F7C894"/>
<path d="M360.374 136.298C360.471 143.119 360.815 150.385 360.771 155.21C360.762 155.963 360.683 156.795 360.145 157.337C359.845 157.643 359.422 157.81 359.008 157.959C356.946 158.713 323.212 158.756 315.572 157.898C315.228 157.854 314.849 157.801 314.559 157.643C314.409 157.565 314.277 157.46 314.18 157.311C314.136 157.24 314.092 157.162 314.074 157.083C313.959 156.777 313.995 156.417 314.039 156.085C314.756 150.673 314.847 145.206 315.298 139.771C315.751 134.31 316.851 128.961 317.942 123.597C318.689 119.893 319.44 116.173 320.715 112.613C321.989 109.053 323.816 105.635 326.473 102.932C327.622 101.764 328.91 100.739 330.217 99.7527C331.384 98.8714 332.651 98.9141 334.074 98.627C334.173 98.6071 334.096 100.14 334.299 100.682C334.814 102.062 336.373 102.852 337.854 102.86C339.335 102.866 340.745 102.237 342.025 101.496C343.281 100.77 344.467 99.9265 345.563 98.9787C347.512 97.2936 350.284 99.4407 351.948 100.682C354.013 102.222 355.749 104.203 356.968 106.467C358.367 109.066 359.087 111.967 359.697 114.853C360.081 116.67 360.32 132.659 360.374 136.298Z" fill="#FFD878"/>
<path d="M352.712 79.9579C352.728 90.2095 346.639 94.4043 338.627 94.8087C330.838 95.2051 326.362 91.6928 324.279 86.8324C323.816 85.7623 323.473 84.6286 323.234 83.4543C323.066 82.5978 322.947 81.7175 322.883 80.8303C322.245 71.9975 329.746 66.1941 337.766 65.9557C345.785 65.7172 352.704 69.3805 352.712 79.9579Z" fill="#F7C894"/>
<path opacity="0.301" d="M352.713 79.9539C352.723 90.2035 346.637 94.4062 338.629 94.8086C333.495 95.0709 329.802 93.6293 327.286 91.2328C329.528 92.4211 332.373 93.0391 335.897 92.8613C343.914 92.4589 350 88.2561 349.991 78.0065C349.991 73.2325 348.578 69.8722 346.279 67.6357C350.122 69.6109 352.704 73.4858 352.713 79.9539Z" fill="#F7C894"/>
<path d="M337.131 81.4958C337.113 80.9365 337.25 80.3254 337.614 79.9369C337.852 79.6816 338.194 79.5176 338.541 79.5375C338.704 79.5465 338.864 79.5961 339.012 79.6687C339.346 79.8336 339.617 80.1257 339.759 80.4745C340.148 81.4243 339.701 82.7646 338.619 82.9504C337.95 83.0656 337.317 82.6285 337.184 81.9578C337.154 81.8118 337.136 81.6558 337.131 81.4958Z" fill="#38302A"/>
<path d="M338.471 81.2226C338.449 81.0398 338.445 80.852 338.556 80.696C338.622 80.6026 338.726 80.534 338.839 80.5261C338.892 80.5221 338.946 80.5311 338.998 80.5479C339.114 80.5867 339.214 80.6702 339.276 80.7765C339.444 81.0676 339.359 81.5226 339.016 81.6299C338.856 81.6806 338.664 81.6269 338.565 81.4898C338.508 81.4133 338.482 81.318 338.471 81.2226Z" fill="white"/>
<path d="M327.973 81.7651C327.957 81.2058 327.784 80.6037 327.398 80.238C327.145 79.9976 326.794 79.8535 326.449 79.8933C326.286 79.9122 326.13 79.9708 325.987 80.0523C325.664 80.2371 325.41 80.5441 325.289 80.8998C324.958 81.8705 325.483 83.182 326.575 83.3042C327.25 83.3797 327.856 82.9058 327.949 82.2291C327.969 82.0821 327.977 81.9251 327.973 81.7651Z" fill="#38302A"/>
<path d="M327.588 81.4989C327.599 81.3151 327.592 81.1273 327.472 80.9783C327.4 80.8888 327.293 80.8272 327.179 80.8253C327.125 80.8243 327.072 80.8362 327.022 80.857C326.909 80.9027 326.813 80.9912 326.758 81.1015C326.608 81.4025 326.72 81.8506 327.069 81.938C327.231 81.9788 327.42 81.9142 327.511 81.7721C327.562 81.6906 327.582 81.5943 327.588 81.4989Z" fill="white"/>
<path d="M326.689 85.0239C326.721 85.9281 325.652 86.705 324.279 86.8322C323.816 85.7622 323.473 84.6285 323.234 83.4541C323.457 83.4064 323.697 83.3746 323.944 83.3667C325.436 83.319 326.665 84.0562 326.689 85.0239Z" fill="#F2AF6B"/>
<path d="M344.632 83.8485C344.657 84.8093 343.467 85.628 341.973 85.6777C340.479 85.7264 339.248 84.9882 339.223 84.0274C339.198 83.0666 340.388 82.2479 341.882 82.1992C343.375 82.1486 344.606 82.8878 344.632 83.8485Z" fill="#F2AF6B"/>
<path d="M335.607 85.9959C335.557 86.28 335.499 86.5592 335.425 86.8315C335.417 86.8623 335.408 86.898 335.4 86.9288C335.392 86.9348 335.392 86.9407 335.392 86.9407C335.392 86.9586 335.384 86.9835 335.384 87.0014C335.376 87.0133 335.376 87.0192 335.367 87.0252C335.342 87.0977 335.317 87.1703 335.284 87.2487C335.251 87.3272 335.226 87.3998 335.185 87.4792C334.936 87.9452 334.522 88.3814 333.933 88.6179C333.228 88.902 332.407 88.9269 331.67 88.6904C331.347 88.5811 331.065 88.442 330.841 88.2781C330.741 88.2115 330.65 88.139 330.576 88.0605C330.543 88.0297 330.51 87.9999 330.485 87.9701C330.394 87.8856 330.319 87.7942 330.253 87.7038C330.22 87.6551 330.195 87.6134 330.17 87.5707C330.153 87.5468 330.137 87.522 330.128 87.5041C330.086 87.4375 330.053 87.365 330.02 87.2984C329.771 86.7112 329.796 86.1419 329.804 85.8806C329.796 85.7713 329.92 85.6869 330.061 85.6809C331.827 85.6928 333.51 85.6322 335.267 85.6441C335.342 85.6441 335.433 85.6441 335.499 85.6749C335.631 85.7415 335.623 85.8866 335.607 85.9959Z" fill="#664238"/>
<path d="M331.553 80.0999C331.458 80.7219 331.333 81.3369 331.205 81.9529C331.153 82.2053 331.021 82.4974 331.152 82.7408C331.212 82.8521 331.295 82.9683 331.389 83.0548C331.474 83.1343 331.591 83.178 331.667 83.2654C331.771 83.3856 331.96 83.2316 331.883 83.0995C331.833 83.013 331.763 82.9673 331.687 82.9067C331.591 82.8292 331.508 82.7269 331.444 82.6216C331.371 82.5004 331.427 82.3702 331.453 82.2381C331.482 82.091 331.51 81.943 331.537 81.7949C331.636 81.2435 331.704 80.6841 331.769 80.1287C331.783 80.0075 331.571 79.9777 331.553 80.0999Z" fill="#664238"/>
<path d="M349.307 82.0374C349.354 83.6142 350.678 84.8541 352.265 84.8074C353.852 84.7607 355.1 83.4453 355.053 81.8685C355.006 80.2917 353.682 79.0517 352.095 79.0984C350.508 79.1451 349.26 80.4606 349.307 82.0374Z" fill="#F7C894"/>
<path opacity="0.301" d="M349.307 82.0374C349.354 83.6142 350.678 84.8541 352.265 84.8074C353.852 84.7607 355.1 83.4453 355.053 81.8685C355.006 80.2917 353.682 79.0517 352.095 79.0984C350.508 79.1451 349.26 80.4606 349.307 82.0374Z" fill="#F7C894"/>
<path d="M352.642 80.8928C352.824 81.1362 352.936 81.4164 352.981 81.7165C353.002 81.8546 353.002 81.9966 352.99 82.1348C352.977 82.2748 352.963 82.4279 352.928 82.5729C352.903 82.6743 352.96 82.7826 353.064 82.8104C353.175 82.8412 353.263 82.7726 353.303 82.6753C353.37 82.5113 353.418 82.3404 353.419 82.1626C353.42 81.9837 353.397 81.8029 353.353 81.629C353.268 81.2942 353.086 80.9852 352.842 80.7398C352.743 80.6414 352.554 80.7746 352.642 80.8928Z" fill="#F2AF6B"/>
<path d="M339.981 77.5237C339.612 77.2812 339.184 77.1471 338.741 77.1352C338.308 77.1242 337.841 77.2127 337.485 77.469C337.414 77.5197 337.378 77.6002 337.414 77.6846C337.444 77.7562 337.539 77.8168 337.619 77.785C337.974 77.6419 338.336 77.5286 338.723 77.5316C339.102 77.5346 339.482 77.627 339.812 77.8118C340.002 77.9181 340.161 77.6419 339.981 77.5237Z" fill="#F2AF6B"/>
<path d="M328.035 77.3686C327.666 77.1262 327.238 76.9921 326.795 76.9801C326.362 76.9692 325.894 77.0586 325.539 77.314C325.468 77.3646 325.432 77.4451 325.468 77.5296C325.498 77.6011 325.593 77.6617 325.673 77.6299C326.028 77.4868 326.39 77.3726 326.777 77.3765C327.156 77.3795 327.536 77.4719 327.866 77.6567C328.055 77.7631 328.214 77.4868 328.035 77.3686Z" fill="#F2AF6B"/>
<path d="M352.673 79.1084C352.131 78.9226 351.579 78.8521 351.022 79.019C350.555 79.1591 350.013 79.4631 349.792 79.9142C349.674 80.1546 349.95 80.3523 350.153 80.1904C350.321 80.0573 350.465 79.8943 350.641 79.7711C350.805 79.6559 350.984 79.5525 351.172 79.481C351.615 79.3131 352.138 79.2525 352.594 79.3956C352.778 79.4552 352.854 79.171 352.673 79.1084Z" fill="#F2AF6B"/>
<path d="M350.709 84.429C350.905 84.5859 351.107 84.7211 351.346 84.8035C351.45 84.8393 351.557 84.8671 351.666 84.884C351.736 84.8949 351.804 84.9029 351.875 84.8999C351.947 84.8969 352.013 84.8741 352.081 84.8502C352.236 84.7946 352.25 84.573 352.081 84.5233C352.032 84.5084 351.983 84.4876 351.933 84.4776C351.868 84.4647 351.801 84.4568 351.736 84.4508C351.71 84.4478 351.71 84.4478 351.735 84.4508C351.722 84.4488 351.709 84.4468 351.695 84.4448C351.669 84.4409 351.642 84.4359 351.616 84.4299C351.567 84.42 351.518 84.4071 351.47 84.3932C351.422 84.3793 351.375 84.3624 351.328 84.3455C351.303 84.3366 351.278 84.3276 351.253 84.3187C351.247 84.3167 351.177 84.2889 351.209 84.3018C351.109 84.26 351.018 84.2074 350.931 84.1438C350.859 84.0911 350.745 84.1249 350.696 84.1905C350.646 84.2571 350.637 84.3723 350.709 84.429Z" fill="#F2AF6B"/>
<path d="M342.189 94.5452C340.775 94.7648 339.339 94.8413 337.909 94.7946C337.18 94.7708 336.451 94.7112 335.729 94.6128C335.083 94.5244 334.42 94.3147 333.769 94.2998C333.587 94.2959 333.49 94.579 333.671 94.6595C334.277 94.9298 335.013 94.9834 335.666 95.0689C336.41 95.1652 337.158 95.2229 337.909 95.2398C339.375 95.2715 340.833 95.1215 342.271 94.8384C342.466 94.7996 342.38 94.5154 342.189 94.5452Z" fill="#F2AF6B"/>
<path d="M335.424 86.8315C335.416 86.8623 335.407 86.898 335.399 86.9288C335.391 86.9348 335.391 86.9408 335.391 86.9408C335.391 86.9587 335.383 86.9835 335.383 87.0014C335.375 87.0133 335.375 87.0193 335.366 87.0252C335.341 87.0977 335.316 87.1703 335.283 87.2488C335.25 87.3273 335.225 87.3998 335.184 87.4793C334.935 87.9453 334.521 88.3814 333.932 88.6179C333.227 88.9021 332.406 88.9269 331.669 88.6904C331.346 88.5811 331.064 88.442 330.84 88.2781C330.74 88.2115 330.649 88.139 330.575 88.0605C330.542 88.0297 330.509 87.9999 330.484 87.9701C331.122 87.3402 332.258 86.9338 333.435 86.8136C334.098 86.747 334.769 86.7589 335.424 86.8315Z" fill="#CB7252"/>
<g opacity="0.5762">
<path d="M308.661 157.994C308.961 158.196 309.26 158.397 309.569 158.58L309.393 158.642C309.146 158.432 308.899 158.214 308.661 157.994Z" fill="#FFDE83"/>
</g>
<g opacity="0.5762">
<path d="M360.61 155.21C360.601 155.963 360.522 156.795 359.984 157.337C359.684 157.643 359.261 157.81 358.847 157.959C356.785 158.712 323.051 158.756 315.411 157.898C315.067 157.854 314.688 157.801 314.398 157.643C314.248 157.565 314.116 157.459 314.019 157.31C313.975 157.24 313.931 157.161 313.913 157.083C317.235 156.033 320.76 155.604 324.241 155.822C325.413 155.901 326.603 156.041 327.757 155.804C329.546 155.437 331.017 154.185 332.701 153.484C335.459 152.338 338.57 152.713 341.549 152.486C344.413 152.276 347.251 151.47 349.727 150.017C352.882 148.161 355.349 145.306 357.244 142.189C358.39 140.307 359.341 138.32 360.214 136.297C360.311 143.118 360.655 150.386 360.61 155.21Z" fill="#FFDE83"/>
</g>
<path d="M333.321 150.146C336.818 149.836 340.218 148.995 343.442 147.609C346.633 146.238 349.887 144.377 352.273 141.83C352.364 141.734 352.241 141.55 352.123 141.637C349.362 143.687 346.648 145.661 343.487 147.077C340.279 148.514 336.82 149.456 333.321 149.824C333.116 149.846 333.112 150.165 333.321 150.146Z" fill="#EFBF6C"/>
<path d="M344.872 149.296C346.397 149.147 347.901 148.568 349.001 147.487C349.114 147.377 348.96 147.161 348.826 147.262C347.662 148.137 346.331 148.803 344.871 148.997C344.685 149.022 344.677 149.315 344.872 149.296Z" fill="#EFBF6C"/>
<path d="M291.356 220.808C292.009 219.947 292.776 228.159 293.23 231.503C293.366 232.508 293.481 233.556 293.183 234.52C292.773 235.843 291.666 236.763 290.585 237.546C286.469 240.525 281.901 242.713 277.307 244.744C271.622 247.256 265.772 249.575 259.65 250.239C258.399 250.374 256.982 250.381 256.075 249.451C255.112 248.464 255.136 246.74 255.766 245.483C256.396 244.226 268.107 229.29 268.841 228.92C269.97 228.351 272.909 227.93 274.133 227.666C274.133 227.666 288.232 224.923 291.356 220.808Z" fill="#38302A"/>
<g opacity="0.6">
<path d="M293.176 234.523C292.771 235.846 291.66 236.765 290.576 237.544C286.461 240.52 281.896 242.709 277.305 244.741C271.612 247.254 265.77 249.575 259.645 250.239C258.393 250.37 256.975 250.379 256.067 249.451C255.106 248.462 255.133 246.737 255.759 245.485C255.838 245.327 256.094 244.951 256.482 244.417C256.579 244.925 256.799 245.398 257.161 245.774C258.069 246.702 259.487 246.693 260.739 246.562C266.864 245.896 272.715 243.576 278.399 241.064C282.99 239.033 287.555 236.852 291.679 233.866C292.261 233.446 292.86 232.982 293.336 232.431C293.397 233.14 293.388 233.858 293.176 234.523Z" fill="#38302A"/>
</g>
<g opacity="0.3841">
<path d="M269.104 230.806C272.687 230.811 276.234 230.298 279.719 229.476C281.438 229.07 283.133 228.569 284.8 227.99C285.67 227.688 286.532 227.364 287.385 227.019C288.143 226.712 289.044 226.424 289.659 225.874C289.922 225.639 289.731 225.077 289.347 225.127C288.529 225.233 287.738 225.674 286.979 225.984C286.162 226.318 285.337 226.632 284.504 226.926C282.876 227.501 281.219 227.995 279.545 228.423C276.125 229.296 272.614 229.796 269.103 230.135C268.68 230.176 268.661 230.805 269.104 230.806Z" fill="#38302A"/>
</g>
<g opacity="0.3841">
<path d="M276.631 232.407C277.886 232.238 279.154 232.099 280.394 231.838C281.631 231.578 282.82 231.24 283.982 230.739C284.411 230.554 284.082 229.969 283.685 230.038C281.238 230.462 278.862 231.222 276.405 231.588C275.859 231.67 276.096 232.479 276.631 232.407Z" fill="#38302A"/>
</g>
<path d="M320.955 230.408C321.555 229.511 324.397 237.729 325.053 241.039C325.25 242.033 325.429 243.074 325.189 244.053C324.86 245.4 323.811 246.384 322.78 247.23C318.852 250.45 314.426 252.908 309.963 255.211C304.441 258.061 298.743 260.726 292.672 261.756C291.431 261.966 290.017 262.058 289.055 261.183C288.034 260.255 287.953 258.534 288.506 257.241C289.058 255.948 299.84 240.337 300.55 239.924C301.643 239.288 304.55 238.691 305.756 238.354C305.756 238.354 318.087 234.703 320.955 230.408Z" fill="#38302A"/>
<g opacity="0.6">
<path d="M325.183 244.057C324.859 245.402 323.806 246.385 322.772 247.229C318.845 250.447 314.422 252.906 309.962 255.209C304.432 258.059 298.741 260.725 292.669 261.758C291.428 261.964 290.012 262.058 289.05 261.185C288.031 260.255 287.953 258.533 288.501 257.245C288.571 257.083 288.803 256.691 289.157 256.135C289.285 256.636 289.533 257.095 289.917 257.45C290.879 258.322 292.295 258.228 293.536 258.022C299.609 256.991 305.309 254.323 310.83 251.473C315.289 249.17 319.713 246.72 323.648 243.492C324.203 243.038 324.773 242.538 325.214 241.959C325.319 242.663 325.354 243.381 325.183 244.057Z" fill="#38302A"/>
</g>
<g opacity="0.3841">
<path d="M300.909 241.792C304.483 241.583 307.985 240.866 311.411 239.837C313.137 239.318 314.832 238.7 316.495 238.007C317.267 237.685 318.032 237.347 318.789 236.991C319.562 236.628 320.527 236.273 321.13 235.655C321.453 235.324 321.121 234.846 320.701 234.923C319.881 235.073 319.071 235.62 318.324 235.979C317.58 236.336 316.827 236.676 316.067 236.998C314.417 237.698 312.728 238.307 311.02 238.846C307.696 239.895 304.262 240.591 300.82 241.133C300.444 241.193 300.531 241.814 300.909 241.792Z" fill="#38302A"/>
</g>
<g opacity="0.3841">
<path d="M308.515 242.946C310.999 242.458 313.479 241.996 315.756 240.844C316.157 240.642 315.872 240.046 315.459 240.144C313.043 240.713 310.718 241.614 308.289 242.128C307.749 242.241 307.979 243.051 308.515 242.946Z" fill="#38302A"/>
</g>
<path opacity="0.5026" d="M269.208 188.234C269.308 191.95 269.728 195.73 271.026 199.194C271.532 200.544 273.455 200.621 273.994 199.282C273.998 199.273 274.002 199.264 274.005 199.254C274.894 197.019 274.9 194.544 274.79 192.145C274.577 187.529 273.975 182.935 273.151 178.387C272.931 177.171 272.496 175.098 270.939 174.922C269.469 174.755 269.215 176.241 269.175 177.351C269.047 180.949 269.112 184.633 269.208 188.234Z" fill="#F4A556"/>
<path d="M309.609 147.904C309.301 148.188 306.989 149.149 306.137 149.238C305.267 149.328 304.402 149.47 303.545 149.649C301.736 150.028 299.753 150.751 299.01 152.432C298.717 153.096 298.676 153.922 299.113 154.503C299.408 154.894 299.872 155.12 300.327 155.306C305.093 157.265 310.59 156.54 315.433 154.779C316.818 154.275 328.602 147.557 331.589 146.013C331.978 145.812 332.436 145.434 332.256 145.037C330.793 143.681 329.33 142.324 327.868 140.967C326.775 139.954 325.446 138.457 324.018 138.001C322.65 137.564 321.399 138.446 320.428 139.26C318.96 140.492 311.505 146.161 309.609 147.904Z" fill="#F7C894"/>
<path d="M312.167 162.373L326.655 156.476L300.871 157.294L312.167 162.373Z" fill="#3A3633"/>
<path d="M312.163 162.374H265.819L265.5 161.77L252.575 137.19C252.256 136.586 252.807 135.919 253.627 135.919H296.969C297.751 135.919 298.456 136.291 298.755 136.865L312.163 162.374Z" fill="#515151"/>
<path opacity="0.2" d="M277.51 145.894C275.237 147.169 274.751 150.115 276.29 152.517C276.868 153.419 277.742 154.064 278.686 154.464C281.56 155.681 285.232 155.143 285.746 151.253C286.352 146.659 280.904 144.036 277.554 145.871C277.539 145.878 277.525 145.886 277.51 145.894Z" fill="white"/>
<g opacity="0.1457">
<path d="M261.744 139.988C261.195 139.488 260.415 139.079 259.722 139.684C258.719 140.56 259.208 142.397 259.498 143.403C259.894 144.779 260.56 146.105 261.473 147.313C261.77 147.707 262.228 148.137 262.792 148.057C263.327 147.98 263.584 147.489 263.69 147.061C264.121 145.322 263.605 143.524 262.907 141.842C262.632 141.18 262.318 140.51 261.744 139.988Z" fill="white"/>
</g>
<path d="M332.018 99.8937C332.268 103.077 335.221 105.22 338.313 105.194C340.002 105.18 341.658 104.605 343.02 103.62C343.67 103.15 344.256 102.592 344.77 101.978C345.237 101.421 345.771 100.782 345.989 100.082C346.046 99.8987 345.791 99.7437 345.659 99.8907C345.188 100.419 344.86 101.065 344.396 101.607C343.948 102.13 343.446 102.612 342.896 103.029C341.659 103.968 340.187 104.578 338.624 104.666C335.624 104.834 332.776 102.885 332.288 99.857C332.265 99.7049 332.005 99.7397 332.018 99.8937Z" fill="#EFBF6C"/>
<path d="M322.031 109.139C320.888 111.559 319.953 114.057 319.209 116.626C318.835 117.919 318.518 119.228 318.25 120.548C317.993 121.813 317.637 123.18 317.689 124.476C317.695 124.634 317.919 124.667 317.967 124.514C318.348 123.281 318.437 121.935 318.696 120.67C318.958 119.389 319.27 118.119 319.617 116.858C320.328 114.279 321.238 111.75 322.291 109.29C322.364 109.117 322.114 108.963 322.031 109.139Z" fill="#EFBF6C"/>
<path d="M357.331 119.503C356.501 123.914 345.701 139.543 344.331 140.606C343.011 141.619 334.001 146.756 329.781 148.972C328.591 149.597 327.781 149.985 327.631 149.985C326.911 149.955 326.151 149.339 325.631 148.902C324.181 147.67 322.901 146.249 321.831 144.679C321.251 143.835 320.741 142.941 320.461 141.957C320.151 140.884 320.081 139.493 320.801 138.569C322.211 136.751 325.381 137.436 326.891 135.678C328.861 133.373 329.481 128.753 331.401 126.398C335.421 121.49 339.371 116.522 343.611 111.793C345.161 110.054 346.751 108.315 348.521 106.795C349.241 106.169 350.561 104.877 351.651 105.096C354.451 105.642 356.101 108.315 356.921 111.365C357.681 114.217 357.731 117.396 357.331 119.503Z" fill="#FFD878"/>
<g opacity="0.5762">
<path d="M357.601 119.237C356.771 123.649 345.971 139.277 344.601 140.341C343.281 141.354 338.399 145.864 330.051 148.706C326.541 146.352 321.701 139.436 321.381 138.969C323.541 140.728 330.629 143.686 332.809 142.682C349.909 134.784 355.741 115.422 357.191 111.1C357.951 113.952 358.001 117.131 357.601 119.237Z" fill="#FFDE83"/>
</g>
<path d="M319.711 78.1765C319.916 79.2039 320.246 80.2034 320.704 81.1403C321.196 82.1478 321.741 83.196 321.687 84.3137C321.673 84.6019 321.65 84.9556 321.896 85.1076C322.161 85.2715 322.497 85.047 322.692 84.8055C323.595 83.6848 324.014 81.8775 324.018 80.4746C324.02 79.9391 323.923 79.4115 323.883 78.879C323.464 73.3419 331.211 74.082 334.182 71.4024C336.819 69.0248 337.352 65.1688 339.124 62.0878C339.044 62.2269 336.018 61.748 333.164 62.2686C331.415 62.5885 329.663 62.9512 328.035 63.6666C325.397 64.826 322.747 66.525 321.235 69.0368C319.615 71.7283 319.093 75.0806 319.711 78.1765Z" fill="#755743"/>
<path d="M335.966 63.5362C335.396 65.3465 335.445 67.3426 336.1 69.124C336.919 71.3486 338.529 72.7018 340.412 74.0143C342.034 75.145 343.817 76.1525 345.047 77.7362C346.284 79.3299 347.536 81.2365 347.394 83.3617C347.362 83.8436 347.251 84.3205 347.253 84.8034C347.254 85.2863 347.388 85.8009 347.754 86.1179C347.956 86.2927 348.275 86.3891 348.487 86.2252C348.587 86.1477 348.642 86.0285 348.691 85.9122C349.286 84.5043 349.506 82.9653 349.565 81.4392C349.595 80.6513 349.66 80.1307 350.391 79.7283C350.971 79.4084 351.663 79.2802 352.319 79.2573C352.78 79.2414 353.543 79.4431 353.638 78.9951C356.72 64.4056 343.495 62.0886 338.942 62.0886" fill="#755743"/>
<g opacity="0.1743">
<path d="M385.253 105.74C385.033 107.747 385.133 110.29 384.283 112.128C383.803 113.182 382.813 114.086 381.653 114.135C379.913 114.205 378.703 112.496 377.123 111.761C373.683 110.181 369.583 113.579 365.983 112.407C363.633 111.632 362.323 109.177 361.463 106.882C360.593 104.577 359.823 102.054 357.883 100.534C356.683 99.5896 355.173 99.1723 353.743 98.6159C356.133 97.1852 359.793 97.9602 361.113 100.474C361.783 101.766 361.873 103.266 362.343 104.647C362.813 106.018 363.903 107.399 365.363 107.399C366.973 107.389 368.083 105.77 369.603 105.243C371.473 104.607 373.543 105.71 375.473 105.322C378.353 104.756 379.573 101.189 379.193 98.298C378.723 94.8205 376.683 91.5914 373.733 89.6739C371.223 88.0444 368.153 87.339 365.843 85.4413C362.703 82.8779 361.553 78.5957 361.373 74.5618C361.193 70.528 361.803 66.4742 361.393 62.4603C361.013 58.794 359.563 54.9887 356.633 52.8525C358.903 53.0513 361.083 53.866 362.823 55.3563C366.883 58.8338 367.583 64.7355 367.863 70.0511C368.143 75.3666 368.513 76.8272 372.183 80.712C374.683 83.3548 378.443 84.4676 380.853 87.1403C383.873 90.4787 385.283 94.7212 385.503 99.1525C385.623 101.348 385.483 103.554 385.253 105.74Z" fill="#684D3A"/>
</g>
<g opacity="0.1743">
<path d="M344.581 61.0902C348.278 60.197 352.841 59.4429 355.282 63.1181C356.294 64.6412 356.804 66.4356 357.283 68.1773C357.873 70.3264 358.341 72.5241 358.38 74.7597C358.416 76.8342 357.927 78.866 357.859 80.9356C357.796 82.8631 358.113 84.7787 358.962 86.5234C360.484 89.6501 363.534 91.5558 366.513 93.1326C368.174 94.0119 369.929 94.8971 371.205 96.308C372.52 97.7616 372.998 99.9553 371.692 101.579C371.327 102.033 371.891 102.625 372.344 102.227C373.664 101.066 373.75 99.0502 373.139 97.5042C372.51 95.9126 371.145 94.7402 369.738 93.8271C366.653 91.8241 363.024 90.6209 360.738 87.5746C359.456 85.8667 358.844 83.7971 358.807 81.6788C358.768 79.4334 359.336 77.2356 359.323 74.9941C359.31 72.7189 358.838 70.4685 358.232 68.2836C357.723 66.4495 357.186 64.5538 356.126 62.9452C354.987 61.2164 353.306 60.1096 351.232 59.8423C348.958 59.5482 346.659 60.1414 344.486 60.7455C344.263 60.8081 344.356 61.1449 344.581 61.0902Z" fill="#684D3A"/>
</g>
<g opacity="0.1743">
<path d="M355.571 84.4439C354.722 87.982 356.196 91.8608 359.214 93.9344C361.006 95.1654 363.296 95.5897 364.805 97.231C365.499 97.9861 365.98 98.9131 366.251 99.8967C366.526 100.898 366.403 101.83 366.429 102.844C366.438 103.185 366.977 103.397 367.135 103.033C367.853 101.384 367.201 99.1625 366.27 97.7189C365.099 95.9026 363.275 95.0998 361.369 94.2384C359.463 93.377 357.931 92.1668 356.935 90.3059C355.998 88.5553 355.665 86.5284 356.077 84.583C356.144 84.2561 355.649 84.116 355.571 84.4439Z" fill="#684D3A"/>
</g>
<path d="M339.36 62.3341C339.573 62.3013 339.803 62.3063 340.02 62.2904C340.229 62.2755 340.439 62.2686 340.649 62.2686C341.083 62.2705 341.525 62.2974 341.955 62.354C342.372 62.4096 342.784 62.5011 343.187 62.6183C343.389 62.6769 343.59 62.7385 343.789 62.81C344.012 62.8895 344.187 62.9839 344.428 62.9342C344.618 62.8955 344.711 62.6471 344.61 62.4901C344.473 62.2745 344.256 62.2129 344.024 62.1295C343.798 62.047 343.569 61.9735 343.335 61.9149C342.897 61.8046 342.449 61.733 341.999 61.6893C341.547 61.6456 341.099 61.6446 340.648 61.6863C340.414 61.7082 340.18 61.738 339.949 61.7777C339.707 61.8185 339.49 61.898 339.255 61.9586C339.008 62.0241 339.118 62.3719 339.36 62.3341Z" fill="#FFD878"/>
<g opacity="0.1743">
<path d="M338.46 65.5284C338.387 68.9174 340.238 71.8971 343.115 73.6289C343.929 74.1187 344.779 74.5777 345.454 75.2554C346.15 75.9528 346.642 76.8361 346.958 77.7621C347.65 79.787 347.366 81.8625 347.642 83.9361C347.679 84.2103 348.109 84.3385 348.179 84.0086C348.917 80.556 348.242 75.9757 345.083 73.8733C344.28 73.3388 343.385 72.9563 342.572 72.4376C341.826 71.9617 341.164 71.3596 340.607 70.6741C339.426 69.2195 338.758 67.3933 338.694 65.5284C338.689 65.3794 338.463 65.3784 338.46 65.5284Z" fill="#684D3A"/>
</g>
<g opacity="0.1743">
<path d="M345.535 67.7351C347.991 70.7784 348.884 74.7894 348.68 78.6226C348.663 78.9346 349.167 79.0071 349.232 78.6971C350.088 74.6215 348.569 70.4883 345.817 67.455C345.641 67.2622 345.378 67.5404 345.535 67.7351Z" fill="#684D3A"/>
</g>
<g opacity="0.1743">
<path d="M336.508 65.1578C336.531 65.8175 336.39 66.4882 336.227 67.1251C336.062 67.7679 335.894 68.4157 335.67 69.0416C335.575 69.3079 335.961 69.4331 336.105 69.2245C336.51 68.6392 336.815 67.9875 336.935 67.283C336.995 66.9323 337.035 66.5687 337.038 66.213C337.04 65.8623 336.995 65.5076 336.968 65.1578C336.947 64.8687 336.498 64.8607 336.508 65.1578Z" fill="#684D3A"/>
</g>
<g opacity="0.1743">
<path d="M332.111 66.7982C329.477 69.4619 325.144 69.6467 322.891 72.8142C321.653 74.5539 322.004 76.4814 322.176 78.4685C322.269 79.5416 322.247 80.6196 322.13 81.6897C321.999 82.8889 321.672 84.0474 321.492 85.2367C321.457 85.4652 321.785 85.6619 321.906 85.4096C322.777 83.6003 323.003 81.3747 322.957 79.3886C322.908 77.3061 322.19 75.1183 323.449 73.2414C324.483 71.7004 326.236 70.8062 327.859 70.0074C329.473 69.2135 331.104 68.3551 332.3 66.983C332.409 66.8578 332.232 66.675 332.111 66.7982Z" fill="#684D3A"/>
</g>
<path d="M323.924 137.975C324.857 137.291 325.794 136.612 326.737 135.943C327.501 135.401 328.38 134.947 329.096 134.345C329.822 133.737 330.359 132.801 330.902 132.038C331.57 131.1 332.214 130.146 332.849 129.186C335.417 125.305 337.918 121.382 340.511 117.517C341.956 115.364 343.427 113.248 345.071 111.239C345.229 111.046 344.961 110.769 344.792 110.962C343.392 112.559 342.182 114.322 340.994 116.077C339.714 117.968 338.454 119.871 337.205 121.782C334.685 125.637 332.255 129.566 329.511 133.27C328.785 134.25 327.723 134.784 326.742 135.483C325.721 136.211 324.726 136.966 323.751 137.754C323.63 137.854 323.795 138.07 323.924 137.975Z" fill="#EFBF6C"/>
<path d="M321.748 139.304C322.675 140.994 323.646 142.632 324.828 144.163C325.385 144.883 325.993 145.565 326.625 146.22C326.968 146.576 327.32 146.922 327.686 147.254C328 147.538 328.32 147.887 328.725 148.033C328.903 148.097 329.037 147.878 328.958 147.732C328.755 147.356 328.355 147.082 328.048 146.79C327.726 146.484 327.405 146.176 327.09 145.863C326.425 145.201 325.799 144.504 325.183 143.797C323.955 142.388 322.799 140.854 321.9 139.215C321.846 139.116 321.694 139.206 321.748 139.304Z" fill="#EFBF6C"/>
<path d="M321.727 137.69C320.551 138.744 319.615 139.894 320.02 141.557C320.44 143.277 321.587 144.889 322.574 146.332C323.104 147.107 323.664 147.858 324.234 148.604C324.68 149.187 325.15 149.797 325.848 150.094C327.232 150.682 329.053 149.787 329.882 148.647C330.016 148.463 329.764 148.271 329.592 148.359C328.938 148.69 328.441 149.247 327.739 149.51C326.912 149.82 326.093 149.711 325.437 149.113C324.912 148.634 324.506 148.014 324.077 147.452C323.637 146.877 323.188 146.31 322.764 145.723C321.936 144.577 321.125 143.348 320.59 142.036C320.265 141.24 320.134 140.412 320.501 139.606C320.813 138.923 321.348 138.359 321.862 137.821C321.944 137.734 321.817 137.609 321.727 137.69Z" fill="#EFBF6C"/>
<path d="M287.673 189.702C285.894 184.958 283.843 179.642 285.997 174.662C287.774 170.556 292.362 169.082 296.288 167.719C298.798 166.848 301.404 166.15 303.827 165.053C304.022 164.965 303.883 164.656 303.682 164.712C301.239 165.41 298.829 166.267 296.426 167.093C294.243 167.843 292.039 168.628 290.006 169.73C288.213 170.702 286.719 171.99 285.777 173.821C284.723 175.871 284.388 178.234 284.581 180.512C284.857 183.758 286.066 186.822 287.318 189.801C287.408 190.01 287.757 189.926 287.673 189.702Z" fill="#D68741"/>
<path d="M137.74 283.265C137.972 276.993 134.205 270.747 128.528 267.994C122.851 265.24 115.578 266.129 110.743 270.169C110.934 263.379 111.103 256.432 108.992 249.971C106.881 243.51 102.011 237.518 95.3573 235.957C88.7033 234.397 80.6893 238.786 80.0483 245.549C77.0373 241.435 69.9703 242.879 66.9463 246.984C63.9223 251.09 63.7793 256.555 63.7563 261.643C59.6783 255.144 50.6073 252.283 43.5023 255.253C36.3983 258.223 27.1863 274.961 38.1693 285.678" fill="#A8D199"/>
<path d="M169.347 287.483H97.7143C95.5023 287.483 93.7083 285.701 93.7083 283.503L87.0033 230.036C87.0033 227.838 88.7963 226.056 91.0093 226.056H162.642C164.854 226.056 166.648 227.837 166.648 230.036L173.353 283.503C173.353 285.7 171.56 287.483 169.347 287.483Z" fill="#FCEED2" stroke="#F7D7A9" stroke-miterlimit="10"/>
<path d="M162.277 291.113H91.3753C88.9613 291.113 87.0043 289.169 87.0043 286.77V230.399C87.0043 228 88.9613 226.056 91.3753 226.056H162.277C164.691 226.056 166.648 228 166.648 230.399V286.77C166.648 289.169 164.691 291.113 162.277 291.113Z" fill="#FCEED2" stroke="#F7D7A9" stroke-miterlimit="10"/>
<path d="M104.791 251.7H95.9963C94.9433 251.7 94.0894 250.851 94.0894 249.804V241.066C94.0894 240.019 94.9433 239.171 95.9963 239.171H104.791C105.844 239.171 106.699 240.019 106.699 241.066V249.804C106.698 250.851 105.844 251.7 104.791 251.7Z" fill="#1D4AA3"/>
<path d="M104.791 268.565H95.9963C94.9433 268.565 94.0894 267.717 94.0894 266.67V257.931C94.0894 256.884 94.9433 256.036 95.9963 256.036H104.791C105.844 256.036 106.699 256.884 106.699 257.931V266.67C106.698 267.717 105.844 268.565 104.791 268.565Z" fill="#F4A556"/>
<path d="M122.412 251.7H113.617C112.564 251.7 111.709 250.851 111.709 249.804V241.066C111.709 240.019 112.563 239.171 113.617 239.171H122.412C123.466 239.171 124.32 240.019 124.32 241.066V249.804C124.32 250.851 123.466 251.7 122.412 251.7Z" fill="#F4A556"/>
<path d="M122.412 268.565H113.617C112.564 268.565 111.709 267.717 111.709 266.67V257.931C111.709 256.884 112.563 256.036 113.617 256.036H122.412C123.466 256.036 124.32 256.884 124.32 257.931V266.67C124.32 267.717 123.466 268.565 122.412 268.565Z" fill="#1D4AA3"/>
<path d="M140.034 251.7H131.239C130.185 251.7 129.331 250.851 129.331 249.804V241.066C129.331 240.019 130.185 239.171 131.239 239.171H140.034C141.088 239.171 141.942 240.019 141.942 241.066V249.804C141.942 250.851 141.088 251.7 140.034 251.7Z" fill="#FFD878"/>
<path d="M140.034 268.565H131.239C130.185 268.565 129.331 267.717 129.331 266.67V257.931C129.331 256.884 130.185 256.036 131.239 256.036H140.034C141.088 256.036 141.942 256.884 141.942 257.931V266.67C141.942 267.717 141.088 268.565 140.034 268.565Z" fill="#F4A556"/>
<path d="M157.656 251.7H148.861C147.807 251.7 146.953 250.851 146.953 249.804V241.066C146.953 240.019 147.807 239.171 148.861 239.171H157.656C158.709 239.171 159.563 240.019 159.563 241.066V249.804C159.563 250.851 158.709 251.7 157.656 251.7Z" fill="#F4A556"/>
<path d="M157.656 268.565H148.861C147.807 268.565 146.953 267.717 146.953 266.67V257.931C146.953 256.884 147.807 256.036 148.861 256.036H157.656C158.709 256.036 159.563 256.884 159.563 257.931V266.67C159.563 267.717 158.709 268.565 157.656 268.565Z" fill="#F4A556"/>
<path d="M104.791 284.125H95.9963C94.9433 284.125 94.0894 283.277 94.0894 282.231V273.492C94.0894 272.446 94.9433 271.597 95.9963 271.597H104.791C105.844 271.597 106.699 272.445 106.699 273.492V282.231C106.698 283.277 105.844 284.125 104.791 284.125Z" fill="#1D4AA3"/>
<path d="M122.412 284.125H113.617C112.564 284.125 111.709 283.277 111.709 282.231V273.492C111.709 272.446 112.563 271.597 113.617 271.597H122.412C123.466 271.597 124.32 272.445 124.32 273.492V282.231C124.32 283.277 123.466 284.125 122.412 284.125Z" fill="#FFD878"/>
<path d="M140.034 284.125H131.239C130.185 284.125 129.331 283.277 129.331 282.231V273.492C129.331 272.446 130.185 271.597 131.239 271.597H140.034C141.088 271.597 141.942 272.445 141.942 273.492V282.231C141.942 283.277 141.088 284.125 140.034 284.125Z" fill="#F4A556"/>
<path d="M157.656 284.125H148.861C147.807 284.125 146.953 283.277 146.953 282.231V273.492C146.953 272.446 147.807 271.597 148.861 271.597H157.656C158.709 271.597 159.563 272.445 159.563 273.492V282.231C159.563 283.277 158.709 284.125 157.656 284.125Z" fill="#1D4AA3"/>
<path d="M98.6263 230.283C97.9363 230.283 97.3773 229.728 97.3773 229.043V223.531C97.3773 222.845 97.9373 222.29 98.6263 222.29C99.3163 222.29 99.8763 222.846 99.8763 223.531V229.043C99.8763 229.728 99.3163 230.283 98.6263 230.283Z" fill="#F4A556"/>
<path d="M107.654 230.283C106.964 230.283 106.404 229.728 106.404 229.043V223.531C106.404 222.845 106.964 222.29 107.654 222.29C108.344 222.29 108.904 222.846 108.904 223.531V229.043C108.903 229.728 108.344 230.283 107.654 230.283Z" fill="#F4A556"/>
<path d="M116.681 230.283C115.991 230.283 115.432 229.728 115.432 229.043V223.531C115.432 222.845 115.992 222.29 116.681 222.29C117.371 222.29 117.931 222.846 117.931 223.531V229.043C117.931 229.728 117.371 230.283 116.681 230.283Z" fill="#F4A556"/>
<path d="M125.708 230.283C125.018 230.283 124.459 229.728 124.459 229.043V223.531C124.459 222.845 125.018 222.29 125.708 222.29C126.398 222.29 126.957 222.846 126.957 223.531V229.043C126.957 229.728 126.398 230.283 125.708 230.283Z" fill="#F4A556"/>
<path d="M134.735 230.283C134.045 230.283 133.486 229.728 133.486 229.043V223.531C133.486 222.845 134.045 222.29 134.735 222.29C135.425 222.29 135.984 222.846 135.984 223.531V229.043C135.984 229.728 135.426 230.283 134.735 230.283Z" fill="#F4A556"/>
<path d="M143.763 230.283C143.073 230.283 142.514 229.728 142.514 229.043V223.531C142.514 222.845 143.073 222.29 143.763 222.29C144.453 222.29 145.012 222.846 145.012 223.531V229.043C145.012 229.728 144.453 230.283 143.763 230.283Z" fill="#F4A556"/>
<path d="M152.79 230.283C152.1 230.283 151.541 229.728 151.541 229.043V223.531C151.541 222.845 152.1 222.29 152.79 222.29C153.48 222.29 154.039 222.846 154.039 223.531V229.043C154.039 229.728 153.48 230.283 152.79 230.283Z" fill="#F4A556"/>
<g opacity="0.2587">
<path d="M186.882 266.1C188.236 266.519 189.575 266.931 190.908 267.413C192.24 267.895 193.57 268.33 194.941 268.686C197.6 269.376 200.277 269.949 202.992 270.374C208.549 271.242 214.131 271.65 219.756 271.559C230.878 271.378 241.968 269.49 252.496 265.917C255.501 264.897 258.459 263.739 261.361 262.458C262.778 261.832 264.181 261.175 265.568 260.486C267.004 259.772 268.437 259.062 269.601 257.948C270.257 257.32 269.577 256.261 268.734 256.469C267.338 256.813 266.075 257.491 264.792 258.128C263.593 258.723 262.382 259.293 261.16 259.841C258.688 260.948 256.169 261.948 253.614 262.849C248.464 264.667 243.171 266.082 237.8 267.089C227.09 269.097 216.13 269.434 205.293 268.325C202.273 268.016 199.255 267.589 196.266 267.068C194.731 266.801 193.2 266.528 191.664 266.268C190.114 266.007 188.64 265.636 187.139 265.172C186.543 264.987 186.287 265.916 186.882 266.1Z" fill="#1D4AA3"/>
</g>
<path d="M171.758 294.393C171.618 290.619 173.884 286.864 177.299 285.207C180.714 283.55 185.089 284.085 187.997 286.515C187.882 282.431 187.781 278.252 189.05 274.366C190.32 270.479 193.249 266.874 197.252 265.936C201.255 264.998 206.075 267.638 206.461 271.707C208.273 269.232 212.524 270.1 214.343 272.57C216.162 275.04 216.248 278.328 216.262 281.388C218.715 277.48 224.172 275.758 228.445 277.544C232.718 279.331 237.371 287.408 234.449 293.116" fill="#A8D199"/>
<path d="M197.151 274.537C196.136 274.758 195.227 275.419 194.714 276.319C194.187 277.245 193.965 278.672 194.732 279.531C194.873 279.689 195.16 279.565 195.152 279.358C195.135 278.903 195.049 278.449 195.074 277.992C195.099 277.538 195.198 277.092 195.418 276.69C195.821 275.952 196.526 275.428 197.342 275.225C197.792 275.114 197.601 274.438 197.151 274.537Z" fill="#C3EAB2"/>
<path d="M200.482 283.063C200.903 281.513 201.752 280.117 202.939 279.024C203.588 278.427 204.377 277.981 205.232 278.463C205.994 278.892 206.365 279.758 206.707 280.516C206.834 280.798 207.303 280.781 207.436 280.516C207.659 280.07 208.16 279.773 208.663 279.955C209.185 280.142 209.23 280.654 209.433 281.086C209.53 281.293 209.882 281.291 209.98 281.086C210.349 280.311 209.618 279.405 208.883 279.164C208.04 278.887 207.102 279.321 206.708 280.094C206.951 280.094 207.194 280.094 207.437 280.094C206.992 279.197 206.48 278.26 205.548 277.782C204.674 277.334 203.755 277.498 202.983 278.067C201.423 279.217 200.39 281.065 199.94 282.916C199.854 283.264 200.387 283.411 200.482 283.063Z" fill="#C3EAB2"/>
<path d="M215.374 286.401C215.392 286.445 215.409 286.488 215.426 286.533C215.437 286.662 215.572 286.713 215.671 286.633C215.823 286.511 215.919 286.313 216.05 286.168C216.187 286.017 216.346 285.883 216.516 285.771C216.846 285.552 217.231 285.421 217.629 285.423C218.024 285.425 218.402 285.556 218.728 285.774C218.893 285.883 219.043 286.022 219.171 286.172C219.307 286.331 219.389 286.524 219.579 286.63C219.773 286.74 219.961 286.596 219.985 286.399C220.018 286.132 219.811 285.89 219.647 285.7C219.48 285.508 219.278 285.344 219.06 285.212C218.628 284.949 218.107 284.804 217.599 284.831C217.091 284.858 216.6 285.042 216.194 285.346C215.867 285.59 215.386 286.088 215.427 286.534C215.487 286.488 215.548 286.443 215.608 286.397C215.569 286.369 215.53 286.341 215.491 286.313C215.435 286.25 215.328 286.331 215.374 286.401Z" fill="#C3EAB2"/>
<path d="M181.838 289.997C181.986 290.074 182.029 290.092 182.185 290.154C182.228 290.171 182.289 290.151 182.319 290.12C183.343 289.001 184.735 288.249 186.293 288.346C187.767 288.438 189.103 289.315 189.848 290.564C189.983 290.79 190.365 290.819 190.493 290.564C190.86 289.829 191.619 289.321 192.468 289.472C192.855 289.54 193.218 289.753 193.484 290.038C193.701 290.27 193.775 290.574 194.075 290.71C194.232 290.781 194.38 290.722 194.442 290.562C194.804 289.632 193.161 288.797 192.449 288.713C191.364 288.584 190.3 289.214 189.848 290.19C190.063 290.19 190.278 290.19 190.493 290.19C189.564 288.734 187.954 287.769 186.199 287.758C185.338 287.753 184.464 287.979 183.718 288.408C183.35 288.618 183.001 288.88 182.701 289.18C182.431 289.449 182.289 289.873 181.878 289.854C181.801 289.849 181.77 289.962 181.838 289.997Z" fill="#C3EAB2"/>
<path d="M45.7863 277.829C45.9033 275.165 47.0563 272.403 49.5723 271.165C51.8313 270.054 54.9223 270.765 55.8293 273.293C55.9563 273.646 56.5733 273.741 56.6513 273.293C56.9873 271.357 59.2993 270.663 60.6213 272.16C60.9713 272.555 61.5453 271.978 61.2013 271.584C59.5103 269.642 56.2433 270.51 55.8293 273.068C56.1033 273.068 56.3773 273.068 56.6513 273.068C55.6053 270.251 52.3083 269.181 49.6293 270.321C46.6303 271.598 45.2723 274.751 45.2083 277.829C45.2003 278.2 45.7703 278.197 45.7863 277.829Z" fill="#C3EAB2"/>
<path d="M69.1663 273.417C69.3643 272.212 69.6472 271.026 70.2972 269.967C70.9642 268.882 71.9443 267.974 73.1053 267.432C74.2723 266.886 75.6293 266.738 76.8953 266.962C77.5203 267.072 78.1362 267.251 78.7082 267.526C79.2512 267.788 79.7243 268.243 80.2963 268.422C80.5573 268.505 80.7323 268.21 80.6273 267.995C80.3373 267.401 79.5462 267.017 78.9702 266.752C78.2992 266.444 77.5983 266.235 76.8643 266.138C75.4843 265.956 74.0613 266.156 72.8043 266.758C70.4533 267.884 68.4762 270.762 69.0232 273.416C69.0372 273.487 69.1543 273.49 69.1663 273.417Z" fill="#C3EAB2"/>
<path d="M70.6723 257.188C71.2663 256.273 72.5333 255.798 73.5913 256.058C74.6473 256.318 75.4483 257.298 75.5313 258.366C75.5723 258.897 76.3863 258.913 76.3753 258.366C76.3663 257.951 76.6424 257.608 77.0334 257.468C77.5284 257.291 78.0753 257.493 78.4963 257.758C78.8833 258.002 79.2103 258.34 79.4173 258.747C79.6453 259.196 79.5973 259.559 79.4843 260.028C79.4023 260.368 79.8743 260.721 80.1303 260.401C81.1173 259.167 79.7983 257.441 78.6523 256.873C77.9893 256.544 77.2113 256.429 76.5283 256.768C75.9214 257.07 75.4983 257.682 75.5303 258.365C75.8113 258.365 76.0933 258.365 76.3743 258.365C76.2253 256.953 75.2174 255.664 73.7874 255.346C72.3584 255.028 70.9863 255.729 70.2463 256.941C70.0823 257.212 70.5013 257.451 70.6723 257.188Z" fill="#C3EAB2"/>
</svg>
