<svg width="70" height="71" viewBox="0 0 70 71" fill="none" xmlns="http://www.w3.org/2000/svg">
<g filter="url(#filter0_b_247_2047)">
<circle cx="34.9939" cy="35.5127" r="34.7292" fill="white" fill-opacity="0.3"/>
</g>
<g clip-path="url(#clip0_247_2047)">
<path d="M51.6484 26.5403C50.7467 24.3089 49.3915 22.2168 47.5871 20.4128C45.7831 18.6085 43.691 17.2532 41.4596 16.3515C39.228 15.4496 36.8571 15 34.4873 15C32.1207 15 29.7541 15.4516 27.527 16.3545C25.3002 17.2571 23.2131 18.6123 21.4128 20.4128C19.6123 22.213 18.2571 24.3002 17.3545 26.527C16.4516 28.7539 16.0001 31.1204 16.0001 33.4871C16.0001 35.857 16.4497 38.228 17.3515 40.4596C18.2532 42.691 19.6084 44.7832 21.4128 46.5872C23.2168 48.3915 25.3089 49.7468 27.5403 50.6485C29.772 51.5504 32.1429 51.9999 34.5128 52.0001C36.8793 52.0001 39.246 51.5485 41.473 50.6456C43.6998 49.743 45.7869 48.3879 47.5872 46.5873C49.3877 44.787 50.7429 42.6999 51.6455 40.4731C52.5484 38.246 53 35.8795 53.0001 33.5128C52.9999 31.1429 52.5504 28.772 51.6484 26.5403ZM49.3587 39.5458C48.5767 41.4741 47.4062 43.2782 45.8423 44.8423C44.2782 46.4061 42.4741 47.5766 40.5459 48.3587C38.6179 49.1404 36.5656 49.5323 34.5129 49.5323C32.4549 49.5323 30.3975 49.1417 28.4651 48.3606C26.5324 47.5792 24.7246 46.4089 23.1578 44.8424C21.5912 43.2755 20.4208 41.4678 19.6396 39.535C18.8585 37.6026 18.4679 35.5451 18.4679 33.4872C18.4678 31.4344 18.8598 29.3822 19.6415 27.4543C20.4234 25.526 21.5939 23.7219 23.1578 22.1578C24.7219 20.594 26.526 19.4235 28.4543 18.6415C30.3823 17.8597 32.4346 17.4678 34.4873 17.4678C36.5452 17.4678 38.6027 17.8584 40.5351 18.6395C42.4678 19.4209 44.2756 20.5912 45.8424 22.1578C47.409 23.7246 48.5793 25.5324 49.3606 27.465C50.1417 29.3975 50.5323 31.4549 50.5323 33.5128C50.5323 35.5656 50.1404 37.6178 49.3587 39.5458Z" fill="white"/>
<path d="M41.7439 28.2684C42.4107 28.2684 42.9512 27.7279 42.9512 27.0611V24.6466C42.9512 24.3287 42.8225 24.0176 42.5976 23.7928C42.3728 23.568 42.0619 23.4392 41.7439 23.4392H27.2562C26.7904 23.4392 26.3646 23.7086 26.1652 24.1295C25.9657 24.5504 26.0268 25.0505 26.3218 25.411L32.9401 33.5001L26.3218 41.5893C26.0269 41.9497 25.9658 42.4499 26.1652 42.8709C26.3647 43.2918 26.7905 43.5611 27.2562 43.5611H41.7439C42.0618 43.5611 42.3728 43.4324 42.5976 43.2075C42.8225 42.9827 42.9512 42.6718 42.9512 42.3538V39.9392C42.9512 39.2724 42.4107 38.7318 41.7439 38.7318C41.0771 38.7318 40.5366 39.2724 40.5366 39.9392V41.1465H29.8039L35.4345 34.2647C35.7992 33.819 35.7992 33.1814 35.4345 32.7357L29.8039 25.854H40.5366V27.0612C40.5366 27.7278 41.0772 28.2684 41.7439 28.2684Z" fill="white"/>
</g>
<defs>
<filter id="filter0_b_247_2047" x="-4.36585" y="-3.84711" width="78.7196" height="78.7196" filterUnits="userSpaceOnUse" color-interpolation-filters="sRGB">
<feFlood flood-opacity="0" result="BackgroundImageFix"/>
<feGaussianBlur in="BackgroundImageFix" stdDeviation="2.31528"/>
<feComposite in2="SourceAlpha" operator="in" result="effect1_backgroundBlur_247_2047"/>
<feBlend mode="normal" in="SourceGraphic" in2="effect1_backgroundBlur_247_2047" result="shape"/>
</filter>
<clipPath id="clip0_247_2047">
<rect width="37" height="37" fill="white" transform="translate(16 15)"/>
</clipPath>
</defs>
</svg>
