<svg width="71" height="71" viewBox="0 0 71 71" fill="none" xmlns="http://www.w3.org/2000/svg">
<path opacity="0.3" d="M70.2125 35.3574C70.2125 54.5378 54.6637 70.0866 35.4833 70.0866C16.3029 70.0866 0.754089 54.5378 0.754089 35.3574C0.754089 16.177 16.3029 0.628174 35.4833 0.628174C54.6637 0.628174 70.2125 16.177 70.2125 35.3574Z" fill="#FAE9F5"/>
<g clip-path="url(#clip0_247_2049)">
<path fill-rule="evenodd" clip-rule="evenodd" d="M32.6948 40.7662C36.4536 40.7836 40.1884 41.3538 43.7927 42.4616C45.5012 42.9862 46.6482 44.5249 46.6482 46.2922V49.2805C44.08 51.1109 39.1524 53.8228 32.5011 53.8228C29.5542 53.8228 23.8605 53.2243 18.3541 49.2805V46.2922C18.3541 44.5249 19.5054 42.984 21.2205 42.4594C24.9509 41.3146 28.8099 40.7792 32.6949 40.7662H32.6948ZM32.6535 21.1757C36.2055 21.1757 39.2308 23.6787 39.9512 27.0979C39.3353 27.4548 38.6975 27.7051 37.5941 27.7051C36.175 27.7051 35.5308 27.2981 34.7124 26.7845C33.7809 26.1968 32.7275 25.5287 30.6947 25.5287C28.6466 25.5287 27.5867 26.199 26.6508 26.7888C26.1045 27.1327 25.6344 27.4287 24.9575 27.5876C25.4733 23.9682 28.5922 21.1757 32.3488 21.1757H32.6535ZM44.4304 40.3809C42.3823 39.7519 40.2907 39.3014 38.1774 39.001C40.6607 37.2555 42.2952 34.3804 42.2952 31.1222H40.1188C40.1188 35.2401 36.7692 38.5875 32.6535 38.5875H32.3488C28.2331 38.5875 24.8835 35.2401 24.8835 31.1222V29.812C26.2351 29.6248 27.0643 29.1024 27.813 28.628C28.6314 28.1122 29.2778 27.7052 30.6947 27.7052C32.0963 27.7052 32.7384 28.11 33.5502 28.6236C34.4861 29.2134 35.546 29.8816 37.5941 29.8816C39.6421 29.8816 40.7064 29.2069 41.725 28.5605L42.3018 28.1948L42.2234 27.5136C41.651 22.6601 37.5353 18.9993 32.6535 18.9993H32.3488C27.0317 18.9993 22.707 23.3261 22.707 28.7934V31.1222C22.707 34.3869 24.3459 37.2642 26.8336 39.0097C24.7224 39.3036 22.6308 39.7497 20.5806 40.3787C17.9471 41.1862 16.1776 43.5651 16.1776 46.2922V50.3774L16.6129 50.7039C22.7571 55.3115 29.2038 55.9993 32.5011 55.9993C40.1797 55.9993 45.7515 52.6802 48.3894 50.7039L48.8247 50.3774V46.2922C48.8247 43.5629 47.0574 41.1884 44.4304 40.3809Z" fill="white"/>
</g>
<circle cx="50.5" cy="16.5002" r="4.33333" stroke="white" stroke-width="1.33333"/>
<circle cx="50.5" cy="16.5002" r="1.66667" fill="white"/>
<defs>
<clipPath id="clip0_247_2049">
<rect width="37" height="37" fill="white" transform="translate(14 19.0002)"/>
</clipPath>
</defs>
</svg>
