<svg width="70" height="70" viewBox="0 0 70 70" fill="none" xmlns="http://www.w3.org/2000/svg">
<circle opacity="0.3" cx="34.7292" cy="34.7292" r="34.7292" fill="#EFF7E2"/>
<path d="M35.3584 21.8755H25.62C24.0499 21.8755 22.5442 22.4993 21.434 23.6095C20.3238 24.7197 19.7 26.2254 19.7 27.7955V42.5955C19.7 44.1655 20.3238 45.6713 21.434 46.7814C22.5442 47.8917 24.0499 48.5155 25.62 48.5155H43.38C44.9501 48.5155 46.4559 47.8917 47.566 46.7814C48.6763 45.6713 49.3 44.1655 49.3 42.5955V33.6118" stroke="white" stroke-width="2.22" stroke-linecap="round" stroke-linejoin="round"/>
<path d="M49.2997 20.3215L40.9229 28.6983" stroke="white" stroke-width="2.22" stroke-linecap="round" stroke-linejoin="round"/>
<path d="M47.6273 28.6981H40.9229V21.9937" stroke="white" stroke-width="2.22" stroke-linecap="round" stroke-linejoin="round"/>
<mask id="path-5-outside-1_247_2048" maskUnits="userSpaceOnUse" x="25.2962" y="28.8738" width="12" height="15" fill="black">
<rect fill="white" x="25.2962" y="28.8738" width="12" height="15"/>
<path d="M34.1436 32.6215V32.9443H36.5927V34.1973H34.0486C33.9347 35.0707 33.6816 35.7541 33.2892 36.2478C32.9095 36.7414 32.3526 37.0958 31.6185 37.311C30.897 37.5261 29.9351 37.6337 28.7327 37.6337V39.1336C28.7327 40.8423 29.4794 41.6967 30.973 41.6967C32.4412 41.6967 33.1753 40.874 33.1753 39.2285H34.7701C34.7574 40.4942 34.422 41.4499 33.7639 42.0954C33.1057 42.7409 32.1691 43.0636 30.954 43.0636C29.7009 43.0636 28.7453 42.7156 28.0871 42.0194C27.4416 41.3233 27.1189 40.3487 27.1189 39.0956V36.4186C28.5618 36.4186 29.625 36.3743 30.3085 36.2857C31.0046 36.1845 31.5109 35.982 31.8273 35.6782C32.1438 35.3618 32.3463 34.8682 32.4349 34.1973H26.2645V32.9443H32.5108V32.6025V30.8938H26.2645V29.6218H36.5927V30.8938H34.1436V32.6215Z"/>
</mask>
<path d="M34.1436 32.6215V32.9443H36.5927V34.1973H34.0486C33.9347 35.0707 33.6816 35.7541 33.2892 36.2478C32.9095 36.7414 32.3526 37.0958 31.6185 37.311C30.897 37.5261 29.9351 37.6337 28.7327 37.6337V39.1336C28.7327 40.8423 29.4794 41.6967 30.973 41.6967C32.4412 41.6967 33.1753 40.874 33.1753 39.2285H34.7701C34.7574 40.4942 34.422 41.4499 33.7639 42.0954C33.1057 42.7409 32.1691 43.0636 30.954 43.0636C29.7009 43.0636 28.7453 42.7156 28.0871 42.0194C27.4416 41.3233 27.1189 40.3487 27.1189 39.0956V36.4186C28.5618 36.4186 29.625 36.3743 30.3085 36.2857C31.0046 36.1845 31.5109 35.982 31.8273 35.6782C32.1438 35.3618 32.3463 34.8682 32.4349 34.1973H26.2645V32.9443H32.5108V32.6025V30.8938H26.2645V29.6218H36.5927V30.8938H34.1436V32.6215Z" fill="white"/>
<path d="M34.1436 32.9443H33.9586V33.1293H34.1436V32.9443ZM36.5927 32.9443H36.7777V32.7593H36.5927V32.9443ZM36.5927 34.1973V34.3823H36.7777V34.1973H36.5927ZM34.0486 34.1973V34.0123H33.8862L33.8652 34.1734L34.0486 34.1973ZM33.2892 36.2478L33.1444 36.1326L33.1426 36.135L33.2892 36.2478ZM31.6185 37.311L31.5664 37.1334L31.5656 37.1337L31.6185 37.311ZM28.7327 37.6337V37.4487H28.5477V37.6337H28.7327ZM33.1753 39.2285V39.0435H32.9903V39.2285H33.1753ZM34.7701 39.2285L34.9551 39.2304L34.957 39.0435H34.7701V39.2285ZM33.7639 42.0954L33.6343 41.9633L33.7639 42.0954ZM28.0871 42.0194L27.9515 42.1452L27.9527 42.1465L28.0871 42.0194ZM27.1189 36.4186V36.2336H26.9339V36.4186H27.1189ZM30.3085 36.2857L30.3323 36.4692L30.3351 36.4688L30.3085 36.2857ZM31.8273 35.6782L31.9555 35.8117L31.9581 35.809L31.8273 35.6782ZM32.4349 34.1973L32.6183 34.2215L32.6459 34.0123H32.4349V34.1973ZM26.2645 34.1973H26.0795V34.3823H26.2645V34.1973ZM26.2645 32.9443V32.7593H26.0795V32.9443H26.2645ZM32.5108 32.9443V33.1293H32.6958V32.9443H32.5108ZM32.5108 30.8938H32.6958V30.7088H32.5108V30.8938ZM26.2645 30.8938H26.0795V31.0788H26.2645V30.8938ZM26.2645 29.6218V29.4368H26.0795V29.6218H26.2645ZM36.5927 29.6218H36.7777V29.4368H36.5927V29.6218ZM36.5927 30.8938V31.0788H36.7777V30.8938H36.5927ZM34.1436 30.8938V30.7088H33.9586V30.8938H34.1436ZM33.9586 32.6215V32.9443H34.3286V32.6215H33.9586ZM34.1436 33.1293H36.5927V32.7593H34.1436V33.1293ZM36.4077 32.9443V34.1973H36.7777V32.9443H36.4077ZM36.5927 34.0123H34.0486V34.3823H36.5927V34.0123ZM33.8652 34.1734C33.754 35.026 33.5091 35.6738 33.1444 36.1327L33.434 36.3629C33.854 35.8345 34.1155 35.1153 34.2321 34.2213L33.8652 34.1734ZM33.1426 36.135C32.7918 36.591 32.2717 36.9267 31.5664 37.1334L31.6705 37.4885C32.4335 37.2649 33.0272 36.8918 33.4359 36.3606L33.1426 36.135ZM31.5656 37.1337C30.8684 37.3416 29.9265 37.4487 28.7327 37.4487V37.8187C29.9437 37.8187 30.9256 37.7107 31.6714 37.4883L31.5656 37.1337ZM28.5477 37.6337V39.1336H28.9177V37.6337H28.5477ZM28.5477 39.1336C28.5477 40.0108 28.7388 40.7033 29.1534 41.1777C29.5722 41.6568 30.1907 41.8817 30.973 41.8817V41.5117C30.2617 41.5117 29.76 41.3094 29.432 40.9342C29.0999 40.5542 28.9177 39.9651 28.9177 39.1336H28.5477ZM30.973 41.8817C31.7414 41.8817 32.35 41.6654 32.7628 41.2028C33.172 40.7442 33.3603 40.0749 33.3603 39.2285H32.9903C32.9903 40.0276 32.8116 40.5923 32.4867 40.9565C32.1654 41.3166 31.6728 41.5117 30.973 41.5117V41.8817ZM33.1753 39.4135H34.7701V39.0435H33.1753V39.4135ZM34.5851 39.2267C34.5728 40.462 34.2461 41.3633 33.6343 41.9633L33.8934 42.2274C34.598 41.5364 34.9421 40.5264 34.9551 39.2304L34.5851 39.2267ZM33.6343 41.9633C33.0207 42.5652 32.1366 42.8786 30.954 42.8786V43.2486C32.2016 43.2486 33.1907 42.9166 33.8934 42.2274L33.6343 41.9633ZM30.954 42.8786C29.7354 42.8786 28.8349 42.5411 28.2216 41.8923L27.9527 42.1465C28.6557 42.8901 29.6665 43.2486 30.954 43.2486V42.8786ZM28.2228 41.8936C27.6181 41.2415 27.3039 40.3173 27.3039 39.0956H26.9339C26.9339 40.38 27.2652 41.4051 27.9515 42.1452L28.2228 41.8936ZM27.3039 39.0956V36.4186H26.9339V39.0956H27.3039ZM27.1189 36.6036C28.5631 36.6036 29.6363 36.5594 30.3323 36.4692L30.2847 36.1023C29.6137 36.1893 28.5605 36.2336 27.1189 36.2336V36.6036ZM30.3351 36.4688C31.0482 36.3651 31.5989 36.1539 31.9554 35.8117L31.6992 35.5448C31.4229 35.81 30.961 36.0039 30.2818 36.1027L30.3351 36.4688ZM31.9581 35.809C32.3148 35.4524 32.5269 34.9131 32.6183 34.2215L32.2515 34.1731C32.1656 34.8232 31.9727 35.2712 31.6965 35.5474L31.9581 35.809ZM32.4349 34.0123H26.2645V34.3823H32.4349V34.0123ZM26.4495 34.1973V32.9443H26.0795V34.1973H26.4495ZM26.2645 33.1293H32.5108V32.7593H26.2645V33.1293ZM32.6958 32.9443V32.6025H32.3258V32.9443H32.6958ZM32.6958 32.6025V30.8938H32.3258V32.6025H32.6958ZM32.5108 30.7088H26.2645V31.0788H32.5108V30.7088ZM26.4495 30.8938V29.6218H26.0795V30.8938H26.4495ZM26.2645 29.8068H36.5927V29.4368H26.2645V29.8068ZM36.4077 29.6218V30.8938H36.7777V29.6218H36.4077ZM36.5927 30.7088H34.1436V31.0788H36.5927V30.7088ZM33.9586 30.8938V32.6215H34.3286V30.8938H33.9586Z" fill="white" mask="url(#path-5-outside-1_247_2048)"/>
</svg>
