<svg width="70" height="70" viewBox="0 0 70 70" fill="none" xmlns="http://www.w3.org/2000/svg">
<g filter="url(#filter0_b_247_2051)">
<circle cx="34.7292" cy="34.7292" r="34.7292" fill="white" fill-opacity="0.3"/>
</g>
<g clip-path="url(#clip0_247_2051)">
<path fill-rule="evenodd" clip-rule="evenodd" d="M34.6948 37.7659C38.4536 37.7833 42.1884 38.3536 45.7927 39.4614C47.5012 39.9859 48.6482 41.5247 48.6482 43.292V46.2803C46.08 48.1107 41.1524 50.8226 34.5011 50.8226C31.5542 50.8226 25.8605 50.224 20.3541 46.2803V43.292C20.3541 41.5247 21.5054 39.9837 23.2205 39.4592C26.9509 38.3144 30.8099 37.779 34.6949 37.7659H34.6948ZM34.6535 18.1755C38.2055 18.1755 41.2308 20.6784 41.9512 24.0977C41.3353 24.4546 40.6975 24.7049 39.5941 24.7049C38.175 24.7049 37.5308 24.2979 36.7124 23.7842C35.7809 23.1966 34.7275 22.5284 32.6947 22.5284C30.6466 22.5284 29.5867 23.1988 28.6508 23.7886C28.1045 24.1325 27.6344 24.4285 26.9575 24.5874C27.4733 20.9679 30.5922 18.1755 34.3488 18.1755H34.6535ZM46.4304 37.3807C44.3823 36.7517 42.2907 36.3011 40.1774 36.0008C42.6607 34.2552 44.2953 31.3801 44.2953 28.122H42.1188C42.1188 32.2398 38.7692 35.5872 34.6535 35.5872H34.3488C30.2331 35.5872 26.8835 32.2398 26.8835 28.122V26.8117C28.2351 26.6246 29.0643 26.1022 29.813 25.6277C30.6314 25.1119 31.2778 24.7049 32.6947 24.7049C34.0963 24.7049 34.7384 25.1097 35.5502 25.6234C36.4861 26.2132 37.546 26.8814 39.5941 26.8814C41.6421 26.8814 42.7064 26.2067 43.725 25.5602L44.3018 25.1946L44.2234 24.5134C43.651 19.6598 39.5353 15.999 34.6535 15.999H34.3488C29.0317 15.999 24.707 20.3258 24.707 25.7931V28.122C24.707 31.3867 26.3459 34.264 28.8336 36.0095C26.7224 36.3033 24.6308 36.7495 22.5806 37.3785C19.9471 38.186 18.1776 40.5648 18.1776 43.292V47.3772L18.6129 47.7037C24.7571 52.3112 31.2038 52.999 34.5011 52.999C42.1797 52.999 47.7515 49.6799 50.3894 47.7037L50.8247 47.3772V43.292C50.8247 40.5627 49.0574 38.1882 46.4304 37.3807Z" fill="white"/>
</g>
<defs>
<filter id="filter0_b_247_2051" x="-4.63056" y="-4.63056" width="78.7196" height="78.7196" filterUnits="userSpaceOnUse" color-interpolation-filters="sRGB">
<feFlood flood-opacity="0" result="BackgroundImageFix"/>
<feGaussianBlur in="BackgroundImageFix" stdDeviation="2.31528"/>
<feComposite in2="SourceAlpha" operator="in" result="effect1_backgroundBlur_247_2051"/>
<feBlend mode="normal" in="SourceGraphic" in2="effect1_backgroundBlur_247_2051" result="shape"/>
</filter>
<clipPath id="clip0_247_2051">
<rect width="37" height="37" fill="white" transform="translate(16 16)"/>
</clipPath>
</defs>
</svg>
