<svg width="71" height="71" viewBox="0 0 71 71" fill="none" xmlns="http://www.w3.org/2000/svg">
<g filter="url(#filter0_b_247_2046)">
<circle cx="35.5667" cy="35.5127" r="34.7292" fill="white" fill-opacity="0.3"/>
</g>
<path d="M47.9545 18H31.1364C29.7982 18 28.5149 18.5316 27.5687 19.4778C26.6225 20.424 26.0909 21.7073 26.0909 23.0455V34.8182C26.0909 36.1563 26.6225 37.4396 27.5687 38.3859C28.5149 39.3321 29.7982 39.8636 31.1364 39.8636H47.9545C49.2927 39.8636 50.576 39.3321 51.5222 38.3859C52.4684 37.4396 53 36.1563 53 34.8182V23.0455C53 21.7073 52.4684 20.424 51.5222 19.4778C50.576 18.5316 49.2927 18 47.9545 18ZM49.6364 34.8182C49.6364 35.2642 49.4592 35.692 49.1438 36.0074C48.8284 36.3228 48.4006 36.5 47.9545 36.5H31.1364C30.6903 36.5 30.2625 36.3228 29.9471 36.0074C29.6317 35.692 29.4545 35.2642 29.4545 34.8182V23.0455C29.4545 22.5994 29.6317 22.1716 29.9471 21.8562C30.2625 21.5408 30.6903 21.3636 31.1364 21.3636H47.9545C48.4006 21.3636 48.8284 21.5408 49.1438 21.8562C49.4592 22.1716 49.6364 22.5994 49.6364 23.0455V34.8182ZM43.75 28.0909C43.1274 28.093 42.5278 28.3268 42.0682 28.7468C41.7065 28.4181 41.2572 28.2015 40.7748 28.1234C40.2924 28.0452 39.7976 28.1089 39.3507 28.3066C38.9038 28.5043 38.5239 28.8276 38.2573 29.2372C37.9906 29.6467 37.8486 30.1249 37.8486 30.6136C37.8486 31.1023 37.9906 31.5805 38.2573 31.9901C38.5239 32.3996 38.9038 32.7229 39.3507 32.9207C39.7976 33.1184 40.2924 33.182 40.7748 33.1039C41.2572 33.0258 41.7065 32.8092 42.0682 32.4805C42.3719 32.7565 42.7384 32.9543 43.1358 33.0566C43.5332 33.159 43.9496 33.1628 44.3489 33.0678C44.7482 32.9728 45.1182 32.7818 45.427 32.5114C45.7357 32.241 45.9738 31.8994 46.1207 31.5162C46.2675 31.1329 46.3186 30.7197 46.2696 30.3122C46.2206 29.9047 46.0729 29.5154 45.8393 29.1779C45.6057 28.8404 45.2934 28.5651 44.9293 28.3756C44.5652 28.1862 44.1604 28.0885 43.75 28.0909ZM41.2273 43.2273C40.7812 43.2273 40.3534 43.4045 40.038 43.7199C39.7226 44.0353 39.5455 44.463 39.5455 44.9091V46.5909C39.5455 47.037 39.3683 47.4647 39.0529 47.7801C38.7375 48.0955 38.3097 48.2727 37.8636 48.2727H21.0455C20.5994 48.2727 20.1716 48.0955 19.8562 47.7801C19.5408 47.4647 19.3636 47.037 19.3636 46.5909V39.8636H21.0455C21.4915 39.8636 21.9193 39.6864 22.2347 39.371C22.5501 39.0556 22.7273 38.6279 22.7273 38.1818C22.7273 37.7358 22.5501 37.308 22.2347 36.9926C21.9193 36.6772 21.4915 36.5 21.0455 36.5H19.3636V34.8182C19.3636 34.3721 19.5408 33.9444 19.8562 33.629C20.1716 33.3136 20.5994 33.1364 21.0455 33.1364C21.4915 33.1364 21.9193 32.9592 22.2347 32.6438C22.5501 32.3284 22.7273 31.9006 22.7273 31.4545C22.7273 31.0085 22.5501 30.5807 22.2347 30.2653C21.9193 29.9499 21.4915 29.7727 21.0455 29.7727C19.7073 29.7727 18.424 30.3043 17.4778 31.2505C16.5316 32.1967 16 33.48 16 34.8182V46.5909C16 47.929 16.5316 49.2124 17.4778 50.1586C18.424 51.1048 19.7073 51.6364 21.0455 51.6364H37.8636C39.2018 51.6364 40.4851 51.1048 41.4313 50.1586C42.3775 49.2124 42.9091 47.929 42.9091 46.5909V44.9091C42.9091 44.463 42.7319 44.0353 42.4165 43.7199C42.1011 43.4045 41.6733 43.2273 41.2273 43.2273ZM24.4091 44.9091H26.0909C26.537 44.9091 26.9647 44.7319 27.2801 44.4165C27.5955 44.1011 27.7727 43.6733 27.7727 43.2273C27.7727 42.7812 27.5955 42.3534 27.2801 42.038C26.9647 41.7226 26.537 41.5455 26.0909 41.5455H24.4091C23.963 41.5455 23.5353 41.7226 23.2199 42.038C22.9045 42.3534 22.7273 42.7812 22.7273 43.2273C22.7273 43.6733 22.9045 44.1011 23.2199 44.4165C23.5353 44.7319 23.963 44.9091 24.4091 44.9091Z" fill="white"/>
<defs>
<filter id="filter0_b_247_2046" x="-3.79304" y="-3.84711" width="78.7196" height="78.7196" filterUnits="userSpaceOnUse" color-interpolation-filters="sRGB">
<feFlood flood-opacity="0" result="BackgroundImageFix"/>
<feGaussianBlur in="BackgroundImageFix" stdDeviation="2.31528"/>
<feComposite in2="SourceAlpha" operator="in" result="effect1_backgroundBlur_247_2046"/>
<feBlend mode="normal" in="SourceGraphic" in2="effect1_backgroundBlur_247_2046" result="shape"/>
</filter>
</defs>
</svg>
