<svg width="70" height="70" viewBox="0 0 70 70" fill="none" xmlns="http://www.w3.org/2000/svg">
<path opacity="0.3" d="M69.4584 34.7292C69.4584 53.9096 53.9096 69.4584 34.7292 69.4584C15.5488 69.4584 0 53.9096 0 34.7292C0 15.5488 15.5488 0 34.7292 0C53.9096 0 69.4584 15.5488 69.4584 34.7292Z" fill="#FAE9F5"/>
<g clip-path="url(#clip0_247_2054)">
<path d="M44.4902 24.8488L42.7052 27.1419C46.5528 30.1358 48.472 34.9828 47.7145 39.7928C47.1596 43.3223 45.2631 46.4245 42.3748 48.5284C39.4856 50.6311 35.9513 51.4858 32.4218 50.928C25.1358 49.7808 20.14 42.92 21.2853 35.6334C21.8402 32.1035 23.7373 29.0011 26.6259 26.8978C29.148 25.0619 32.1617 24.1801 35.2351 24.355L32.7231 26.9903L34.5866 28.7686L38.5519 24.6057L38.5528 24.6072L40.3292 22.7418L38.4671 20.9654L38.4661 20.966L34.3048 17L32.527 18.8654L35.2385 21.448C31.5526 21.2736 27.9423 22.3458 24.916 24.5494C21.4 27.1094 19.0915 30.8852 18.4155 35.1824C17.0212 44.051 23.1014 52.4029 31.97 53.7985C32.8272 53.9337 33.684 54 34.5352 54C37.9513 54 41.2706 52.9263 44.0848 50.8768C47.6011 48.3164 49.9093 44.5406 50.5853 40.2444C51.5074 34.3911 49.1717 28.4915 44.4902 24.8488Z" fill="white"/>
<path d="M37.498 34.5007V36.0215H39.5192V37.8626H37.3779C37.1645 39.13 36.6375 40.0505 35.797 40.6242C34.9699 41.1978 33.7158 41.4847 32.0349 41.4847V42.5453C32.0349 43.1723 32.1616 43.6659 32.4151 44.0261C32.6819 44.3864 33.1288 44.5665 33.7559 44.5665C34.3562 44.5665 34.7898 44.3997 35.0566 44.0662C35.3234 43.7193 35.4568 43.219 35.4568 42.5653H38.0583C38.0316 43.9127 37.6514 44.9467 36.9177 45.6671C36.1839 46.3742 35.1366 46.7277 33.7759 46.7277C32.3617 46.7277 31.2811 46.3475 30.534 45.587C29.7869 44.8266 29.4133 43.7193 29.4133 42.2651V39.6036C30.8408 39.6036 31.8948 39.5702 32.5752 39.5035C33.2556 39.4235 33.7625 39.2634 34.096 39.0233C34.4296 38.7831 34.6497 38.3962 34.7564 37.8626H28.773V36.0215H34.8565V34.5007H28.773V32.5395H39.5192V34.5007H37.498Z" fill="white"/>
</g>
<defs>
<clipPath id="clip0_247_2054">
<rect width="37" height="37" fill="white" transform="translate(16 17)"/>
</clipPath>
</defs>
</svg>
