<svg width="70" height="70" viewBox="0 0 70 70" fill="none" xmlns="http://www.w3.org/2000/svg">
<g filter="url(#filter0_b_247_2053)">
<circle cx="35.1933" cy="35.1723" r="34.7292" fill="white" fill-opacity="0.3"/>
</g>
<path d="M37.9999 27.0003C39.1045 27.0003 40 26.1048 40 25.0002V21.0003C40 20.4737 39.7867 19.9584 39.4142 19.586C39.0418 19.2136 38.5267 19.0002 37.9999 19.0002H13.9996C13.228 19.0002 12.5227 19.4465 12.1923 20.1438C11.8619 20.8411 11.963 21.6695 12.4517 22.2668L23.4157 35.6671L12.4518 49.0676C11.9631 49.6646 11.862 50.4933 12.1924 51.1906C12.5228 51.888 13.2282 52.3341 13.9997 52.3341H37.9999C38.5265 52.3341 39.0417 52.1208 39.4142 51.7484C39.7868 51.3759 40 50.8608 40 50.3341V46.334C40 45.2294 39.1045 44.3339 37.9999 44.3339C36.8953 44.3339 35.9998 45.2294 35.9998 46.334V48.3341H18.2202L27.5477 36.9338C28.1519 36.1954 28.1519 35.1391 27.5477 34.4008L18.2202 23.0005H35.9998V25.0005C36 26.1047 36.8954 27.0003 37.9999 27.0003Z" fill="white"/>
<path d="M51.66 19.1442C51.468 18.7922 51.204 18.5242 50.868 18.3402C50.532 18.1562 50.14 18.0642 49.692 18.0642C49.196 18.0642 48.756 18.1762 48.372 18.4002C47.988 18.6242 47.688 18.9442 47.472 19.3602C47.256 19.7762 47.148 20.2562 47.148 20.8002C47.148 21.3602 47.256 21.8482 47.472 22.2642C47.696 22.6802 48.004 23.0002 48.396 23.2242C48.788 23.4482 49.244 23.5602 49.764 23.5602C50.404 23.5602 50.928 23.3922 51.336 23.0562C51.744 22.7122 52.012 22.2362 52.14 21.6282H49.26V20.3442H53.796V21.8082C53.684 22.3922 53.444 22.9322 53.076 23.4282C52.708 23.9242 52.232 24.3242 51.648 24.6282C51.072 24.9242 50.424 25.0722 49.704 25.0722C48.896 25.0722 48.164 24.8922 47.508 24.5322C46.86 24.1642 46.348 23.6562 45.972 23.0082C45.604 22.3602 45.42 21.6242 45.42 20.8002C45.42 19.9762 45.604 19.2402 45.972 18.5922C46.348 17.9362 46.86 17.4282 47.508 17.0682C48.164 16.7002 48.892 16.5162 49.692 16.5162C50.636 16.5162 51.456 16.7482 52.152 17.2122C52.848 17.6682 53.328 18.3122 53.592 19.1442H51.66ZM51.528 31.6242V32.9802H49.296V40.0002H47.616V32.9802H45.384V31.6242H51.528ZM53.352 46.6242L50.28 55.0002H48.24L45.168 46.6242H46.968L49.272 53.2842L51.564 46.6242H53.352Z" fill="white"/>
<defs>
<filter id="filter0_b_247_2053" x="-4.16645" y="-4.18745" width="78.7196" height="78.7196" filterUnits="userSpaceOnUse" color-interpolation-filters="sRGB">
<feFlood flood-opacity="0" result="BackgroundImageFix"/>
<feGaussianBlur in="BackgroundImageFix" stdDeviation="2.31528"/>
<feComposite in2="SourceAlpha" operator="in" result="effect1_backgroundBlur_247_2053"/>
<feBlend mode="normal" in="SourceGraphic" in2="effect1_backgroundBlur_247_2053" result="shape"/>
</filter>
</defs>
</svg>
