<svg width="25" height="24" viewBox="0 0 25 24" fill="none" xmlns="http://www.w3.org/2000/svg">
<g clip-path="url(#clip0_970_975)">
<path d="M21.5909 0.0737305H10.2273C9.32313 0.0737305 8.45601 0.418535 7.81668 1.03229C7.17735 1.64605 6.81818 2.47848 6.81818 3.34646V10.9828C6.81818 11.8508 7.17735 12.6832 7.81668 13.297C8.45601 13.9107 9.32313 14.2555 10.2273 14.2555H21.5909C22.4951 14.2555 23.3622 13.9107 24.0015 13.297C24.6408 12.6832 25 11.8508 25 10.9828V3.34646C25 2.47848 24.6408 1.64605 24.0015 1.03229C23.3622 0.418535 22.4951 0.0737305 21.5909 0.0737305ZM22.7273 10.9828C22.7273 11.2721 22.6075 11.5496 22.3944 11.7542C22.1813 11.9588 21.8923 12.0737 21.5909 12.0737H10.2273C9.92589 12.0737 9.63685 11.9588 9.42374 11.7542C9.21063 11.5496 9.09091 11.2721 9.09091 10.9828V3.34646C9.09091 3.05713 9.21063 2.77965 9.42374 2.57507C9.63685 2.37048 9.92589 2.25555 10.2273 2.25555H21.5909C21.8923 2.25555 22.1813 2.37048 22.3944 2.57507C22.6075 2.77965 22.7273 3.05713 22.7273 3.34646V10.9828ZM18.75 6.61918C18.3293 6.62055 17.9242 6.77222 17.6136 7.04464C17.3693 6.83142 17.0657 6.69093 16.7397 6.64024C16.4138 6.58955 16.0795 6.63084 15.7775 6.7591C15.4755 6.88736 15.2189 7.09706 15.0387 7.36271C14.8585 7.62837 14.7626 7.93855 14.7626 8.25555C14.7626 8.57255 14.8585 8.88273 15.0387 9.14838C15.2189 9.41404 15.4755 9.62374 15.7775 9.752C16.0795 9.88025 16.4138 9.92155 16.7397 9.87086C17.0657 9.82016 17.3693 9.67967 17.6136 9.46646C17.8188 9.64551 18.0665 9.77379 18.335 9.84018C18.6035 9.90657 18.8849 9.90906 19.1547 9.84744C19.4244 9.78581 19.6745 9.66194 19.8831 9.48655C20.0917 9.31116 20.2526 9.08957 20.3518 8.84098C20.451 8.59239 20.4856 8.32432 20.4524 8.06001C20.4193 7.79571 20.3195 7.54316 20.1617 7.32426C20.0039 7.10537 19.7928 6.92674 19.5468 6.80387C19.3008 6.681 19.0273 6.61761 18.75 6.61918ZM17.0455 16.4374C16.7441 16.4374 16.455 16.5523 16.2419 16.7569C16.0288 16.9615 15.9091 17.2389 15.9091 17.5283V18.6192C15.9091 18.9085 15.7894 19.186 15.5763 19.3906C15.3631 19.5952 15.0741 19.7101 14.7727 19.7101H3.40909C3.10771 19.7101 2.81867 19.5952 2.60556 19.3906C2.39245 19.186 2.27273 18.9085 2.27273 18.6192V14.2555H3.40909C3.71047 14.2555 3.99951 14.1406 4.21262 13.936C4.42573 13.7314 4.54545 13.454 4.54545 13.1646C4.54545 12.8753 4.42573 12.5978 4.21262 12.3932C3.99951 12.1887 3.71047 12.0737 3.40909 12.0737H2.27273V10.9828C2.27273 10.6935 2.39245 10.416 2.60556 10.2114C2.81867 10.0068 3.10771 9.89191 3.40909 9.89191C3.71047 9.89191 3.99951 9.77698 4.21262 9.57239C4.42573 9.36781 4.54545 9.09033 4.54545 8.801C4.54545 8.51168 4.42573 8.2342 4.21262 8.02961C3.99951 7.82503 3.71047 7.71009 3.40909 7.71009C2.50494 7.71009 1.63783 8.0549 0.9985 8.66865C0.359171 9.28241 0 10.1148 0 10.9828V18.6192C0 19.4872 0.359171 20.3196 0.9985 20.9334C1.63783 21.5471 2.50494 21.8919 3.40909 21.8919H14.7727C15.6769 21.8919 16.544 21.5471 17.1833 20.9334C17.8226 20.3196 18.1818 19.4872 18.1818 18.6192V17.5283C18.1818 17.2389 18.0621 16.9615 17.849 16.7569C17.6359 16.5523 17.3468 16.4374 17.0455 16.4374ZM5.68182 17.5283H6.81818C7.11956 17.5283 7.4086 17.4133 7.62171 17.2088C7.83482 17.0042 7.95455 16.7267 7.95455 16.4374C7.95455 16.148 7.83482 15.8706 7.62171 15.666C7.4086 15.4614 7.11956 15.3465 6.81818 15.3465H5.68182C5.38044 15.3465 5.0914 15.4614 4.87829 15.666C4.66518 15.8706 4.54545 16.148 4.54545 16.4374C4.54545 16.7267 4.66518 17.0042 4.87829 17.2088C5.0914 17.4133 5.38044 17.5283 5.68182 17.5283Z" fill="#131123"/>
</g>
<defs>
<clipPath id="clip0_970_975">
<rect width="25" height="23" fill="white" transform="translate(0 0.0737305)"/>
</clipPath>
</defs>
</svg>
