<svg width="24" height="30" viewBox="0 0 24 30" fill="none" xmlns="http://www.w3.org/2000/svg">
<path d="M15.79 10.8067C16.7775 10.0288 17.4982 8.96204 17.852 7.75487C18.2058 6.54771 18.175 5.26014 17.7639 4.07132C17.3529 2.88249 16.5819 1.85151 15.5584 1.12182C14.5349 0.392123 13.3097 0 12.0532 0C10.7967 0 9.57152 0.392123 8.548 1.12182C7.52447 1.85151 6.75354 2.88249 6.34246 4.07132C5.93139 5.26014 5.9006 6.54771 6.25438 7.75487C6.60817 8.96204 7.32893 10.0288 8.31641 10.8067C6.62435 11.4854 5.14797 12.6113 4.04467 14.0641C2.94136 15.5169 2.25249 17.2423 2.05149 19.0563C2.03694 19.1887 2.04858 19.3227 2.08576 19.4507C2.12293 19.5786 2.18491 19.698 2.26815 19.8019C2.43626 20.0118 2.68078 20.1463 2.94791 20.1757C3.21505 20.2052 3.48291 20.1271 3.69258 19.9588C3.90225 19.7905 4.03655 19.5456 4.06593 19.2782C4.2871 17.3067 5.22593 15.486 6.70306 14.1638C8.18018 12.8416 10.092 12.1107 12.0733 12.1107C14.0547 12.1107 15.9665 12.8416 17.4436 14.1638C18.9208 15.486 19.8596 17.3067 20.0808 19.2782C20.1081 19.526 20.2262 19.7548 20.4122 19.9206C20.5982 20.0863 20.839 20.1772 21.088 20.1757H21.1988C21.4628 20.1453 21.7041 20.0116 21.8701 19.8038C22.0362 19.596 22.1134 19.331 22.0851 19.0664C21.8832 17.2472 21.1906 15.5174 20.0816 14.0624C18.9726 12.6073 17.4891 11.4819 15.79 10.8067ZM12.0532 10.0906C11.2564 10.0906 10.4774 9.85404 9.81487 9.41078C9.15232 8.96751 8.63593 8.33748 8.33099 7.60036C8.02606 6.86323 7.94627 6.05212 8.10173 5.2696C8.25718 4.48707 8.6409 3.76827 9.20435 3.2041C9.7678 2.63993 10.4857 2.25573 11.2672 2.10007C12.0487 1.94442 12.8588 2.02431 13.595 2.32963C14.3312 2.63496 14.9604 3.15201 15.4031 3.81541C15.8458 4.4788 16.0821 5.25874 16.0821 6.0566C16.0821 7.12649 15.6576 8.15257 14.9021 8.90909C14.1465 9.66562 13.1217 10.0906 12.0532 10.0906Z" fill="#131123"/>
<line x1="2.72729" y1="19.2271" x2="21.1364" y2="19.2271" stroke="#131123" stroke-width="1.90909"/>
<path d="M11.0455 24.3638C11.0455 24.891 11.4728 25.3183 12 25.3183C12.5272 25.3183 12.9545 24.891 12.9545 24.3638L11.0455 24.3638ZM11.0455 19.3638L11.0455 24.3638L12.9545 24.3638L12.9545 19.3638L11.0455 19.3638Z" fill="#131123"/>
<path d="M2.04545 24.3638C2.04545 24.891 2.47282 25.3183 3 25.3183C3.52718 25.3183 3.95455 24.891 3.95455 24.3638L2.04545 24.3638ZM2.04545 19.3638L2.04545 24.3638L3.95455 24.3638L3.95455 19.3638L2.04545 19.3638Z" fill="#131123"/>
<path d="M20.1818 23.8184C20.1818 24.3455 20.6092 24.7729 21.1364 24.7729C21.6635 24.7729 22.0909 24.3455 22.0909 23.8184L20.1818 23.8184ZM20.1818 18.8184L20.1818 23.8184L22.0909 23.8184L22.0909 18.8184L20.1818 18.8184Z" fill="#131123"/>
<circle cx="2.93182" cy="26.1135" r="1.97727" stroke="#131123" stroke-width="1.90909"/>
<circle cx="12.0682" cy="26.1135" r="1.97727" stroke="#131123" stroke-width="1.90909"/>
<circle cx="21.0682" cy="26.1135" r="1.97727" stroke="#131123" stroke-width="1.90909"/>
</svg>
