<svg width="25" height="30" viewBox="0 0 25 30" fill="none" xmlns="http://www.w3.org/2000/svg">
<g clip-path="url(#clip0_970_998)">
<path d="M16.4479 11.0508C17.4765 10.2729 18.2273 9.20618 18.5958 7.99901C18.9644 6.79185 18.9323 5.50428 18.5041 4.31546C18.0759 3.12663 17.2728 2.09565 16.2067 1.36596C15.1405 0.636264 13.8642 0.244141 12.5554 0.244141C11.2466 0.244141 9.97032 0.636264 8.90415 1.36596C7.83798 2.09565 7.03492 3.12663 6.60672 4.31546C6.17851 5.50428 6.14644 6.79185 6.51496 7.99901C6.88349 9.20618 7.63429 10.2729 8.66291 11.0508C6.90035 11.7296 5.36246 12.8554 4.21318 14.3082C3.0639 15.761 2.34632 17.4864 2.13694 19.3004C2.12179 19.4329 2.13392 19.5669 2.17264 19.6948C2.21137 19.8227 2.27593 19.9421 2.36264 20.046C2.53775 20.256 2.79246 20.3904 3.07072 20.4199C3.34899 20.4493 3.62801 20.3713 3.84642 20.2029C4.06482 20.0346 4.20472 19.7898 4.23532 19.5223C4.46571 17.5509 5.44366 15.7301 6.98233 14.4079C8.521 13.0858 10.5125 12.3549 12.5764 12.3549C14.6402 12.3549 16.6318 13.0858 18.1704 14.4079C19.7091 15.7301 20.6871 17.5509 20.9174 19.5223C20.946 19.7701 21.069 19.999 21.2627 20.1647C21.4565 20.3305 21.7073 20.4214 21.9666 20.4199H22.082C22.3571 20.3895 22.6085 20.2558 22.7814 20.048C22.9543 19.8402 23.0348 19.5751 23.0053 19.3105C22.795 17.4914 22.0735 15.7616 20.9183 14.3065C19.7632 12.8514 18.2178 11.726 16.4479 11.0508ZM12.5554 10.3348C11.7254 10.3348 10.914 10.0982 10.2238 9.65492C9.53365 9.21165 8.99574 8.58162 8.6781 7.8445C8.36046 7.10738 8.27735 6.29626 8.43928 5.51374C8.60121 4.73121 9.00092 4.01241 9.58784 3.44824C10.1748 2.88407 10.9226 2.49987 11.7367 2.34421C12.5507 2.18856 13.3946 2.26845 14.1614 2.57377C14.9283 2.8791 15.5837 3.39615 16.0449 4.05955C16.506 4.72294 16.7522 5.50288 16.7522 6.30074C16.7522 7.37063 16.31 8.39671 15.523 9.15324C14.7359 9.90976 13.6685 10.3348 12.5554 10.3348Z" fill="#1D4AA3"/>
<line x1="2.84094" y1="19.4712" x2="22.0171" y2="19.4712" stroke="#1D4AA3" stroke-width="1.90909"/>
<path d="M11.5455 24.6079C11.5455 25.1351 11.9728 25.5625 12.5 25.5625C13.0272 25.5625 13.4545 25.1351 13.4545 24.6079L11.5455 24.6079ZM11.5455 19.6079L11.5455 24.6079L13.4545 24.6079L13.4545 19.6079L11.5455 19.6079Z" fill="#1D4AA3"/>
<path d="M2.17045 24.6079C2.17045 25.1351 2.59782 25.5625 3.125 25.5625C3.65218 25.5625 4.07955 25.1351 4.07955 24.6079L2.17045 24.6079ZM2.17045 19.6079L2.17045 24.6079L4.07955 24.6079L4.07955 19.6079L2.17045 19.6079Z" fill="#1D4AA3"/>
<path d="M21.0625 24.0625C21.0625 24.5897 21.4899 25.017 22.0171 25.017C22.5443 25.017 22.9716 24.5897 22.9716 24.0625L21.0625 24.0625ZM21.0625 19.0625L21.0625 24.0625L22.9716 24.0625L22.9716 19.0625L21.0625 19.0625Z" fill="#1D4AA3"/>
<path d="M5.15341 26.3576C5.15341 27.4133 4.25056 28.3349 3.05398 28.3349C1.85739 28.3349 0.954545 27.4133 0.954545 26.3576C0.954545 25.3019 1.85739 24.3803 3.05398 24.3803C4.25056 24.3803 5.15341 25.3019 5.15341 26.3576Z" stroke="#1D4AA3" stroke-width="1.90909"/>
<path d="M14.6705 26.3576C14.6705 27.4133 13.7677 28.3349 12.5711 28.3349C11.3745 28.3349 10.4716 27.4133 10.4716 26.3576C10.4716 25.3019 11.3745 24.3803 12.5711 24.3803C13.7677 24.3803 14.6705 25.3019 14.6705 26.3576Z" stroke="#1D4AA3" stroke-width="1.90909"/>
<path d="M24.0455 26.3576C24.0455 27.4133 23.1427 28.3349 21.9461 28.3349C20.7495 28.3349 19.8466 27.4133 19.8466 26.3576C19.8466 25.3019 20.7495 24.3803 21.9461 24.3803C23.1427 24.3803 24.0455 25.3019 24.0455 26.3576Z" stroke="#1D4AA3" stroke-width="1.90909"/>
</g>
<defs>
<clipPath id="clip0_970_998">
<rect width="25" height="29.0453" fill="white" transform="translate(0 0.244141)"/>
</clipPath>
</defs>
</svg>
